<?xml version="1.0" standalone="no"?>
<!DOCTYPE svg PUBLIC "-//W3C//DTD SVG 20010904//EN"
 "http://www.w3.org/TR/2001/REC-SVG-20010904/DTD/svg10.dtd">
<svg version="1.0" xmlns="http://www.w3.org/2000/svg"
 width="16.000000pt" height="16.000000pt" viewBox="0 0 16.000000 16.000000"
 preserveAspectRatio="xMidYMid meet">
<metadata>
Created by potrace 1.11, written by Peter Selinger 2001-2013
</metadata>
<g transform="translate(0.000000,16.000000) scale(0.003125,-0.003125)"
fill="#000000" stroke="none">
<path d="M895 4787 c-11 -7 -23 -16 -26 -20 -3 -5 -10 -8 -14 -6 -7 2 -38 -17
-61 -38 -7 -7 -20 -13 -30 -13 -10 0 -14 -3 -10 -7 3 -4 -2 -12 -12 -17 -37
-21 -112 -91 -112 -105 0 -8 -3 -12 -6 -8 -6 6 -44 -23 -44 -35 0 -7 -21 -36
-47 -63 -7 -8 -13 -18 -13 -24 0 -6 -5 -11 -11 -11 -5 0 -7 -4 -4 -10 3 -5 2
-10 -4 -10 -12 0 -8 -377 4 -445 4 -22 8 -50 9 -62 1 -12 5 -25 8 -28 4 -4 4
-14 1 -23 -5 -11 -3 -13 8 -7 11 7 11 5 -1 -10 -11 -14 -12 -17 -1 -11 9 6 12
5 9 -5 -3 -8 -1 -22 3 -31 6 -10 5 -19 -1 -23 -6 -3 -13 1 -16 9 -3 9 -10 13
-15 10 -5 -3 -6 2 -3 10 3 9 1 16 -5 16 -6 0 -11 5 -11 11 0 6 -9 22 -20 36
-11 14 -18 29 -15 33 3 4 -2 10 -10 14 -8 3 -15 14 -15 24 0 10 -8 27 -18 38
-10 10 -19 22 -19 27 -4 26 -11 32 -23 20 -33 -31 -43 -131 -25 -248 3 -22 7
-46 7 -52 1 -7 6 -13 11 -13 5 0 7 -6 4 -14 -3 -8 -3 -17 1 -21 7 -7 9 -13 11
-46 1 -12 5 -17 13 -13 7 4 8 3 4 -4 -4 -6 -2 -22 5 -34 7 -12 12 -29 13 -38
1 -8 21 -55 45 -105 25 -49 44 -92 45 -95 0 -3 8 -14 18 -24 9 -10 15 -22 13
-26 -2 -4 5 -16 15 -28 11 -12 20 -25 20 -30 0 -5 7 -15 15 -22 9 -7 13 -15
11 -17 -3 -3 4 -14 15 -26 10 -11 19 -27 19 -34 0 -7 3 -13 8 -13 4 0 18 -18
32 -40 13 -22 28 -40 32 -40 4 0 8 -6 8 -14 0 -8 7 -17 16 -20 9 -4 14 -9 11
-12 -5 -6 22 -41 71 -91 12 -13 22 -26 22 -29 0 -3 20 -25 44 -50 25 -25 46
-48 48 -52 2 -4 6 -6 11 -4 4 1 7 -3 7 -9 0 -13 138 -149 151 -149 4 0 11 -9
14 -20 3 -11 13 -20 21 -20 8 0 17 -7 20 -15 3 -8 14 -17 25 -20 11 -4 17 -10
14 -15 -3 -5 4 -12 16 -15 24 -8 59 -40 53 -49 -2 -3 -1 -4 2 -1 4 2 21 -7 39
-20 33 -26 45 -24 45 7 0 10 5 18 11 18 5 0 8 4 4 9 -3 5 -1 12 5 16 5 3 10
15 10 26 0 10 4 19 10 19 5 0 12 16 16 35 3 19 10 32 15 29 5 -3 10 1 11 8 0
7 2 18 2 23 1 6 10 20 21 33 11 12 19 25 17 28 -1 2 3 11 10 19 18 20 28 33
72 93 21 28 43 52 49 52 5 0 8 2 5 6 -5 5 108 124 118 124 3 0 15 11 28 25 13
14 28 25 34 25 5 0 13 7 16 16 4 9 9 14 12 11 5 -5 27 10 59 41 8 6 18 12 22
12 5 0 24 11 43 25 18 13 37 22 41 19 5 -3 9 -1 9 5 0 5 9 12 19 16 23 7 17
35 -7 35 -8 0 -13 3 -9 6 7 7 -35 50 -45 46 -5 -1 -8 3 -8 8 0 10 -8 20 -84
105 -19 22 -36 46 -36 53 0 7 -4 10 -10 7 -5 -3 -10 -2 -10 4 0 6 -10 20 -22
32 -13 12 -16 18 -8 14 8 -4 6 1 -5 13 -34 36 -45 51 -45 62 0 5 -5 10 -12 10
-6 0 -9 3 -5 6 3 4 1 12 -6 20 -22 24 -32 39 -46 67 -8 15 -18 27 -23 27 -5 0
-7 4 -4 8 3 5 -6 25 -19 44 -13 20 -21 38 -18 42 4 3 1 6 -5 6 -7 0 -12 9 -12
21 0 11 -4 17 -10 14 -5 -3 -10 0 -10 7 -1 7 -9 31 -20 53 -11 22 -19 44 -20
48 0 5 -6 15 -14 23 -13 12 -15 11 -21 -6 -3 -11 -11 -20 -16 -20 -5 0 -9 -7
-9 -16 0 -8 -4 -12 -10 -9 -5 3 -10 0 -10 -7 0 -7 -20 17 -45 54 -25 37 -45
75 -45 83 0 9 -4 13 -10 10 -5 -3 -12 6 -16 20 -3 14 -9 25 -13 25 -3 0 -15
20 -26 45 -11 25 -23 45 -26 45 -4 0 -10 13 -14 29 -3 16 -13 32 -21 35 -8 3
-14 14 -14 25 0 11 -4 21 -8 23 -11 4 -52 86 -52 103 0 8 -4 15 -9 15 -9 0
-77 131 -73 143 1 4 -2 7 -7 7 -8 0 -24 37 -22 53 1 4 -3 7 -9 7 -5 0 -10 7
-10 15 0 8 -5 15 -11 15 -6 0 -9 7 -5 15 3 8 2 15 -2 15 -8 0 -57 101 -54 113
3 10 -10 8 -33 -6z"/>
<path d="M1970 4792 c0 -5 -10 -9 -22 -10 -48 -3 -67 -9 -84 -23 -16 -12 -17
-12 -9 1 8 13 6 13 -8 2 -9 -8 -22 -10 -28 -6 -8 4 -9 3 -5 -4 5 -8 0 -12 -13
-12 -12 0 -21 -5 -21 -11 0 -5 -4 -7 -10 -4 -5 3 -10 1 -10 -4 0 -6 -9 -11
-19 -11 -11 0 -21 -5 -23 -11 -2 -5 -10 -11 -18 -12 -27 -4 -176 -143 -210
-196 -8 -13 -21 -29 -27 -37 -7 -7 -13 -19 -13 -28 0 -8 -7 -21 -15 -30 -9 -8
-16 -19 -17 -23 0 -4 -5 -19 -10 -33 -17 -41 -26 -89 -19 -95 6 -6 7 -10 10
-36 0 -5 5 -7 11 -4 6 3 7 -1 4 -9 -3 -9 -2 -16 4 -16 5 0 12 -9 15 -20 7 -27
21 -22 63 18 32 30 63 44 49 22 -3 -5 -2 -10 4 -10 6 0 14 -12 17 -27 4 -16 9
-32 13 -38 3 -5 6 -16 7 -23 2 -8 10 -22 20 -33 13 -15 14 -19 3 -19 -10 -1
-9 -3 3 -10 10 -6 15 -19 13 -30 -2 -11 0 -18 6 -15 5 4 9 0 9 -7 0 -7 9 -30
20 -51 11 -20 17 -37 14 -37 -3 0 2 -7 11 -16 9 -9 19 -29 22 -45 3 -16 9 -29
13 -29 4 0 15 -18 23 -39 9 -22 21 -42 27 -46 6 -3 8 -11 5 -16 -4 -5 -1 -9 4
-9 6 0 11 -6 11 -14 0 -7 7 -19 15 -26 8 -7 15 -20 15 -29 0 -9 9 -23 19 -31
11 -7 18 -17 15 -22 -3 -4 170 -8 385 -7 l390 1 0 244 c0 154 4 251 11 264 6
11 8 20 5 20 -10 0 27 62 51 87 13 13 24 29 24 35 0 6 3 8 6 5 4 -4 19 2 33
13 15 10 39 22 54 25 15 4 30 11 32 16 3 4 16 5 28 0 12 -5 31 -5 42 -1 11 4
25 5 30 2 6 -4 21 -8 35 -10 13 -2 27 -6 30 -10 3 -4 22 -16 43 -26 20 -11 37
-23 37 -28 0 -5 5 -6 12 -2 6 4 8 3 5 -3 -4 -6 0 -17 9 -24 19 -16 47 -69 37
-69 -5 0 -3 -4 4 -8 19 -12 31 -84 18 -114 -4 -10 -3 -18 2 -18 5 0 9 -9 9
-20 0 -11 -3 -20 -6 -20 -4 0 -7 -7 -7 -15 0 -8 4 -15 9 -15 5 0 4 -10 -3 -21
-6 -12 -7 -24 -3 -28 11 -8 14 -41 5 -41 -4 0 -8 -7 -8 -15 0 -8 4 -15 9 -15
5 0 4 -10 -3 -21 -6 -12 -7 -24 -3 -28 11 -8 14 -41 5 -41 -4 0 -8 -7 -8 -15
0 -8 4 -15 9 -15 5 0 4 -10 -3 -21 -6 -12 -7 -24 -3 -28 11 -8 14 -41 5 -41
-4 0 -8 -7 -8 -15 0 -8 4 -15 9 -15 5 0 4 -10 -3 -21 -6 -12 -7 -24 -3 -28 11
-8 14 -41 5 -41 -4 0 -8 -7 -8 -15 0 -8 4 -15 9 -15 5 0 4 -10 -3 -21 -6 -12
-7 -24 -3 -28 11 -8 14 -41 5 -41 -4 0 -8 -7 -8 -15 0 -8 4 -15 9 -15 5 0 4
-10 -3 -21 -8 -17 -8 -23 1 -29 8 -5 9 -13 4 -21 -12 -20 -14 -39 -3 -39 5 0
4 -11 -1 -25 -6 -16 -6 -25 1 -25 6 0 6 -7 -1 -20 -8 -14 -8 -20 0 -20 7 0 7
-7 -1 -21 -8 -16 -8 -23 1 -29 9 -6 9 -9 -1 -13 -10 -4 -10 -6 -2 -6 9 -1 10
-8 3 -25 -9 -26 2 -36 41 -36 10 0 19 -6 19 -12 0 -9 4 -8 10 2 5 8 10 10 10
5 0 -6 9 -11 20 -12 26 -2 110 -44 110 -55 0 -4 5 -8 11 -8 6 0 23 -13 38 -29
16 -17 41 -33 57 -37 16 -4 41 -15 55 -25 14 -10 29 -16 33 -12 3 3 6 1 6 -5
0 -7 7 -12 15 -12 8 0 15 -7 15 -15 0 -9 7 -18 15 -21 8 -4 15 -13 15 -21 0
-8 4 -12 8 -9 5 3 9 0 10 -7 0 -7 3 -23 7 -37 7 -29 8 -75 0 -107 -3 -13 -7
-33 -10 -45 -3 -13 -11 -28 -20 -34 -8 -6 -11 -14 -7 -19 4 -4 -2 -3 -13 2
-46 23 -83 31 -95 19 -8 -8 -13 -7 -20 4 -8 12 -10 12 -10 1 0 -10 -3 -11 -14
-2 -10 8 -16 9 -21 1 -3 -5 -24 -10 -45 -10 -21 0 -41 -4 -44 -9 -3 -5 -21
-12 -41 -15 -19 -4 -37 -12 -41 -18 -4 -6 -3 -8 4 -4 6 3 13 2 17 -4 3 -5 15
-10 26 -10 11 0 17 -4 14 -10 -3 -5 1 -10 9 -10 8 0 27 -5 43 -12 15 -6 30
-12 33 -13 3 -1 19 -7 35 -14 41 -17 167 -62 185 -66 8 -2 47 -14 86 -28 55
-19 75 -22 84 -14 10 9 11 9 6 0 -5 -9 0 -13 13 -13 12 0 21 -4 21 -9 0 -8 89
-26 118 -24 7 1 10 -2 7 -5 -4 -4 20 -13 52 -20 32 -7 76 -17 98 -23 22 -6 50
-11 62 -12 12 0 19 -5 17 -9 -3 -4 14 -8 38 -8 24 0 38 -4 32 -8 -6 -4 -15
-22 -19 -40 -3 -18 -10 -30 -15 -27 -5 3 -7 -2 -6 -12 2 -9 11 -18 22 -19 10
-1 33 -6 49 -10 17 -4 38 -7 48 -8 9 0 17 -3 17 -6 0 -3 15 -6 34 -6 19 0 32
4 29 10 -10 16 -9 235 1 229 5 -4 6 -1 1 7 -12 19 -13 240 -1 233 5 -4 6 -1 1
7 -12 19 -13 320 -1 313 5 -4 6 -1 1 7 -12 19 -13 240 -1 233 5 -4 6 -1 1 7
-12 19 -13 240 -1 233 5 -4 6 -1 1 7 -12 19 -13 240 -1 233 5 -4 6 -1 1 7 -12
19 -13 240 -1 233 5 -4 6 -1 1 7 -12 19 -13 320 -1 313 5 -4 6 -1 1 7 -12 19
-13 240 -1 233 5 -4 6 -1 1 7 -10 17 -13 240 -3 234 4 -3 4 5 0 18 -5 13 -8
30 -7 38 1 8 -1 20 -4 25 -3 6 -6 15 -6 20 -1 19 -30 70 -43 79 -8 4 -22 16
-31 25 -52 48 15 46 -1228 48 -640 2 -1163 -1 -1163 -5z"/>
<path d="M2504 3221 c-2 -2 -27 -6 -56 -8 -29 -2 -56 -9 -60 -16 -6 -9 -8 -9
-8 1 0 10 -5 10 -20 2 -10 -6 -23 -9 -27 -9 -4 1 -15 0 -23 -3 -8 -3 -44 -15
-80 -27 -36 -12 -69 -23 -75 -25 -5 -2 -20 -7 -32 -11 -13 -4 -23 -11 -23 -16
0 -5 -7 -6 -15 -3 -8 4 -15 1 -15 -5 0 -6 -7 -11 -15 -11 -8 0 -15 -4 -15 -9
0 -6 -9 -8 -20 -6 -11 2 -18 0 -15 -5 3 -5 -6 -12 -20 -16 -14 -3 -25 -10 -25
-15 0 -5 -7 -9 -15 -9 -8 0 -15 -3 -15 -7 0 -5 -12 -17 -27 -27 -16 -12 -23
-14 -18 -5 4 8 -1 5 -12 -6 -29 -28 -62 -55 -69 -55 -11 0 -184 -185 -184
-197 0 -6 -8 -18 -17 -25 -10 -7 -24 -25 -32 -40 -8 -16 -18 -28 -23 -28 -5 0
-7 -4 -4 -9 3 -5 -1 -14 -9 -21 -8 -6 -19 -27 -25 -46 -7 -19 -16 -32 -21 -29
-5 4 -9 -3 -9 -14 0 -12 -5 -21 -11 -21 -5 0 -7 -5 -4 -10 4 -6 2 -16 -3 -23
-8 -10 -35 -81 -37 -97 0 -3 -4 -11 -8 -17 -5 -7 -5 -13 0 -13 4 0 3 -4 -3 -8
-7 -4 -15 -25 -18 -47 -3 -22 -8 -52 -11 -68 -2 -15 -6 -31 -9 -35 -3 -5 -6
-30 -7 -58 -1 -27 -6 -55 -12 -61 -5 -8 -6 -13 0 -13 10 0 9 -72 -1 -89 -4 -6
-3 -11 2 -11 6 0 7 -14 2 -34 -4 -19 -5 -38 -2 -41 8 -8 9 -55 0 -55 -4 0 -4
-10 0 -22 9 -26 8 -60 -2 -77 -4 -6 -3 -11 2 -11 6 0 7 -14 2 -35 -4 -19 -4
-35 0 -35 4 0 4 -16 0 -35 -4 -19 -5 -35 -1 -35 9 0 6 -74 -3 -89 -4 -6 -3
-11 2 -11 6 0 7 -14 2 -34 -4 -19 -5 -38 -2 -41 8 -8 9 -55 0 -55 -4 0 -4 -10
1 -22 4 -12 5 -37 1 -55 -5 -18 -4 -33 1 -33 5 0 4 -11 -1 -25 -5 -13 -6 -27
-1 -29 7 -5 8 -30 1 -61 -1 -5 -1 -12 0 -15 6 -16 4 -60 -3 -60 -4 0 -5 -5 -1
-12 5 -7 9 -28 10 -48 6 -97 8 -110 15 -110 6 0 13 -30 21 -87 1 -7 5 -13 10
-13 4 0 8 -9 8 -20 0 -11 5 -20 11 -20 5 0 7 -4 4 -10 -3 -5 -3 -10 2 -10 4 0
14 -13 20 -28 15 -32 36 -61 79 -108 17 -18 29 -36 26 -39 -3 -3 2 -5 11 -5 9
0 17 -7 17 -15 0 -8 11 -17 25 -21 14 -3 23 -9 20 -14 -2 -4 7 -12 20 -18 14
-7 25 -16 25 -22 0 -6 5 -8 10 -5 6 3 10 1 10 -6 0 -7 3 -9 6 -6 4 4 19 -2 33
-12 29 -20 57 -32 86 -38 10 -2 22 -7 25 -12 5 -8 78 -26 94 -22 4 1 14 -4 22
-10 11 -9 14 -8 14 2 0 11 2 11 8 2 7 -10 200 -12 928 -9 505 2 933 5 951 7
17 2 29 7 27 11 -3 4 7 8 21 8 15 0 39 6 53 14 31 16 85 38 92 38 3 0 12 6 21
14 9 8 19 11 22 7 4 -3 7 -1 7 5 0 7 7 12 16 12 8 0 13 4 10 8 -3 5 7 15 22
23 36 19 135 119 158 161 11 18 25 37 32 41 7 5 10 12 7 18 -4 5 1 12 9 15 9
3 16 13 16 21 0 8 6 29 14 46 25 57 44 127 32 120 -6 -4 -5 1 3 10 8 10 14 45
15 91 0 41 4 72 8 69 5 -2 4 6 0 19 -5 13 -7 33 -6 44 1 20 -3 21 -40 17 -23
-3 -66 -6 -98 -6 -31 -1 -55 -4 -53 -8 5 -8 -33 -4 -41 4 -10 10 -26 9 -20 -1
2 -4 -4 -8 -14 -8 -10 0 -16 4 -14 8 3 4 1 8 -5 8 -5 0 -13 -5 -16 -10 -4 -6
-12 -7 -18 -3 -6 4 -29 8 -51 9 -21 1 -71 6 -110 9 -39 4 -79 7 -88 7 -10 0
-18 3 -18 7 0 4 -16 7 -36 6 -20 0 -50 4 -67 10 -18 6 -44 10 -60 8 -15 -1
-25 2 -23 6 3 4 -5 8 -17 9 -47 3 -102 13 -107 20 -3 4 -10 8 -16 9 -6 1 -24
5 -40 8 -16 4 -37 7 -46 7 -10 -1 -18 3 -18 7 0 8 -75 26 -92 22 -5 0 -8 3 -8
8 0 8 -66 26 -82 23 -5 -1 -8 2 -8 8 0 6 -3 9 -7 9 -5 -1 -10 0 -13 1 -22 8
-40 6 -45 -8 -3 -8 -2 -18 2 -21 10 -8 13 -41 4 -41 -4 0 -8 -7 -8 -15 0 -8 4
-15 9 -15 5 0 4 -10 -3 -21 -9 -17 -8 -23 2 -30 11 -6 11 -11 2 -20 -7 -7 -9
-19 -3 -34 5 -13 6 -26 2 -29 -3 -4 -8 -19 -10 -34 -2 -15 -8 -29 -14 -33 -5
-3 -9 -8 -8 -10 5 -12 -14 -58 -26 -63 -8 -3 -14 -13 -14 -21 0 -9 -4 -14 -9
-10 -6 3 -13 0 -18 -7 -12 -19 -88 -58 -112 -58 -14 0 -20 -4 -15 -11 5 -8 1
-8 -13 0 -11 6 -23 8 -26 5 -9 -9 -66 -11 -61 -2 3 4 -5 8 -18 8 -77 0 -191
115 -204 205 -2 11 -4 503 -5 1093 0 812 -3 1072 -12 1073 -31 4 -109 4 -113
0z"/>
<path d="M3084 2880 c-16 -4 -42 -6 -56 -6 -15 1 -24 -2 -22 -6 3 -4 -5 -8
-18 -9 -13 0 -32 -3 -43 -5 -11 -3 -27 -6 -35 -6 -8 -1 -17 -4 -20 -8 -3 -4
-25 -11 -50 -14 -55 -8 -84 -14 -87 -16 -2 -2 -8 -3 -15 -4 -6 0 -13 -7 -16
-15 -3 -9 0 -11 8 -6 10 6 11 4 4 -6 -11 -18 -12 -59 -1 -83 6 -12 6 -16 -2
-12 -11 7 -8 -54 4 -75 5 -7 4 -10 -3 -5 -12 7 -10 -53 3 -75 5 -7 4 -10 -3
-5 -12 7 -10 -53 3 -75 5 -7 4 -10 -2 -6 -6 4 -10 -8 -10 -28 0 -22 4 -32 11
-28 8 5 8 3 1 -8 -13 -17 -13 -308 0 -328 5 -9 4 -12 -3 -7 -12 7 -10 -53 3
-75 5 -7 4 -10 -1 -6 -13 7 -12 -226 1 -235 6 -5 5 -8 -2 -8 -7 0 -13 -5 -13
-11 0 -5 6 -7 13 -3 9 6 9 4 1 -7 -5 -8 -9 -20 -8 -26 1 -7 2 -19 3 -26 1 -13
108 -67 131 -67 5 0 10 -5 10 -11 0 -5 4 -8 9 -4 5 3 15 -1 23 -8 7 -8 21 -13
31 -11 9 1 15 -2 11 -7 -3 -5 4 -9 15 -9 11 0 23 -5 26 -10 4 -6 10 -8 14 -5
5 2 16 -2 27 -9 10 -8 24 -12 31 -9 7 3 13 0 13 -7 0 -7 8 -10 20 -7 11 3 18
2 15 -3 -2 -4 10 -11 28 -15 17 -4 34 -9 37 -10 3 -1 19 -7 35 -14 17 -7 38
-13 48 -14 9 -1 17 -5 17 -9 0 -4 9 -8 19 -8 11 0 23 -5 26 -10 4 -6 10 -8 15
-5 4 3 26 -2 49 -10 23 -8 41 -12 41 -8 0 3 6 1 13 -4 6 -5 19 -9 27 -8 8 0
17 -3 20 -7 3 -4 20 -8 38 -10 18 -1 32 -6 32 -10 0 -4 15 -8 33 -8 17 0 45
-7 60 -15 15 -8 25 -9 21 -3 -5 7 -3 8 7 2 8 -5 25 -10 39 -10 14 -1 25 -3 25
-4 0 -3 40 -9 82 -12 24 -2 43 -5 43 -9 0 -3 17 -6 38 -8 20 -1 57 -4 82 -6
121 -11 405 0 405 15 0 1 11 4 25 6 13 3 29 9 34 14 4 4 15 6 22 3 8 -3 14 0
14 7 0 6 4 9 10 5 5 -3 18 3 28 13 10 10 27 22 37 26 11 4 15 10 9 16 -10 10
-59 22 -86 22 -10 -1 -18 3 -18 9 0 5 -3 8 -7 8 -5 -1 -25 -1 -47 0 -33 1 -37
3 -26 16 10 12 16 13 28 3 13 -11 14 -11 8 0 -6 9 -1 11 18 8 14 -3 31 -8 37
-12 7 -4 9 -3 6 3 -3 5 13 10 41 10 26 1 79 4 117 8 39 4 81 9 95 10 14 1 26
4 28 5 3 4 20 7 43 9 11 0 18 5 15 10 -4 5 2 7 12 4 11 -2 26 3 35 11 8 9 20
16 26 16 6 0 11 5 11 11 0 5 5 7 10 4 6 -3 13 1 16 9 3 9 10 14 14 11 5 -3 13
3 19 12 6 10 11 15 11 10 0 -16 120 117 120 134 0 5 6 7 13 3 6 -4 9 -4 5 1
-4 4 -3 16 3 26 11 21 11 20 -44 24 -21 1 -40 5 -44 8 -3 4 -15 2 -26 -4 -14
-8 -18 -8 -13 0 7 10 -69 18 -113 12 -7 -2 -10 2 -6 8 3 6 2 11 -4 11 -5 0
-13 -5 -16 -10 -5 -7 -11 -8 -19 -1 -6 5 -31 11 -54 12 -23 2 -42 5 -42 8 0 4
-10 6 -22 7 -13 0 -36 4 -52 7 -16 3 -50 9 -75 13 -25 4 -50 9 -56 12 -5 4
-17 7 -25 9 -8 1 -31 5 -50 9 -19 4 -39 6 -44 5 -4 -1 -14 3 -20 9 -7 5 -16 7
-19 3 -4 -3 -13 0 -21 6 -8 7 -28 13 -45 13 -17 1 -31 4 -31 7 0 6 -21 11 -62
14 -10 1 -18 4 -18 8 0 4 -16 10 -36 14 -46 8 -87 27 -77 34 4 4 19 18 31 33
l24 26 -22 12 c-18 10 -21 10 -14 -2 6 -10 5 -11 -7 -1 -8 6 -37 17 -64 24
-28 6 -56 17 -64 23 -12 9 -13 8 -6 -4 7 -13 6 -13 -7 -2 -9 7 -27 14 -40 16
-13 1 -34 9 -48 16 -14 8 -29 13 -34 12 -4 -2 -14 2 -22 9 -7 6 -18 8 -23 5
-5 -4 -12 -2 -16 4 -3 5 -17 10 -31 10 -13 0 -24 5 -24 10 0 6 -7 10 -15 10
-9 0 -31 7 -51 15 -19 8 -36 15 -39 15 -3 1 -29 12 -59 25 -30 13 -57 21 -60
18 -3 -4 -6 -1 -6 5 0 7 -9 12 -19 12 -11 0 -27 8 -37 18 -10 9 -20 16 -23 15
-13 -5 -51 10 -51 19 0 6 -7 8 -15 4 -8 -3 -15 -1 -15 4 0 6 -7 10 -15 10 -8
0 -15 4 -15 9 0 5 -15 12 -34 15 -19 4 -39 13 -46 21 -7 8 -21 15 -31 15 -11
0 -19 4 -19 9 0 9 -58 35 -72 33 -3 -1 -5 5 -4 14 2 15 13 22 96 63 25 13 53
27 64 33 14 7 16 7 10 -4 -6 -11 -5 -11 9 0 19 16 64 25 124 26 24 1 43 5 43
10 0 5 8 2 17 -5 11 -10 14 -10 9 -1 -4 6 -3 12 3 12 5 0 12 -6 14 -12 4 -10
6 -10 6 0 1 8 6 10 14 5 12 -8 28 -12 60 -15 9 -1 17 -7 17 -13 0 -5 5 -3 10
5 12 19 13 80 1 80 -5 0 -12 14 -16 31 -4 17 -9 28 -12 25 -3 -2 -15 6 -27 19
-12 13 -34 27 -49 30 -15 4 -27 11 -27 16 0 5 -4 8 -9 7 -4 -2 -27 17 -51 42
-23 25 -39 38 -35 30 4 -10 2 -9 -8 2 -17 21 -65 40 -79 32 -7 -4 -8 -2 -4 4
4 6 -1 11 -11 11 -10 0 -42 2 -71 5 -38 3 -50 1 -45 -7 5 -9 3 -9 -8 -1 -8 6
-27 8 -45 4z m130 -111 c25 4 36 0 30 -11 -4 -6 -3 -8 4 -4 12 7 62 -13 62
-25 0 -14 -37 -29 -68 -29 -33 0 -63 35 -57 66 2 10 4 21 4 24 1 3 5 -1 10 -8
4 -8 11 -13 15 -13z"/>
<path d="M1250 2201 c0 -5 -16 -8 -35 -7 -19 2 -32 0 -30 -4 3 -4 -19 -11 -47
-14 -29 -4 -59 -13 -67 -19 -12 -10 -13 -9 -6 3 7 12 6 13 -6 3 -8 -6 -40 -14
-71 -18 -36 -5 -55 -11 -51 -18 3 -6 1 -7 -6 -3 -18 12 -49 -3 -46 -22 2 -9 4
-25 4 -35 1 -10 5 -16 9 -13 5 3 9 -1 9 -9 0 -8 -2 -13 -4 -11 -3 2 -19 0 -36
-6 -18 -5 -39 -11 -47 -13 -8 -2 -16 -4 -17 -5 -2 -2 -9 -3 -15 -4 -16 -1 -24
-46 -8 -46 6 0 8 -5 5 -10 -6 -10 43 -112 58 -118 4 -2 7 -9 7 -17 0 -7 7 -18
15 -25 9 -7 13 -15 11 -18 -3 -2 6 -13 19 -24 14 -10 24 -23 22 -27 -1 -4 12
-21 28 -38 17 -17 43 -46 59 -66 17 -20 34 -34 38 -31 4 3 8 0 8 -5 0 -12 36
-51 46 -51 4 0 17 -11 30 -26 13 -14 24 -22 24 -19 0 3 12 -6 28 -20 15 -14
35 -28 45 -31 9 -3 15 -10 12 -15 -4 -5 -2 -9 4 -9 6 0 15 10 22 21 9 17 8 20
-3 14 -10 -6 -10 -5 -1 5 7 8 9 21 3 35 -4 12 -4 28 0 35 5 8 4 22 -1 32 -5
10 -6 18 -1 18 11 0 9 93 -3 103 -7 5 -7 9 0 15 13 9 14 95 0 105 -7 4 -7 10
0 15 13 9 14 95 0 105 -7 4 -7 10 0 15 6 4 10 54 10 112 0 58 2 110 5 115 12
26 10 55 -5 55 -8 0 -15 -4 -15 -9z"/>
</g>
</svg>
