<?xml version="1.0" encoding="UTF-8" standalone="no"?>
<svg width="13px" height="10px" viewBox="0 0 13 10" version="1.1" xmlns="http://www.w3.org/2000/svg" xmlns:xlink="http://www.w3.org/1999/xlink">
    <!-- Generator: Sketch 41.2 (35397) - http://www.bohemiancoding.com/sketch -->
    <title>arrow down</title>
    <desc>Created with Sketch.</desc>
    <defs></defs>
    <g id="Корзина" stroke="none" stroke-width="1" fill="none" fill-rule="evenodd">
        <g id="cart-1400" transform="translate(-1133.000000, -574.000000)" fill="#FFFFFF">
            <g id="price" transform="translate(890.000000, 262.000000)">
                <g id="button" transform="translate(30.000000, 295.000000)">
                    <g id="arrow-down" transform="translate(212.818182, 17.000000)">
                        <g id="Layer_1">
                            <path d="M6.02317214,-1.05909676 L6.02317214,8.9300499 L3.01832823,5.53773928 C2.79664081,5.28746584 2.43728577,5.28746584 2.21559835,5.53773928 C1.99391092,5.78801271 1.99391092,6.19386586 2.21559835,6.4441393 L6.18950867,10.9304749 C6.41119609,11.1807483 6.77069305,11.1807483 6.99223855,10.9304749 L10.9661489,6.4441393 C11.0769926,6.31900258 11.1324854,6.15493088 11.1324854,5.99085917 C11.1324854,5.8269477 11.0769926,5.662876 10.9661489,5.53773928 C10.7444614,5.28746584 10.3849645,5.28746584 10.163419,5.53773928 L7.15857508,8.9300499 L7.15857508,-1.05909676 C7.15857508,-1.41287637 6.90438675,-1.70000185 6.59087361,-1.70000185 C6.27736047,-1.70000185 6.02317214,-1.4130366 6.02317214,-1.05909676 Z" id="Shape" transform="translate(6.590909, 4.709089) rotate(-90.000000) translate(-6.590909, -4.709089) "></path>
                        </g>
                    </g>
                </g>
            </g>
        </g>
    </g>
</svg>