<?xml version="1.0" encoding="UTF-8" standalone="no"?>
<svg width="10px" height="13px" viewBox="0 0 10 13" version="1.1" xmlns="http://www.w3.org/2000/svg" xmlns:xlink="http://www.w3.org/1999/xlink">
    <!-- Generator: Sketch 41.2 (35397) - http://www.bohemiancoding.com/sketch -->
    <title>map-marker-point</title>
    <desc>Created with Sketch.</desc>
    <defs></defs>
    <g id="Где-купить" stroke="none" stroke-width="1" fill="none" fill-rule="evenodd">
        <g id="buy-1400" transform="translate(-736.000000, -1272.000000)" fill="#0099C5">
            <g id="contacts" transform="translate(250.000000, 565.000000)">
                <g id="1-copy-7" transform="translate(480.000000, 585.000000)">
                    <g id="map-marker-point" transform="translate(6.000000, 122.000000)">
                        <g id="Capa_1">
                            <path d="M5.00290411,0 C2.2499726,0 0.0178356164,2.17931893 0.0178356164,4.86710905 C0.0178356164,7.55489918 4.17210959,12.9789218 5.00293151,12.9789218 C5.83378082,12.9789218 9.988,7.55489918 9.988,4.86710905 C9.988,2.17931893 7.75586301,0 5.00290411,0 Z M5.00290411,8.11181276 C3.1700274,8.11181276 1.67956164,6.65578601 1.67956164,4.86710905 C1.67956164,3.0784321 3.1700274,1.62235185 5.00290411,1.62235185 C6.83583562,1.62235185 8.32624658,3.0784321 8.32624658,4.86710905 C8.32624658,6.65578601 6.83586301,8.11181276 5.00290411,8.11181276 Z" id="Shape"></path>
                        </g>
                    </g>
                </g>
            </g>
        </g>
    </g>
</svg>