<?xml version="1.0" encoding="UTF-8" standalone="no"?>
<svg width="13px" height="13px" viewBox="0 0 13 13" version="1.1" xmlns="http://www.w3.org/2000/svg" xmlns:xlink="http://www.w3.org/1999/xlink">
    <!-- Generator: Sketch 41.2 (35397) - http://www.bohemiancoding.com/sketch -->
    <title>telephone-handle-silhouette</title>
    <desc>Created with Sketch.</desc>
    <defs></defs>
    <g id="Где-купить" stroke="none" stroke-width="1" fill="none" fill-rule="evenodd">
        <g id="buy-1400" transform="translate(-734.000000, -1052.000000)" fill="#0099C5">
            <g id="contacts" transform="translate(250.000000, 565.000000)">
                <g id="1-copy-5" transform="translate(480.000000, 390.000000)">
                    <g id="telephone-handle-silhouette" transform="translate(4.000000, 97.000000)">
                        <g id="Capa_1">
                            <path d="M12.9718333,10.0725746 C12.9350647,9.96178358 12.7011294,9.79857214 12.2701891,9.58332836 C12.1534478,9.51548259 11.9870995,9.42328607 11.7718557,9.30631841 C11.5564179,9.18935075 11.3608682,9.08156716 11.1855622,8.98306468 C11.0099005,8.88459453 10.8453308,8.78919652 10.6915622,8.697 C10.6669851,8.67853483 10.5900522,8.62475622 10.460796,8.53530846 C10.3314104,8.4461194 10.222301,8.37992289 10.1328856,8.33675124 C10.0436642,8.29383831 9.95589801,8.27223632 9.86971642,8.27223632 C9.74663682,8.27223632 9.5929005,8.36000249 9.40831343,8.53530846 C9.22372637,8.7108408 9.05440299,8.90150746 8.90060199,9.10789055 C8.74676866,9.31417662 8.58362189,9.50484328 8.41145274,9.68027861 C8.23902488,9.85577861 8.09735075,9.94344776 7.98668905,9.94344776 C7.93113184,9.94344776 7.86186318,9.92795771 7.77885075,9.89739801 C7.69587065,9.86664428 7.63274627,9.84028856 7.58941294,9.81904229 C7.54646766,9.79734328 7.47276866,9.75439801 7.36805721,9.6895597 C7.26315174,9.62491542 7.20481343,9.58950498 7.19252488,9.58332836 C6.34930348,9.11542537 5.62612189,8.57990299 5.02285075,7.97689055 C4.41977363,7.37352239 3.88418657,6.65040547 3.41641294,5.80708706 C3.41026866,5.79476617 3.37479353,5.73626617 3.31021393,5.63168408 C3.24553731,5.52700498 3.20243035,5.45324129 3.18089303,5.41003731 C3.15935572,5.36699502 3.13319403,5.30387065 3.10247264,5.22079353 C3.07175124,5.13771642 3.05632587,5.06851244 3.05632587,5.01305224 C3.05632587,4.90232587 3.1440597,4.76068408 3.31949502,4.5883209 C3.49489801,4.41605473 3.68575871,4.25287562 3.89188308,4.09910697 C4.09816915,3.94533831 4.28883582,3.77601493 4.46430348,3.59142786 C4.63970647,3.40674378 4.72740796,3.25294279 4.72740796,3.12986318 C4.72740796,3.04374627 4.70587065,2.95594776 4.66282836,2.86672637 C4.61975373,2.77731095 4.55358955,2.66820149 4.46430348,2.5388806 C4.37498507,2.40962438 4.32114179,2.33275622 4.30264428,2.30801741 C4.21041542,2.15424876 4.11511443,1.98961443 4.01651493,1.8141791 C3.91791542,1.63877612 3.81029353,1.44325871 3.69329353,1.22785323 C3.57639055,1.01254478 3.48412935,0.846293532 3.41634826,0.729358209 C3.2010398,0.298579602 3.03795771,0.064579602 2.92713433,0.027778607 C2.88402736,0.00931343284 2.81935075,0 2.73326617,0 C2.56698259,0 2.35005721,0.030721393 2.08232836,0.092358209 C1.81450249,0.15389801 1.60375373,0.218445274 1.44985572,0.286258706 C1.14209204,0.415450249 0.815895522,0.79089801 0.471169154,1.41247264 C0.157261194,1.9909403 0.000323383085,2.56349005 0.000323383085,3.12970149 C0.000323383085,3.29575871 0.0110920398,3.4573209 0.0326293532,3.6144204 C0.0541666667,3.77135821 0.0926492537,3.94834577 0.148109453,4.14535075 C0.203472637,4.34229104 0.248131841,4.48858955 0.281893035,4.58385821 C0.315686567,4.67919154 0.378778607,4.84997015 0.471136816,5.09625871 C0.563365672,5.34248259 0.618825871,5.49321144 0.637291045,5.54860697 C0.852696517,6.15184577 1.10813682,6.69037562 1.40354726,7.16435821 C1.88959204,7.95218408 2.55288308,8.76636567 3.39303234,9.6065796 C4.23321393,10.4467289 5.04723383,11.1099876 5.83512438,11.5962264 C6.30904229,11.8916045 6.84776617,12.1470124 7.45090796,12.3625796 C7.50633582,12.3809478 7.65706468,12.4362786 7.90319154,12.5288308 C8.14941542,12.6211244 8.32025871,12.6842164 8.41559204,12.7180746 C8.51095771,12.7519652 8.65728856,12.7966567 8.85406716,12.8521169 C9.05126617,12.9075771 9.22809204,12.9460597 9.38502985,12.9677587 C9.54206468,12.989005 9.7036592,12.9999677 9.86974876,12.9999677 C10.4359279,12.9999677 11.00851,12.8429328 11.5870746,12.5290572 C12.2085846,12.1844602 12.5839353,11.858199 12.7131915,11.550209 C12.7811667,11.3964726 12.8455522,11.1856592 12.907092,10.9178333 C12.9688259,10.6501368 12.9994826,10.4332438 12.9994826,10.2669925 C12.9996766,10.1805522 12.9903955,10.1160373 12.9718333,10.0725746 Z" id="Shape"></path>
                        </g>
                    </g>
                </g>
            </g>
        </g>
    </g>
</svg>