<?xml version="1.0" encoding="UTF-8" standalone="no"?>
<svg width="13px" height="13px" viewBox="0 0 13 13" version="1.1" xmlns="http://www.w3.org/2000/svg" xmlns:xlink="http://www.w3.org/1999/xlink">
    <!-- Generator: Sketch 41.2 (35397) - http://www.bohemiancoding.com/sketch -->
    <title>worlwide</title>
    <desc>Created with Sketch.</desc>
    <defs></defs>
    <g id="Где-купить" stroke="none" stroke-width="1" fill="none" fill-rule="evenodd">
        <g id="buy-1400" transform="translate(-735.000000, -1298.000000)" fill="#0099C5">
            <g id="contacts" transform="translate(250.000000, 565.000000)">
                <g id="1-copy-7" transform="translate(480.000000, 585.000000)">
                    <g id="worlwide" transform="translate(5.000000, 148.000000)">
                        <g id="Layer_1">
                            <path d="M8.26599805,1.54407371 C7.77422807,0.729113546 7.25491228,0.228043825 6.87912865,7.7689243e-05 L6.87912865,2.57653785 L8.78764522,2.57653785 C8.6351423,2.21318526 8.46109942,1.86744223 8.26599805,1.54407371 Z" id="Shape"></path>
                            <path d="M12.2270195,3.37728088 L9.8978655,3.37728088 C10.1438012,4.238 10.2878148,5.15822908 10.319694,6.09966733 L12.9747096,6.09966733 C12.9190097,5.13639841 12.6632164,4.212 12.2270195,3.37728088 Z" id="Shape"></path>
                            <path d="M9.07954971,3.37728088 L6.87910331,3.37728088 L6.87910331,6.09966733 L9.53556335,6.09966733 C9.50120078,5.15115936 9.34542885,4.22836653 9.07954971,3.37728088 Z" id="Shape"></path>
                            <path d="M0.747664717,3.37728088 C0.311493177,4.212 0.0556744639,5.13639841 0,6.09966733 L2.65496491,6.09966733 C2.68681871,5.15825498 2.8308577,4.2380259 3.07679337,3.37728088 L0.747664717,3.37728088 Z" id="Shape"></path>
                            <path d="M2.65496491,6.90038446 L0,6.90038446 C0.0556744639,7.86365339 0.311493177,8.78807769 0.747664717,9.62277092 L3.07679337,9.62277092 C2.83088304,8.762 2.6868694,7.84179681 2.65496491,6.90038446 Z" id="Shape"></path>
                            <path d="M4.04178363,11.8761733 C3.77073489,11.4269741 3.53668421,10.9393446 3.34158285,10.4234622 L1.24181676,10.4234622 C1.43722222,10.6950896 1.65393957,10.9536135 1.89158869,11.1964701 C2.71117154,12.034012 3.71118324,12.6198406 4.80194152,12.9170797 C4.53773489,12.6214462 4.27986355,12.2707311 4.04178363,11.8761733 Z" id="Shape"></path>
                            <path d="M11.0830448,1.80358167 C10.2634873,0.966039841 9.26345029,0.380211155 8.17269201,0.0829721116 C8.43692398,0.378579681 8.69479532,0.729268924 8.93287524,1.12382669 C9.20392398,1.57305179 9.43797466,2.06065538 9.63307602,2.57656375 L11.7328421,2.57656375 C11.5374113,2.30496215 11.320694,2.04643825 11.0830448,1.80358167 Z" id="Shape"></path>
                            <path d="M4.70868616,1.5440996 C4.5135848,1.86744223 4.33954191,2.21318526 4.18706433,2.57658964 L6.0955809,2.57658964 L6.0955809,7.7689243e-05 C5.71977193,0.228043825 5.2004308,0.729113546 4.70868616,1.5440996 Z" id="Shape"></path>
                            <path d="M1.89161404,1.80358167 C1.65396491,2.04643825 1.43724756,2.30496215 1.24184211,2.57658964 L3.34160819,2.57658964 C3.53670955,2.06068127 3.77076023,1.57307769 4.04180897,1.12385259 C4.27986355,0.729294821 4.53776023,0.378579681 4.8019922,0.082998008 C3.71120858,0.380211155 2.71117154,0.966091633 1.89161404,1.80358167 Z" id="Shape"></path>
                            <path d="M6.87910331,6.90038446 L6.87910331,9.62277092 L9.07954971,9.62277092 C9.34542885,8.77171116 9.50122612,7.84889243 9.53556335,6.90038446 L6.87910331,6.90038446 Z" id="Shape"></path>
                            <path d="M10.319694,6.90038446 C10.2878402,7.84179681 10.1438012,8.7620259 9.8978655,9.62277092 L12.2269942,9.62277092 C12.663191,8.7880259 12.9189844,7.86365339 12.9746589,6.90038446 L10.319694,6.90038446 Z" id="Shape"></path>
                            <path d="M9.63307602,10.423488 L9.63307602,10.423488 C9.43797466,10.9393705 9.20392398,11.4269741 8.93287524,11.8761992 C8.69482066,12.270757 8.43692398,12.6214721 8.17269201,12.9170797 C9.26345029,12.6198665 10.263462,12.0339861 11.0830448,11.1964701 C11.320694,10.9536135 11.5374113,10.6950896 11.7328421,10.4234622 L9.63307602,10.4234622 L9.63307602,10.423488 Z" id="Shape"></path>
                            <path d="M4.18706433,10.4234622 C4.33954191,10.7868406 4.5135848,11.1325837 4.70868616,11.4559522 C5.2004308,12.2709124 5.71974659,12.7719821 6.09555556,12.9999482 L6.09555556,10.423488 L4.18706433,10.423488 L4.18706433,10.4234622 Z" id="Shape"></path>
                            <path d="M6.87907797,10.4234363 L6.87907797,12.9999223 C7.25488694,12.7719821 7.77420273,12.2709124 8.26594737,11.4559263 C8.46104873,11.1325837 8.63509162,10.7868406 8.7875692,10.4234363 L6.87907797,10.4234363 Z" id="Shape"></path>
                            <path d="M3.43909552,6.90038446 C3.47345809,7.84889243 3.62923002,8.77171116 3.8951345,9.62277092 L6.0955809,9.62277092 L6.0955809,6.90038446 L3.43909552,6.90038446 Z" id="Shape"></path>
                            <path d="M3.8951345,3.37728088 C3.62925536,4.22834064 3.47345809,5.15115936 3.43909552,6.09966733 L6.0955809,6.09966733 L6.0955809,3.37728088 L3.8951345,3.37728088 Z" id="Shape"></path>
                        </g>
                    </g>
                </g>
            </g>
        </g>
    </g>
</svg>