<?xml version="1.0" encoding="UTF-8" standalone="no"?>
<svg width="15px" height="18px" viewBox="0 0 15 18" version="1.1" xmlns="http://www.w3.org/2000/svg" xmlns:xlink="http://www.w3.org/1999/xlink">
    <!-- Generator: Sketch 41.2 (35397) - http://www.bohemiancoding.com/sketch -->
    <title>calculator</title>
    <desc>Created with Sketch.</desc>
    <defs></defs>
    <g id="Кейсы-под-заказ" stroke="none" stroke-width="1" fill="none" fill-rule="evenodd">
        <g id="zakaz-1400" transform="translate(-638.000000, -458.000000)" fill="#FFFFFF">
            <g id="banner" transform="translate(0.000000, 244.000000)">
                <g id="button" transform="translate(625.000000, 201.000000)">
                    <g id="calculator" transform="translate(13.000000, 13.000000)">
                        <g id="Capa_1">
                            <g id="Group">
                                <path d="M0.15625,0 L0.15625,6.20689655 L0.15625,11.7931034 L0.15625,12.4137931 L0.15625,18 L4.84375,18 L5.46875,18 L9.53125,18 L10.15625,18 L14.84375,18 L14.84375,6.20689655 L14.84375,0 L0.15625,0 Z M0.78125,6.82758621 L4.84375,6.82758621 L4.84375,11.7931034 L0.78125,11.7931034 L0.78125,6.82758621 Z M9.53125,11.7931034 L5.46875,11.7931034 L5.46875,6.82758621 L9.53125,6.82758621 L9.53125,11.7931034 Z M0.78125,17.3793103 L0.78125,12.4137931 L4.84375,12.4137931 L4.84375,17.3793103 L0.78125,17.3793103 Z M5.46875,17.3793103 L5.46875,12.4137931 L9.53125,12.4137931 L9.53125,17.3793103 L5.46875,17.3793103 Z M14.21875,17.3793103 L10.15625,17.3793103 L10.15625,12.4137931 L10.15625,11.7931034 L10.15625,6.82758621 L14.21875,6.82758621 L14.21875,17.3793103 Z M10.15625,6.20689655 L9.53125,6.20689655 L5.46875,6.20689655 L4.84375,6.20689655 L0.78125,6.20689655 L0.78125,0.620689655 L14.21875,0.620689655 L14.21875,6.20689655 L10.15625,6.20689655 Z" id="Shape"></path>
                                <path d="M1.71875,1.55172414 L1.71875,5.27586207 L13.28125,5.27586207 L13.28125,1.55172414 L1.71875,1.55172414 Z M12.65625,4.65517241 L2.34375,4.65517241 L2.34375,2.17241379 L12.65625,2.17241379 L12.65625,4.65517241 Z" id="Shape"></path>
                            </g>
                        </g>
                    </g>
                </g>
            </g>
        </g>
    </g>
</svg>