<?xml version="1.0" encoding="UTF-8" standalone="no"?>
<svg width="15px" height="17px" viewBox="0 0 15 17" version="1.1" xmlns="http://www.w3.org/2000/svg" xmlns:xlink="http://www.w3.org/1999/xlink">
    <!-- Generator: Sketch 41.2 (35397) - http://www.bohemiancoding.com/sketch -->
    <title>pamphlet</title>
    <desc>Created with Sketch.</desc>
    <defs></defs>
    <g id="Symbols" stroke="none" stroke-width="1" fill="none" fill-rule="evenodd">
        <g id="header/mobile" transform="translate(-202.000000, -57.000000)" fill="#708084">
            <g id="catalog">
                <g transform="translate(0.000000, 46.000000)">
                    <g id="pamphlet" transform="translate(202.000000, 11.000000)">
                        <g id="Layer_1">
                            <path d="M7.2109375,0 L0.0126271528,1.04456038 L0.0126271528,16.4088889 L7.2109375,15.3643285 L14.4092478,16.4088889 L14.4092478,1.04456038 L7.2109375,0 Z M6.7239909,14.4509431 L0.986488299,15.2834699 L0.986488299,1.88731066 L6.7239909,1.05478389 L6.7239909,14.4509431 Z M13.4353867,15.2834699 L7.6978841,14.4509431 L7.6978841,1.05475184 L13.4353867,1.88727861 L13.4353867,15.2834699 L13.4353867,15.2834699 Z" id="Shape"></path>
                            <path d="M8.79317743,7.06979542 L8.79317743,13.6231595 L12.3400613,14.1378282 L12.3400613,7.58446406 L8.79317743,7.06979542 Z M11.3661681,13.0124091 L9.76703858,12.7804092 L9.76703858,8.19521444 L11.3661681,8.42721434 L11.3661681,13.0124091 Z" id="Shape"></path>
                            <path d="M2.08181368,7.58443201 L2.08181368,14.1378602 L5.62869757,13.6231916 L5.62869757,7.06976337 L2.08181368,7.58443201 Z M4.65483642,12.7804413 L3.05570687,13.0124412 L3.05570687,8.42724639 L4.65483642,8.19524649 L4.65483642,12.7804413 Z" id="Shape"></path>
                            <rect id="Rectangle-path" transform="translate(10.567828, 2.955331) rotate(-81.743489) translate(-10.567828, -2.955331) " x="10.0678254" y="1.1502085" width="0.973826632" height="3.61024423"></rect>
                            <rect id="Rectangle-path" transform="translate(10.567805, 4.559919) rotate(-81.743489) translate(-10.567805, -4.559919) " x="10.067803" y="2.7547966" width="0.973826632" height="3.61024423"></rect>
                            <rect id="Rectangle-path" transform="translate(10.568762, 6.165520) rotate(-81.743489) translate(-10.568762, -6.165520) " x="10.0687602" y="4.36039834" width="0.973826632" height="3.61024423"></rect>
                            <rect id="Rectangle-path" transform="translate(3.857094, 2.980810) rotate(-8.256511) translate(-3.857094, -2.980810) " x="2.05197224" y="2.48081002" width="3.61024423" height="0.973826632"></rect>
                            <rect id="Rectangle-path" transform="translate(3.856994, 4.586010) rotate(-8.256511) translate(-3.856994, -4.586010) " x="2.05187187" y="4.08601008" width="3.61024423" height="0.973826632"></rect>
                            <rect id="Rectangle-path" transform="translate(3.856787, 6.190951) rotate(-8.256511) translate(-3.856787, -6.190951) " x="2.05166516" y="5.69095099" width="3.61024423" height="0.973826632"></rect>
                        </g>
                    </g>
                </g>
            </g>
        </g>
    </g>
</svg>