<?xml version="1.0" encoding="UTF-8" standalone="no"?>
<svg width="20px" height="20px" viewBox="0 0 20 20" version="1.1" xmlns="http://www.w3.org/2000/svg" xmlns:xlink="http://www.w3.org/1999/xlink">
    <!-- Generator: Sketch 41.2 (35397) - http://www.bohemiancoding.com/sketch -->
    <title>speech-bubble</title>
    <desc>Created with Sketch.</desc>
    <defs></defs>
    <g id="Symbols" stroke="none" stroke-width="1" fill="none" fill-rule="evenodd">
        <g id="footer/buttons/call-copy" transform="translate(-240.000000, -14.000000)" fill="#FFFFFF">
            <g id="speech-bubble">
                <g transform="translate(240.000000, 14.000000)">
                    <g id="Capa_1">
                        <g id="Group">
                            <path d="M17.6666667,14.6666667 L16,14.6666667 L16,13 C16,12.8156667 15.8506667,12.6666667 15.6666667,12.6666667 C15.4826667,12.6666667 15.3333333,12.8156667 15.3333333,13 L15.3333333,14.6666667 L13.6666667,14.6666667 C13.4826667,14.6666667 13.3333333,14.8156667 13.3333333,15 C13.3333333,15.1843333 13.4826667,15.3333333 13.6666667,15.3333333 L15.3333333,15.3333333 L15.3333333,17 C15.3333333,17.1843333 15.4826667,17.3333333 15.6666667,17.3333333 C15.8506667,17.3333333 16,17.1843333 16,17 L16,15.3333333 L17.6666667,15.3333333 C17.8506667,15.3333333 18,15.1843333 18,15 C18,14.8156667 17.8506667,14.6666667 17.6666667,14.6666667 Z" id="Shape"></path>
                            <path d="M20,5.995 C20,2.68933333 17.3083333,0 14,0 L6,0 C2.69166667,0 0,2.68933333 0,5.995 L0,10.6616667 C0,13.8583333 2.51266667,16.479 5.66666667,16.6526667 L5.66666667,19.434 C5.66666667,19.6633333 5.80366667,19.8686667 6.01566667,19.9563333 C6.086,19.9856667 6.15966667,20 6.233,20 C6.38,20 6.524,19.9423333 6.63266667,19.834 L7.258,19.2083333 C8.48933333,17.977 10.0373333,17.162 11.7443333,16.8303333 C12.436,18.306 13.9316667,19.3333333 15.6666667,19.3333333 C18.056,19.3333333 20,17.3893333 20,15 C20,14.2813333 19.8213333,13.6043333 19.5106667,13.0073333 C19.831,12.2576667 20,11.4706667 20,10.6616667 L20,5.995 Z M15.6666667,18.6666667 C14.157,18.6666667 12.8583333,17.7493333 12.297,16.443 L12.264,16.358 C12.257,16.3406667 12.2513333,16.323 12.2446667,16.3053333 C12.2076667,16.2086667 12.1743333,16.1113333 12.1456667,16.0133333 C12.141,15.997 12.1373333,15.98 12.1326667,15.9633333 C12.1073333,15.872 12.085,15.78 12.067,15.6876667 C12.059,15.646 12.054,15.6033333 12.0476667,15.5613333 C12.0366667,15.4916667 12.0246667,15.422 12.018,15.3516667 C12.0066667,15.2356667 12,15.1186667 12,15 C12,12.9783333 13.645,11.3333333 15.6666667,11.3333333 C15.8173333,11.3333333 15.9663333,11.3453333 16.114,11.3633333 C16.1506667,11.368 16.1863333,11.3743333 16.2226667,11.38 C16.3416667,11.3983333 16.4593333,11.422 16.575,11.4516667 C16.6033333,11.459 16.632,11.4656667 16.66,11.4736667 C16.9506667,11.5563333 17.2296667,11.6733333 17.4903333,11.8233333 C17.507,11.833 17.5233333,11.8436667 17.5396667,11.8533333 C17.6536667,11.9213333 17.7636667,11.9956667 17.8696667,12.0756667 C17.8883333,12.0896667 17.9073333,12.1033333 17.9256667,12.1176667 C18.1603333,12.3016667 18.3726667,12.515 18.5583333,12.754 C18.5763333,12.777 18.5933333,12.8006667 18.6106667,12.824 C18.691,12.9326667 18.7666667,13.046 18.8353333,13.1643333 C18.848,13.186 18.8623333,13.2066667 18.8746667,13.229 L18.8953333,13.265 C19.1743333,13.782 19.3333333,14.3726667 19.3333333,15 C19.3333333,17.0216667 17.6883333,18.6666667 15.6666667,18.6666667 Z M18.3856667,11.6306667 C18.3733333,11.6206667 18.36,11.612 18.3476667,11.6023333 C18.2386667,11.516 18.126,11.4353333 18.009,11.3596667 C17.983,11.343 17.9563333,11.3276667 17.93,11.3116667 C17.8236667,11.2463333 17.715,11.185 17.603,11.129 C17.5716667,11.1133333 17.5403333,11.0983333 17.5086667,11.0833333 C17.399,11.0316667 17.2866667,10.9846667 17.1723333,10.942 C17.138,10.929 17.1043333,10.9163333 17.0696667,10.9043333 C16.956,10.865 16.84,10.8316667 16.7223333,10.802 C16.6856667,10.7926667 16.6496667,10.782 16.6126667,10.7736667 C16.494,10.747 16.373,10.7273333 16.251,10.7106667 C16.2146667,10.7056667 16.179,10.698 16.1423333,10.694 C15.986,10.677 15.8273333,10.6666667 15.6666667,10.6666667 C13.2773333,10.6666667 11.3333333,12.6106667 11.3333333,15 C11.3333333,15.1286667 11.3413333,15.257 11.3526667,15.3846667 C11.3563333,15.427 11.3613333,15.469 11.366,15.5113333 C11.3763333,15.597 11.3896667,15.6823333 11.405,15.7673333 C11.4186667,15.8433333 11.4343333,15.918 11.452,15.9923333 C11.468,16.0593333 11.4833333,16.1263333 11.5023333,16.1926667 C9.709,16.5633333 8.085,17.4376667 6.786,18.737 L6.33333333,19.1903333 L6.33333333,16.328 L6.33333333,15.995 L6.33333333,14.6613333 C6.33333333,14.477 6.184,14.328 6,14.328 C5.816,14.328 5.66666667,14.477 5.66666667,14.6613333 L5.66666667,15.978 C2.88133333,15.8046667 0.666666667,13.49 0.666666667,10.6616667 L0.666666667,5.995 C0.666666667,3.057 3.05933333,0.666666667 6,0.666666667 L14,0.666666667 C16.9406667,0.666666667 19.3333333,3.057 19.3333333,5.995 L19.3333333,10.6616667 C19.3333333,11.227 19.2436667,11.7816667 19.0666667,12.3176667 C19.0606667,12.31 19.0533333,12.3033333 19.047,12.2956667 C18.8506667,12.0506667 18.6293333,11.8276667 18.3856667,11.6306667 Z" id="Shape"></path>
                        </g>
                    </g>
                </g>
            </g>
        </g>
    </g>
</svg>