<?xml version="1.0" encoding="UTF-8" standalone="no"?>
<svg width="50px" height="45px" viewBox="0 0 50 45" version="1.1" xmlns="http://www.w3.org/2000/svg" xmlns:xlink="http://www.w3.org/1999/xlink">
    <!-- Generator: Sketch 41.2 (35397) - http://www.bohemiancoding.com/sketch -->
    <title>clock</title>
    <desc>Created with Sketch.</desc>
    <defs></defs>
    <g id="Типовая-страница" stroke="none" stroke-width="1" fill="none" fill-rule="evenodd">
        <g id="typepage-1400" transform="translate(-815.000000, -3033.000000)" fill="#0099C5">
            <g id="+" transform="translate(250.000000, 3007.000000)">
                <g transform="translate(480.000000, 0.000000)" id="ico1">
                    <g>
                        <g id="clock" transform="translate(85.000000, 26.000000)">
                            <g id="Capa_1">
                                <g id="Group">
                                    <g id="Shape">
                                        <path d="M5.79656566,22.9276636 C5.75272727,22.9276636 5.70747475,22.9234909 5.66363636,22.9151455 C5.47979798,22.8803727 5.31717172,22.7746636 5.21111111,22.6230545 L0.121616162,15.2512364 C-0.0961616162,14.9327182 -0.0141414141,14.5001455 0.30969697,14.2845545 C0.632121212,14.0717455 1.07333333,14.1524182 1.29252525,14.4695455 L5.98323232,21.2669182 L12.8927273,16.6504909 C13.2151515,16.4376818 13.6535354,16.5183545 13.8755556,16.8354818 C14.0933333,17.154 14.0113131,17.5865727 13.6874747,17.8021636 L6.19252525,22.8094364 C6.07515152,22.8873273 5.93656566,22.9276636 5.79656566,22.9276636 Z"></path>
                                        <path d="M27.4767677,44.2503 C20.0270707,44.2503 13.0878788,40.6214182 8.91333333,34.5431455 C8.69414141,34.2246273 8.7789899,33.7920545 9.10282828,33.5778545 C9.42525253,33.3622636 9.86505051,33.4457182 10.0842424,33.7642364 C13.9957576,39.4600091 20.4965657,42.8593909 27.4767677,42.8593909 C39.0416162,42.8593909 48.449899,33.6056727 48.449899,22.2308182 C48.449899,10.8559636 39.0416162,1.60224545 27.4767677,1.60224545 C15.9119192,1.60224545 6.50363636,10.8573545 6.50363636,22.2308182 C6.50363636,22.6147091 6.18686869,22.9262727 5.79656566,22.9262727 C5.40626263,22.9262727 5.08949495,22.6147091 5.08949495,22.2308182 C5.08949495,10.0895727 15.1327273,0.211336364 27.4767677,0.211336364 C39.8208081,0.211336364 49.8640404,10.0895727 49.8640404,22.2308182 C49.8640404,34.3720636 39.8208081,44.2503 27.4767677,44.2503 Z"></path>
                                    </g>
                                    <path d="M34.2321212,30.9518182 C34.0284848,30.9518182 33.8276768,30.8655818 33.6876768,30.7000636 L26.9323232,22.6745182 C26.8276768,22.5493364 26.769697,22.3921636 26.769697,22.2308182 L26.769697,8.89617273 C26.769697,8.51228182 27.0864646,8.20071818 27.4767677,8.20071818 C27.8670707,8.20071818 28.1838384,8.51228182 28.1838384,8.89617273 L28.1838384,21.9818455 L34.7765657,29.8126636 C35.0268687,30.1089273 34.9830303,30.5470636 34.6846465,30.7918636 C34.5517172,30.8989636 34.3905051,30.9518182 34.2321212,30.9518182 Z" id="Shape"></path>
                                </g>
                            </g>
                        </g>
                    </g>
                </g>
            </g>
        </g>
    </g>
</svg>