<svg width="25" height="24" viewBox="0 0 25 24" fill="none" xmlns="http://www.w3.org/2000/svg">
<path fill-rule="evenodd" clip-rule="evenodd" d="M3.28779 12.4348C3.2667 12.4348 3.24494 12.4328 3.22385 12.4288C3.13544 12.4121 3.05723 12.3614 3.00622 12.2886L0.558474 8.74847C0.453736 8.59551 0.493183 8.38778 0.64893 8.28425C0.803997 8.18206 1.01619 8.2208 1.12161 8.37309L3.37756 11.6373L6.70061 9.42042C6.85568 9.31823 7.06652 9.35697 7.1733 9.50926C7.27803 9.66222 7.23859 9.86995 7.08284 9.97348L3.47822 12.3781C3.42177 12.4155 3.35512 12.4348 3.28779 12.4348Z" fill="#E54B2D"/>
<path fill-rule="evenodd" clip-rule="evenodd" d="M13.7147 22.6744C10.1318 22.6744 6.7945 20.9317 4.78679 18.0128C4.68137 17.8598 4.72218 17.6521 4.87793 17.5493C5.03299 17.4457 5.24451 17.4858 5.34993 17.6388C7.23113 20.374 10.3576 22.0064 13.7147 22.0064C19.2767 22.0064 23.8015 17.5626 23.8015 12.1002C23.8015 6.63776 19.2767 2.19394 13.7147 2.19394C8.15269 2.19394 3.62787 6.63843 3.62787 12.1002C3.62787 12.2845 3.47552 12.4342 3.28781 12.4342C3.1001 12.4342 2.94775 12.2845 2.94775 12.1002C2.94775 6.26972 7.77795 1.526 13.7147 1.526C19.6514 1.526 24.4816 6.26972 24.4816 12.1002C24.4816 17.9307 19.6514 22.6744 13.7147 22.6744Z" fill="#E54B2D"/>
<path fill-rule="evenodd" clip-rule="evenodd" d="M16.9635 16.2882C16.8656 16.2882 16.769 16.2468 16.7016 16.1673L13.4527 12.3133C13.4024 12.2532 13.3745 12.1777 13.3745 12.1002V5.69664C13.3745 5.51229 13.5269 5.36267 13.7146 5.36267C13.9023 5.36267 14.0546 5.51229 14.0546 5.69664V11.9806L17.2253 15.7412C17.3457 15.8834 17.3246 16.0938 17.1811 16.2114C17.1172 16.2628 17.0397 16.2882 16.9635 16.2882Z" fill="#E54B2D"/>
</svg>
