<svg width="20" height="33" viewBox="0 0 20 33" fill="none" xmlns="http://www.w3.org/2000/svg">
<g clip-path="url(#clip0_42_1706)">
<path fill-rule="evenodd" clip-rule="evenodd" d="M19.914 31.8062L19.8359 31.6165C19.7028 31.2932 19.331 31.1379 19.005 31.27C18.6791 31.4021 18.5228 31.7712 18.6558 32.0946L18.7339 32.2843C18.8348 32.5294 19.0729 32.6779 19.3242 32.6779C19.4043 32.6779 19.4859 32.6628 19.5647 32.6309C19.8906 32.4987 20.047 32.1295 19.914 31.8062Z" fill="#E54B2D"/>
<path fill-rule="evenodd" clip-rule="evenodd" d="M19.1335 29.909L17.0141 24.756H18.1743C18.5263 24.756 18.8116 24.4728 18.8116 24.1236C18.8116 23.7743 18.5263 23.4912 18.1743 23.4912H16.4939L12.3348 13.3791C12.7506 12.868 13.0003 12.2186 13.0003 11.5121C13.0003 10.0874 11.9865 8.8939 10.6375 8.60302V7.64488H10.9663C11.3182 7.64488 11.6035 7.36169 11.6035 7.01246V1.56235C11.6035 1.21312 11.318 0.929932 10.9661 0.929932H9.03401C8.6821 0.929932 8.39674 1.21312 8.39674 1.56235V7.01252C8.39674 7.36175 8.6821 7.64494 9.03401 7.64494H9.3628V8.60309C8.01371 8.89397 6.99997 10.0874 6.99997 11.5121C6.99997 12.2186 7.24966 12.868 7.66549 13.3791L3.50643 23.4911H1.82599C1.47408 23.4911 1.18872 23.7743 1.18872 24.1235C1.18872 24.4727 1.47408 24.7559 1.82599 24.7559H2.98625L0.0865007 31.8062C-0.0465275 32.1296 0.109807 32.4988 0.435661 32.6308C0.514516 32.6627 0.596057 32.6779 0.676224 32.6779C0.927534 32.6779 1.16572 32.5294 1.26657 32.2842L4.36303 24.7559H8.5317V26.4049C8.5317 26.7541 8.81707 27.0373 9.16898 27.0373H10.8315C11.1835 27.0373 11.4688 26.7541 11.4688 26.4049V24.7559H15.6376L17.9536 30.3869C18.0544 30.632 18.2926 30.7805 18.5439 30.7805C18.6241 30.7805 18.7057 30.7654 18.7845 30.7335C19.1102 30.6015 19.2665 30.2323 19.1335 29.909ZM10.3289 2.19477V6.38011H9.67135V2.19477H10.3289ZM10.0001 9.79965C10.9516 9.79965 11.7257 10.5678 11.7257 11.5121C11.7257 12.4563 10.9516 13.2245 10.0001 13.2245C9.04863 13.2245 8.27458 12.4563 8.27458 11.5121C8.27458 10.5678 9.04863 9.79965 10.0001 9.79965ZM10.1941 25.7726H9.80613V22.3478H10.1941V25.7726ZM11.4686 23.4911V21.7153C11.4686 21.3661 11.1833 21.0829 10.8314 21.0829H9.16879C8.81688 21.0829 8.53152 21.3661 8.53152 21.7153V23.4911H4.88308L8.70547 14.1976C9.09762 14.3845 9.5367 14.4894 10.0001 14.4894C10.4635 14.4894 10.9025 14.3844 11.2947 14.1976L15.1171 23.4911H11.4686Z" fill="#E54B2D"/>
</g>
<defs>
<clipPath id="clip0_42_1706">
<rect width="19.9949" height="31.81" fill="white" transform="translate(0.00268555 0.929932)"/>
</clipPath>
</defs>
</svg>
