<?xml version="1.0" encoding="UTF-8" standalone="no"?>
<svg width="22px" height="35px" viewBox="0 0 22 35" version="1.1" xmlns="http://www.w3.org/2000/svg" xmlns:xlink="http://www.w3.org/1999/xlink">
    <!-- Generator: Sketch 41.2 (35397) - http://www.bohemiancoding.com/sketch -->
    <title>compass</title>
    <desc>Created with Sketch.</desc>
    <defs></defs>
    <g id="Кейсы-под-заказ" stroke="none" stroke-width="1" fill="none" fill-rule="evenodd">
        <g id="zakaz-1400" transform="translate(-813.000000, -1051.000000)" fill="#0099C5">
            <g id="sostav" transform="translate(209.000000, 970.000000)">
                <g id="+" transform="translate(304.000000, 0.000000)">
                    <g id="1" transform="translate(281.000000, 68.000000)">
                        <g id="ico1">
                            <g id="compass" transform="translate(19.000000, 13.000000)">
                                <g id="Layer_1">
                                    <path d="M21.907875,33.9727875 L21.8220062,33.7640156 C21.6755687,33.4082846 21.2664375,33.2374464 20.9077687,33.382768 C20.5492375,33.5280897 20.377225,33.9342398 20.5235937,34.290039 L20.6094625,34.4988109 C20.7204937,34.7685088 20.9824312,34.9319103 21.2589437,34.9319103 C21.34715,34.9319103 21.4369375,34.9152632 21.5236312,34.8801267 C21.8822312,34.7347368 22.0542437,34.3285185 21.907875,33.9727875 Z" id="Shape"></path>
                                    <path d="M21.049325,31.8851365 L18.7173938,26.2154094 L19.9939438,26.2154094 C20.3811438,26.2154094 20.695125,25.9038207 20.695125,25.5195712 C20.695125,25.1353216 20.3811438,24.8237329 19.9939438,24.8237329 L18.1449813,24.8237329 L13.568775,13.6975536 C14.0263063,13.1352339 14.3010313,12.4207018 14.3010313,11.6433333 C14.3010313,10.0758382 13.1855625,8.76262183 11.70125,8.4425731 L11.70125,7.38834308 L12.0630125,7.38834308 C12.4502125,7.38834308 12.7641938,7.07675439 12.7641938,6.69250487 L12.7641938,0.695838207 C12.764125,0.311588694 12.450075,0 12.062875,0 L9.9369875,0 C9.5497875,0 9.23580625,0.311588694 9.23580625,0.695838207 L9.23580625,6.6925731 C9.23580625,7.07682261 9.5497875,7.38841131 9.9369875,7.38841131 L10.29875,7.38841131 L10.29875,8.44264133 C8.81436875,8.76269006 7.69896875,10.0758382 7.69896875,11.6434016 C7.69896875,12.4207018 7.97369375,13.1352339 8.431225,13.6976218 L3.8550875,24.8236647 L2.006125,24.8236647 C1.618925,24.8236647 1.30494375,25.1352534 1.30494375,25.5195029 C1.30494375,25.9037524 1.618925,26.2153411 2.006125,26.2153411 L3.28274375,26.2153411 L0.09219375,33.9726511 C-0.054175,34.3284503 0.1178375,34.7346686 0.47636875,34.879922 C0.56313125,34.9150585 0.65285,34.9317057 0.74105625,34.9317057 C1.01756875,34.9317057 1.27964375,34.7683041 1.39060625,34.4986062 L4.79758125,26.2152729 L9.38430625,26.2152729 L9.38430625,28.0296784 C9.38430625,28.4139279 9.6982875,28.7255166 10.0854875,28.7255166 L11.9147875,28.7255166 C12.3019875,28.7255166 12.6159688,28.4139279 12.6159688,28.0296784 L12.6159688,26.2153411 L17.2027625,26.2153411 L19.75105,32.4110234 C19.8620125,32.6807212 20.1240188,32.8441228 20.4006,32.8441228 C20.4888063,32.8441228 20.5785938,32.8274756 20.6652875,32.7923392 C21.0236125,32.647154 21.195625,32.2409357 21.049325,31.8851365 Z M11.3616938,1.39167641 L11.3616938,5.99673489 L10.6382375,5.99673489 L10.6382375,1.39167641 L11.3616938,1.39167641 Z M11,9.75920078 C12.046925,9.75920078 12.8986,10.604386 12.8986,11.6433333 C12.8986,12.6822807 12.046925,13.5274659 11,13.5274659 C9.953075,13.5274659 9.1014,12.6822807 9.1014,11.6433333 C9.1014,10.604386 9.953075,9.75920078 11,9.75920078 Z M11.2134,27.3339766 L10.7865313,27.3339766 L10.7865313,23.5657115 L11.2134,23.5657115 L11.2134,27.3339766 Z M12.6157625,24.8236647 L12.6157625,22.8698051 C12.6157625,22.4855556 12.3017813,22.1739669 11.9145813,22.1739669 L10.0852813,22.1739669 C9.69808125,22.1739669 9.3841,22.4855556 9.3841,22.8698051 L9.3841,24.8236647 L5.3697875,24.8236647 L9.5755,14.5981384 C10.006975,14.8038402 10.4900813,14.9192105 10.9999313,14.9192105 C11.5097813,14.9192105 11.9928188,14.8037719 12.4243625,14.5981384 L16.630075,24.8236647 L12.6157625,24.8236647 Z" id="Shape"></path>
                                </g>
                            </g>
                        </g>
                    </g>
                </g>
            </g>
        </g>
    </g>
</svg>