<?xml version="1.0" encoding="UTF-8" standalone="no"?>
<svg width="38px" height="51px" viewBox="0 0 38 51" version="1.1" xmlns="http://www.w3.org/2000/svg" xmlns:xlink="http://www.w3.org/1999/xlink">
    <!-- Generator: Sketch 41.2 (35397) - http://www.bohemiancoding.com/sketch -->
    <title>feather-and-ink</title>
    <desc>Created with Sketch.</desc>
    <defs></defs>
    <g id="Кейсы-под-заказ" stroke="none" stroke-width="1" fill="none" fill-rule="evenodd">
        <g id="zakaz-1400" transform="translate(-570.000000, -821.000000)" fill="#0099C5">
            <g id="form" transform="translate(226.000000, 678.000000)">
                <g id="+" transform="translate(0.000000, 120.000000)">
                    <g id="+-copy" transform="translate(320.000000, 1.000000)">
                        <g id="ico1">
                            <g id="feather-and-ink" transform="translate(24.000000, 22.000000)">
                                <g id="Capa_1">
                                    <path d="M0.600007117,50.3382457 C0.803154796,49.7934875 5.32464979,39.175961 6.11787975,37.3401031 C5.73094515,36.9389268 5.09849367,36.118662 4.47642405,34.5958411 C3.54430169,32.3130314 3.53363924,29.917915 3.53363924,29.8172655 C3.53363924,29.6193784 3.63521308,29.435423 3.80216456,29.3322146 C3.96883544,29.2290063 4.17647257,29.2210453 4.35071941,29.3108906 C5.08025527,29.6890369 5.90575316,30.0919192 6.5485865,30.3802202 C6.10076371,29.6702718 5.44614557,28.7109742 4.84203376,27.8713756 C4.76010127,27.7576474 4.7227827,27.6169087 4.73737342,27.4767387 C4.74354641,27.4150411 4.90825316,25.9254857 6.11703797,22.4803735 C7.3738038,18.8982188 11.4519093,16.5696334 11.6250338,16.4721115 C11.799,16.3745895 12.010846,16.3771484 12.1820063,16.4792195 C12.329597,16.5673589 12.4280844,16.7174801 12.4524958,16.8863666 C13.9932194,13.3170063 17.2312363,7.64992892 22.6421477,6.30622997 C30.1204515,4.44876376 36.9014873,0.404303833 36.9691097,0.363645993 C37.1324135,0.265555401 37.3330359,0.257594425 37.5033544,0.342606272 C37.6733924,0.427333798 37.7898376,0.593661324 37.8125654,0.784440418 C37.8254726,0.892766551 38.1147616,3.47496585 36.8021582,6.83961533 C36.2468692,8.26292404 35.3750738,9.13948432 34.5175886,9.67940906 L35.5869198,9.79000976 C35.7527489,9.80735331 35.9025844,9.89833589 35.9957405,10.0387902 C36.0888966,10.1792446 36.1152722,10.3541017 36.0684135,10.5164488 C36.0521392,10.5718913 35.6621181,11.8965408 34.662654,13.6101408 C33.7092068,15.244984 26.5524599,24.3972627 22.946308,26.9393728 C20.9543945,28.3433477 18.4184156,29.3433031 16.5628692,29.9534551 L17.4585148,30.0916348 C17.6467911,30.1206355 17.8078502,30.2445993 17.8858544,30.4205937 C17.9638586,30.5965882 17.9487068,30.8010146 17.8448882,30.9630774 C17.736019,31.1333854 15.141116,35.1659038 12.0425527,37.9229603 C9.49422785,40.1898481 7.37604852,39.7858286 6.45571097,39.428722 C6.20542405,40.0351777 2.84318674,48.1665342 2.70794202,48.5171014 L0.600007117,50.3382457 Z M6.96947257,38.4097171 C7.68020886,38.6499679 9.28462658,38.8632084 11.3020738,37.0680084 C13.5134093,35.1005101 15.5131793,32.37217 16.4082637,31.0796488 L13.8388945,30.6833059 C13.5723333,30.6420794 13.3725527,30.4151916 13.3624515,30.1422439 C13.3523502,29.8692962 13.5352954,29.6276237 13.7982089,29.5667791 C13.849557,29.5548376 18.9866118,28.3450537 22.3057194,26.0053798 C25.7230338,23.5963317 32.7950422,14.5768307 33.6968608,13.0309798 C34.21427,12.1436153 34.5574325,11.363724 34.760019,10.8473979 L31.7972616,10.5411847 C31.5026414,10.5107624 31.282097,10.2531679 31.2936013,9.95349408 C31.3051055,9.65353589 31.5450105,9.4144223 31.8410338,9.40702997 C31.9527089,9.4033338 34.6421709,9.28420348 35.7589219,6.42166411 C36.5263376,4.45473449 36.699462,2.77809617 36.7227511,1.80998467 C34.6674241,2.95096307 29.0208165,5.89339652 22.9101118,7.41109965 C15.6652595,9.21028014 12.4682089,20.0599526 12.4367827,20.169416 C12.3587785,20.4412265 12.0964262,20.614662 11.8186414,20.5734355 C11.5419789,20.5333463 11.3365865,20.2936641 11.3365865,20.0107652 L11.3365865,18.0060209 C10.1322911,18.8464725 7.96528903,20.6089756 7.17458439,22.862216 C6.26715401,25.4492488 5.97056962,26.8884794 5.88470886,27.3914425 C8.33763291,30.8177895 8.24756329,31.1930927 8.18779747,31.4427261 C8.14542827,31.6195735 8.03010549,31.7668516 7.87213291,31.84703 C7.64766034,31.9604739 7.37324262,32.0992223 4.71576793,30.7708767 C4.8013481,31.623554 5.00898523,32.9257422 5.51376793,34.1616836 C5.92371097,35.1656195 6.32944515,35.8101742 6.62995781,36.2016836 C8.35951899,32.5510077 12.9721498,24.3085547 17.0996392,18.2437129 C21.6171498,11.6065338 30.0780823,6.32925993 30.436116,6.10777422 C30.7004325,5.94372125 31.0458397,6.02844878 31.2074599,6.29684739 C31.3687996,6.56467735 31.2854641,6.91467596 31.0208671,7.0784446 C30.9352869,7.13161254 22.4036456,12.4540934 18.0236245,18.8894049 C13.4839473,25.5595652 8.52450633,34.643607 7.31796624,37.4012321 L6.96947257,38.4097171 Z" id="Shape"></path>
                                </g>
                            </g>
                        </g>
                    </g>
                </g>
            </g>
        </g>
    </g>
</svg>