<?xml version="1.0" encoding="UTF-8" standalone="no"?>
<svg width="17px" height="19px" viewBox="0 0 17 19" version="1.1" xmlns="http://www.w3.org/2000/svg" xmlns:xlink="http://www.w3.org/1999/xlink">
    <!-- Generator: Sketch 41.2 (35397) - http://www.bohemiancoding.com/sketch -->
    <title>garbage</title>
    <desc>Created with Sketch.</desc>
    <defs></defs>
    <g id="Корзина" stroke="none" stroke-width="1" fill="none" fill-rule="evenodd">
        <g id="cart-1400" transform="translate(-840.000000, -684.000000)" fill="#7F8D92">
            <g id="main-copy-3" transform="translate(250.000000, 635.000000)">
                <g id="card">
                    <g id="card/desktop">
                        <g id="input-copy" transform="translate(576.000000, 36.000000)">
                            <g id="garbage" transform="translate(14.000000, 13.000000)">
                                <g id="Capa_1">
                                    <g id="Group">
                                        <path d="M16.4516129,2.73100616 L12.4875576,2.73100616 L12.4875576,2.08726899 C12.4875576,0.936344969 11.5474654,0 10.3919355,0 L6.62373272,0 C5.46820276,0 4.5281106,0.936344969 4.5281106,2.08726899 L4.5281106,2.73100616 L0.5640553,2.73100616 C0.270276498,2.73100616 0.0352534562,2.9650924 0.0352534562,3.25770021 C0.0352534562,3.55030801 0.270276498,3.78439425 0.5640553,3.78439425 L1.51981567,3.78439425 L1.51981567,16.1597536 C1.51981567,17.7125257 2.78894009,18.9765914 4.34792627,18.9765914 L12.6677419,18.9765914 C14.2267281,18.9765914 15.4958525,17.7125257 15.4958525,16.1597536 L15.4958525,3.78439425 L16.4516129,3.78439425 C16.7453917,3.78439425 16.9804147,3.55030801 16.9804147,3.25770021 C16.9804147,2.9650924 16.7453917,2.73100616 16.4516129,2.73100616 Z M5.58571429,2.08726899 C5.58571429,1.51765914 6.05184332,1.05338809 6.62373272,1.05338809 L10.3919355,1.05338809 C10.9638249,1.05338809 11.4299539,1.51765914 11.4299539,2.08726899 L11.4299539,2.73100616 L5.58571429,2.73100616 L5.58571429,2.08726899 Z M14.4382488,16.1597536 C14.4382488,17.1312115 13.6430876,17.9232033 12.6677419,17.9232033 L4.34792627,17.9232033 C3.37258065,17.9232033 2.57741935,17.1312115 2.57741935,16.1597536 L2.57741935,3.78439425 L14.4421659,3.78439425 L14.4421659,16.1597536 L14.4382488,16.1597536 Z" id="Shape"></path>
                                        <path d="M8.5078341,16.0349076 C8.8016129,16.0349076 9.03663594,15.8008214 9.03663594,15.5082136 L9.03663594,6.19938398 C9.03663594,5.90677618 8.8016129,5.67268994 8.5078341,5.67268994 C8.2140553,5.67268994 7.97903226,5.90677618 7.97903226,6.19938398 L7.97903226,15.5043121 C7.97903226,15.7969199 8.2140553,16.0349076 8.5078341,16.0349076 Z" id="Shape"></path>
                                        <path d="M5.05691244,15.4535934 C5.35069124,15.4535934 5.58571429,15.2195072 5.58571429,14.9268994 L5.58571429,6.77679671 C5.58571429,6.48418891 5.35069124,6.25010267 5.05691244,6.25010267 C4.76313364,6.25010267 4.5281106,6.48418891 4.5281106,6.77679671 L4.5281106,14.9268994 C4.5281106,15.2195072 4.76705069,15.4535934 5.05691244,15.4535934 Z" id="Shape"></path>
                                        <path d="M11.9587558,15.4535934 C12.2525346,15.4535934 12.4875576,15.2195072 12.4875576,14.9268994 L12.4875576,6.77679671 C12.4875576,6.48418891 12.2525346,6.25010267 11.9587558,6.25010267 C11.664977,6.25010267 11.4299539,6.48418891 11.4299539,6.77679671 L11.4299539,14.9268994 C11.4299539,15.2195072 11.664977,15.4535934 11.9587558,15.4535934 Z" id="Shape"></path>
                                    </g>
                                </g>
                            </g>
                        </g>
                    </g>
                </g>
            </g>
        </g>
    </g>
</svg>