<?xml version="1.0" encoding="UTF-8" standalone="no"?>
<svg width="11px" height="9px" viewBox="0 0 11 9" version="1.1" xmlns="http://www.w3.org/2000/svg" xmlns:xlink="http://www.w3.org/1999/xlink">
    <!-- Generator: Sketch 41.2 (35397) - http://www.bohemiancoding.com/sketch -->
    <title>correct-symbol</title>
    <desc>Created with Sketch.</desc>
    <defs></defs>
    <g id="Листинг-кабель-канал" stroke="none" stroke-width="1" fill="none" fill-rule="evenodd">
        <g id="listing-cabel-1400" transform="translate(-255.000000, -459.000000)" fill="#FFFFFF">
            <g id="filtr" transform="translate(250.000000, 259.000000)">
                <g id="checklist" transform="translate(0.000000, 103.000000)">
                    <g id="check-copy-2" transform="translate(0.000000, 92.000000)">
                        <g id="correct-symbol" transform="translate(5.000000, 5.000000)">
                            <g id="Capa_1">
                                <path d="M9.92102964,1.79051852 L9.11508953,0.931351886 C9.004581,0.813456557 8.87018154,0.754486765 8.7122025,0.754486765 C8.55407816,0.754486765 8.4196787,0.813456557 8.30917018,0.931351886 L4.42156982,5.08196227 L2.67927542,3.21827344 C2.56864235,3.10033386 2.43432592,3.04143045 2.27634688,3.04143045 C2.11826405,3.04143045 1.98394762,3.10033386 1.87331455,3.21827344 L1.06737444,4.0774622 C0.956741375,4.19537966 0.901445597,4.33861098 0.901445597,4.5071119 C0.901445597,4.67548006 0.956741375,4.81884415 1.06737444,4.93673947 L3.21259738,7.22359465 L4.01859976,8.08276128 C4.12917056,8.20074512 4.2635285,8.25964853 4.42156982,8.25964853 C4.57954886,8.25964853 4.7139068,8.20059023 4.82453987,8.08276128 L5.63052149,7.22359465 L9.92102964,2.64975154 C10.0315589,2.53181195 10.0869585,2.38860276 10.0869585,2.22010184 C10.0870415,2.05168942 10.0315589,1.9084581 9.92102964,1.79051852 Z" id="Shape"></path>
                            </g>
                        </g>
                    </g>
                </g>
            </g>
        </g>
    </g>
</svg>