<?xml version="1.0" encoding="UTF-8" standalone="no"?>
<svg width="42px" height="45px" viewBox="0 0 42 45" version="1.1" xmlns="http://www.w3.org/2000/svg" xmlns:xlink="http://www.w3.org/1999/xlink">
    <!-- Generator: Sketch 41.2 (35397) - http://www.bohemiancoding.com/sketch -->
    <title>libra</title>
    <desc>Created with Sketch.</desc>
    <defs></defs>
    <g id="Кейсы-под-заказ" stroke="none" stroke-width="1" fill="none" fill-rule="evenodd">
        <g id="zakaz-1400" transform="translate(-888.000000, -822.000000)" fill="#0099C5">
            <g id="form" transform="translate(226.000000, 678.000000)">
                <g id="+" transform="translate(0.000000, 120.000000)">
                    <g id="+-copy-2" transform="translate(640.000000, 1.000000)">
                        <g id="ico1">
                            <g id="libra" transform="translate(22.000000, 23.000000)">
                                <g id="Layer_1">
                                    <g id="Group">
                                        <path d="M20.9999026,19.4384449 C16.2982413,19.4385421 12.4733179,23.2535313 12.4733179,27.9427646 C12.4733179,32.632095 16.2983387,36.4470842 21,36.4470842 C25.7016613,36.4470842 29.5266821,32.632095 29.5266821,27.9427646 C29.5266821,23.2534341 25.7016613,19.4384449 20.9999026,19.4384449 L20.9999026,19.4384449 Z M21.7306636,21.7224622 L21.7306636,20.9339417 C23.1314756,21.0781749 24.4115499,21.6329482 25.449174,22.4743413 L18.9239722,28.9823326 C18.6385476,29.2671058 18.6385476,29.7285745 18.9239722,30.0132505 C19.0666357,30.15554 19.2537355,30.2266847 19.4407378,30.2266847 C19.6277401,30.2266847 19.8148399,30.15554 19.9575035,30.0132505 L26.4827053,23.505162 C27.3263109,24.5399676 27.8824455,25.8166847 28.027058,27.2137257 L27.2366589,27.2137257 C26.8330302,27.2137257 26.5058005,27.54 26.5058005,27.9426674 C26.5058005,28.3453348 26.8330302,28.6716091 27.2366589,28.6716091 L28.0272529,28.6716091 C27.6851137,31.9762419 25.0440835,34.6103456 21.7308585,34.9515875 L21.7308585,33.3855292 C21.7308585,32.9828618 21.4036288,32.6565875 21,32.6565875 C20.5963712,32.6565875 20.2691415,32.9828618 20.2691415,33.3855292 L20.2691415,34.9515875 C16.9559165,34.6103456 14.3148863,31.9762419 13.9727471,28.6717063 L14.7633411,28.6717063 C15.1669698,28.6717063 15.4941995,28.345432 15.4941995,27.9427646 C15.4941995,27.5400972 15.1669698,27.2138229 14.7633411,27.2138229 L13.9727471,27.2138229 C14.3147889,23.9093844 16.955819,21.2752808 20.2689466,20.9340389 L20.2689466,21.7224622 C20.2689466,22.1251296 20.5961763,22.4514039 20.9998051,22.4514039 C21.4034339,22.4514039 21.7306636,22.1251296 21.7306636,21.7224622 Z" id="Shape"></path>
                                        <path d="M41.9256473,0.408693305 C41.803058,0.158617711 41.548232,0 41.2691415,0 L0.730858469,0 C0.451767981,0 0.196941995,0.158617711 0.0743526682,0.408693305 C-0.0483341067,0.658768898 -0.0173457077,0.956760259 0.153967517,1.17641469 L5.14280742,7.57389849 C5.57986079,8.13430886 6.23870534,8.45572354 6.95056148,8.45572354 L14.1927842,8.45572354 L14.5387239,9.83585313 C14.7940371,10.8544276 15.7077077,11.5658747 16.7603387,11.5658747 L17.9329281,11.5658747 C17.9318561,11.5820086 17.9304919,11.5980454 17.9304919,11.6144708 L17.9304919,13.2181425 L17.881768,13.2181425 C17.0488817,13.2181425 16.3713271,13.8939201 16.3713271,14.724622 L16.3713271,17.2863175 C12.2467517,19.0753348 9.35508585,23.1783045 9.35508585,27.9427646 C9.35508585,27.9796976 9.35615777,28.0163391 9.35645012,28.0531749 C8.00903944,28.3263823 6.97735963,29.4788877 6.90612529,30.9000324 L6.23763341,44.2346112 C6.22759629,44.4340497 6.30009745,44.6288229 6.43808353,44.7734449 C6.57606961,44.918067 6.76735963,45 6.9675174,45 L35.0324826,45 C35.2326404,45 35.4241253,44.918067 35.5620139,44.7734449 C35.6999026,44.6288229 35.7724037,44.4340497 35.762464,44.2346112 L35.0939722,30.9000324 C35.0227378,29.4788877 33.991058,28.3263823 32.6436473,28.0531749 C32.6440371,28.0163391 32.6450116,27.9796976 32.6450116,27.9427646 C32.6450116,23.1783045 29.7533457,19.0753348 25.6287703,17.2863175 L25.6287703,14.724622 C25.6287703,13.8939201 24.9512158,13.2181425 24.1183295,13.2181425 L24.0696056,13.2181425 L24.0696056,11.6144708 C24.0696056,11.5980454 24.0682413,11.5820086 24.0671694,11.5658747 L25.2397587,11.5658747 C26.2924872,11.5658747 27.2060603,10.8545248 27.4613735,9.83585313 L27.8073132,8.45572354 L35.049536,8.45572354 C35.7612947,8.45572354 36.4201392,8.13430886 36.8570951,7.57399568 L41.8460325,1.17651188 C42.0174432,0.956760259 42.0483341,0.658768898 41.9256473,0.408693305 Z M33.6340093,30.9729266 L34.2642042,43.5421166 L7.73579582,43.5421166 L8.36589327,30.9729266 C8.39990255,30.2952052 8.85137819,29.735378 9.46442227,29.5322462 C10.2439072,35.1870842 15.1195128,39.5572354 21,39.5572354 C26.8804872,39.5572354 31.7560928,35.1870842 32.5354803,29.5322462 C33.1485244,29.735378 33.6000974,30.2952052 33.6340093,30.9729266 Z M24.8979118,18.5637149 C24.9004455,18.5637149 24.9028817,18.5633261 24.9055128,18.5633261 C28.5879675,20.0942981 31.1832947,23.7217063 31.1832947,27.9427646 C31.1832947,33.5430778 26.6151369,38.0993521 21,38.0993521 C15.3848631,38.0993521 10.8167053,33.5430778 10.8167053,27.9427646 C10.8167053,23.7217063 13.4120325,20.0942981 17.0944872,18.5633261 C17.0970209,18.5633261 17.0994571,18.5637149 17.1020882,18.5637149 C17.2931833,18.5637149 17.4666404,18.489946 17.5969281,18.3702052 C18.6616427,17.9925162 19.8070441,17.7861771 21,17.7861771 C22.1929559,17.7861771 23.3384548,17.9925162 24.4030719,18.3702052 C24.5332622,18.4900432 24.7067193,18.5637149 24.8979118,18.5637149 Z M24.1183295,14.6760259 C24.1452251,14.6760259 24.1670534,14.6978942 24.1670534,14.724622 L24.1670534,16.7649784 C23.1597355,16.4806911 22.0973596,16.3282937 21,16.3282937 C19.9026404,16.3282937 18.8402645,16.4806911 17.8329466,16.7649784 L17.8329466,14.724622 C17.8329466,14.6978942 17.8547749,14.6760259 17.8816705,14.6760259 L24.1183295,14.6760259 Z M19.3896752,11.5658747 L22.6103248,11.5658747 C22.6092529,11.5820086 22.6078886,11.5980454 22.6078886,11.6144708 L22.6078886,13.2181425 L19.3921114,13.2181425 L19.3921114,11.6144708 C19.3921114,11.5980454 19.3907471,11.5820086 19.3896752,11.5658747 Z M26.0432158,9.48236501 C25.9509327,9.85072354 25.6204872,10.1080886 25.2396613,10.1080886 L16.7602413,10.1080886 C16.3794153,10.1080886 16.0489698,9.85082073 15.9565893,9.48236501 L15.6994246,8.45572354 L26.3005754,8.45572354 L26.0432158,9.48236501 Z M35.7033132,6.67895248 C35.5452529,6.88159827 35.306993,6.99784017 35.049536,6.99784017 L27.2366589,6.99784017 L14.7633411,6.99784017 L6.95056148,6.99784017 C6.69310441,6.99784017 6.4547471,6.88159827 6.29668677,6.67895248 L2.22522042,1.45788337 L39.7747796,1.45788337 L35.7033132,6.67895248 Z" id="Shape"></path>
                                    </g>
                                </g>
                            </g>
                        </g>
                    </g>
                </g>
            </g>
        </g>
    </g>
</svg>