<?xml version="1.0" encoding="UTF-8" standalone="no"?>
<svg width="37px" height="55px" viewBox="0 0 37 55" version="1.1" xmlns="http://www.w3.org/2000/svg" xmlns:xlink="http://www.w3.org/1999/xlink">
    <!-- Generator: Sketch 41.2 (35397) - http://www.bohemiancoding.com/sketch -->
    <title>medal</title>
    <desc>Created with Sketch.</desc>
    <defs></defs>
    <g id="Каталог" stroke="none" stroke-width="1" fill="none" fill-rule="evenodd" stroke-linejoin="round">
        <g id="catalog-1400" transform="translate(-274.000000, -371.000000)" stroke="#0099C5">
            <g id="+" transform="translate(250.000000, 349.000000)">
                <g transform="translate(0.000000, 1.000000)" id="ico1">
                    <g>
                        <g id="medal" transform="translate(24.000000, 22.000000)">
                            <g id="Free_Icons">
                                <g id="Group">
                                    <polygon id="Shape" stroke-linecap="round" points="31.21875 40.25 31.21875 45.9791667 25.4375 45.9791667 18.5 52.8541667 11.5625 45.9791667 5.78125 45.9791667 5.78125 40.25 0 34.5208333 5.78125 28.7916667 5.78125 23.0625 11.5625 23.0625 18.5 16.1875 25.4375 23.0625 31.21875 23.0625 31.21875 28.7916667 37 34.5208333"></polygon>
                                    <polyline id="Shape" stroke-linecap="round" points="8.09375 0.145833333 8.09375 11.6041667 18.5 16.1875 28.90625 11.6041667 28.90625 0.145833333"></polyline>
                                    <path d="M3.46875,0.145833333 L33.53125,0.145833333" id="Shape" stroke-linecap="round"></path>
                                    <path d="M15.03125,0.145833333 L15.03125,14.46875" id="Shape" stroke-linecap="round"></path>
                                    <path d="M21.96875,0.145833333 L21.96875,14.46875" id="Shape" stroke-linecap="round"></path>
                                    <polygon id="Shape" points="24.28125 37.9583333 18.5 41.3958333 12.71875 37.9583333 12.71875 31.0833333 18.5 27.6458333 24.28125 31.0833333"></polygon>
                                </g>
                            </g>
                        </g>
                    </g>
                </g>
            </g>
        </g>
    </g>
</svg>