<?xml version="1.0" encoding="UTF-8" standalone="no"?>
<svg width="23px" height="18px" viewBox="0 0 23 18" version="1.1" xmlns="http://www.w3.org/2000/svg" xmlns:xlink="http://www.w3.org/1999/xlink">
    <!-- Generator: Sketch 41.2 (35397) - http://www.bohemiancoding.com/sketch -->
    <title>menu</title>
    <desc>Created with Sketch.</desc>
    <defs></defs>
    <g id="Symbols" stroke="none" stroke-width="1" fill="none" fill-rule="evenodd">
        <g id="header/mobile" transform="translate(-10.000000, -14.000000)" fill="#FFFFFF">
            <g id="menu">
                <g transform="translate(10.000000, 14.000000)">
                    <g id="Group">
                        <path d="M0.881599119,1.80030857 L22.0389648,1.80030857 C22.5678634,1.80030857 22.9205639,1.44236571 22.9205639,0.905348571 C22.9205639,0.368331429 22.5679648,0.0103885714 22.0389648,0.0103885714 L0.881599119,0.0103885714 C0.352599119,0.0104914286 0,0.368434286 0,0.905348571 C0,1.44226286 0.352599119,1.80030857 0.881599119,1.80030857 Z" id="Shape"></path>
                        <path d="M22.0389648,8.06472 L0.881599119,8.06472 C0.352700441,8.06472 0,8.42266286 0,8.95968 C0,9.49669714 0.352599119,9.85464 0.881599119,9.85464 L22.0389648,9.85464 C22.5678634,9.85464 22.9205639,9.49669714 22.9205639,8.95968 C22.9205639,8.42266286 22.5678634,8.06472 22.0389648,8.06472 L22.0389648,8.06472 Z" id="Shape"></path>
                        <path d="M22.0389648,16.1190514 L0.881599119,16.1190514 C0.352700441,16.1190514 0,16.4769943 0,17.0140114 C0,17.5510286 0.352599119,17.9089714 0.881599119,17.9089714 L22.0389648,17.9089714 C22.5678634,17.9089714 22.9205639,17.5510286 22.9205639,17.0140114 C22.9205639,16.4769943 22.5678634,16.1190514 22.0389648,16.1190514 Z" id="Shape"></path>
                    </g>
                </g>
            </g>
        </g>
    </g>
</svg>