<?xml version="1.0" encoding="UTF-8" standalone="no"?>
<svg width="18px" height="18px" viewBox="0 0 18 18" version="1.1" xmlns="http://www.w3.org/2000/svg" xmlns:xlink="http://www.w3.org/1999/xlink">
    <!-- Generator: Sketch 41.2 (35397) - http://www.bohemiancoding.com/sketch -->
    <title>Capa_1</title>
    <desc>Created with Sketch.</desc>
    <defs></defs>
    <g id="Symbols" stroke="none" stroke-width="1" fill="none" fill-rule="evenodd">
        <g id="footer/buttons/call" transform="translate(-109.000000, -14.000000)" fill="#FFFFFF">
            <g id="telephone-2">
                <g transform="translate(109.000000, 14.000000)">
                    <g id="Capa_1">
                        <g id="Group">
                            <path d="M3.65036051,11.9618852 C5.4355457,14.0827869 7.57999014,15.757377 10.0281383,16.9377049 C10.9614716,17.3803279 12.2059161,17.8967213 13.594805,17.9889344 C13.6799901,17.992623 13.7651753,17.9963115 13.8466568,17.9963115 C14.7762864,17.9963115 15.5244346,17.6754098 16.1355457,17.0151639 C16.1392494,17.0114754 16.1466568,17.0040984 16.1503605,16.9967213 C16.368879,16.7348361 16.6133235,16.502459 16.8725827,16.2516393 C17.0466568,16.0819672 17.2281383,15.9086066 17.3985087,15.7278689 C18.194805,14.9016393 18.1911013,13.8504098 17.3911013,13.0536885 L15.1392494,10.8147541 C14.7577679,10.420082 14.3022124,10.2098361 13.8244346,10.2098361 C13.3466568,10.2098361 12.8873975,10.4163934 12.494805,10.807377 L11.1503605,12.1463115 C11.0244346,12.0762295 10.8985087,12.0098361 10.7762864,11.9508197 C10.6281383,11.8770492 10.4873975,11.8069672 10.3614716,11.7295082 C9.1392494,10.9586066 8.03184199,9.94795082 6.97258273,8.65327869 C6.4355457,7.97459016 6.07628644,7.4102459 5.82443458,6.82745902 C6.17628644,6.5102459 6.50591607,6.17827869 6.82443458,5.85368852 C6.9392494,5.73934426 7.05406421,5.62131148 7.16887903,5.50696721 C7.57258273,5.10491803 7.78739755,4.64016393 7.78739755,4.16803279 C7.78739755,3.69590164 7.57258273,3.23114754 7.16887903,2.82909836 L6.05406421,1.71885246 C5.92443458,1.5897541 5.79850866,1.46065574 5.67258273,1.33155738 C5.42443458,1.07704918 5.16887903,0.818852459 4.91332347,0.579098361 C4.5355457,0.199180328 4.07999014,0 3.60221236,0 C3.12813829,0 2.67258273,0.199180328 2.27258273,0.579098361 L0.876286436,1.97336066 C0.368879028,2.47868852 0.0799901396,3.09467213 0.0170271766,3.80655738 C-0.0570468975,4.6954918 0.109619769,5.64344262 0.535545695,6.79057377 C1.19480495,8.55737705 2.18369384,10.202459 3.65036051,11.9618852 Z M0.92073088,3.88032787 C0.965175325,3.38237705 1.15776792,2.96557377 1.51702718,2.61147541 L2.90961977,1.22459016 C3.12813829,1.01434426 3.36887903,0.903688525 3.60591607,0.903688525 C3.8355457,0.903688525 4.06887903,1.01065574 4.28369384,1.22827869 C4.5355457,1.46065574 4.77258273,1.70409836 5.02443458,1.96229508 C5.15406421,2.09139344 5.27999014,2.22418033 5.41332347,2.35696721 L6.52813829,3.46721311 C6.76147162,3.69959016 6.87999014,3.93565574 6.87999014,4.16803279 C6.87999014,4.40040984 6.76147162,4.63647541 6.52813829,4.86885246 C6.40961977,4.98688525 6.29480495,5.10491803 6.17999014,5.2192623 C5.83184199,5.56967213 5.50591607,5.90163934 5.14665681,6.21885246 C5.1392494,6.22622951 5.1355457,6.22991803 5.12813829,6.23729508 C4.82073088,6.54344262 4.86517532,6.83852459 4.9392494,7.05983607 C4.9429531,7.07090164 4.94665681,7.07827869 4.95036051,7.08934426 C5.2355457,7.77909836 5.6392494,8.43565574 6.26147162,9.21762295 C7.38739755,10.5971311 8.56887903,11.6668033 9.87258273,12.4930328 C10.0355457,12.5963115 10.2022124,12.6811475 10.368879,12.7622951 C10.5170272,12.8360656 10.6577679,12.9061475 10.7836938,12.9836066 C10.7985087,12.9909836 10.8096198,12.9983607 10.8244346,13.0057377 C10.9466568,13.0684426 11.0651753,13.0979508 11.1836938,13.0979508 C11.4799901,13.0979508 11.6725827,12.9061475 11.7355457,12.8434426 L13.1355457,11.4491803 C13.568879,11.017623 14.0651753,11.0065574 14.4911013,11.4491803 L16.7466568,13.6954918 C17.1911013,14.1381148 17.1873975,14.6397541 16.7355457,15.1081967 C16.5762864,15.2741803 16.4133235,15.4364754 16.2355457,15.602459 C15.9725827,15.8569672 15.6985087,16.1151639 15.4540642,16.4102459 C15.0207309,16.875 14.5096198,17.0889344 13.8429531,17.0889344 C13.7762864,17.0889344 13.7133235,17.0852459 13.6466568,17.0815574 C12.4170272,17.0004098 11.2725827,16.5245902 10.4170272,16.1188525 C8.08739755,14.9938525 6.0429531,13.4004098 4.3429531,11.3790984 C2.94665681,9.70081967 2.00591607,8.1442623 1.38369384,6.47336066 C1.00961977,5.45901639 0.861471621,4.63278689 0.92073088,3.88032787 Z" id="Shape"></path>
                        </g>
                    </g>
                </g>
            </g>
        </g>
    </g>
</svg>