<?xml version="1.0" encoding="UTF-8" standalone="no"?>
<svg width="40px" height="52px" viewBox="0 0 40 52" version="1.1" xmlns="http://www.w3.org/2000/svg" xmlns:xlink="http://www.w3.org/1999/xlink">
    <!-- Generator: Sketch 41.2 (35397) - http://www.bohemiancoding.com/sketch -->
    <title>piggy-bank</title>
    <desc>Created with Sketch.</desc>
    <defs></defs>
    <g id="Типовая-страница" stroke="none" stroke-width="1" fill="none" fill-rule="evenodd">
        <g id="typepage-1400" transform="translate(-342.000000, -3029.000000)" fill="#0099C5">
            <g id="+" transform="translate(250.000000, 3007.000000)">
                <g id="ico1">
                    <g>
                        <g id="piggy-bank" transform="translate(92.000000, 22.000000)">
                            <g id="Layer_1">
                                <path d="M37.4367021,28.190593 L36.5218085,28.190593 C35.5643617,25.5533742 33.862234,23.1713701 31.5643617,21.2678937 C31.5537234,21.2253579 31.5430851,21.193456 31.5324468,21.1509202 C31.1707447,19.8748466 31.4260638,18.5243354 32.2984043,17.1419223 C32.6707447,16.5570552 32.6601064,15.8339468 32.287766,15.2490798 C31.9154255,14.6642127 31.2664894,14.3558282 30.575,14.4408998 C27.4260638,14.8343558 25.6175532,16.3124744 24.6175532,17.609816 C23.5324468,17.2907975 22.4047872,17.0674847 21.2664894,16.9292434 C20.9154255,16.8867076 20.5962766,17.1419223 20.5537234,17.4822086 C20.5111702,17.8331288 20.7664894,18.1521472 21.1069149,18.194683 C22.3196809,18.3435583 23.5218085,18.598773 24.6707447,18.9603272 C24.9367021,19.0453988 25.2345745,18.9390593 25.3941489,18.7051125 C26.181383,17.5353783 27.7452128,16.0678937 30.7345745,15.6957055 C31.0111702,15.6638037 31.1601064,15.8445808 31.2132979,15.9190184 C31.2664894,15.993456 31.362234,16.206135 31.2132979,16.4507157 C30.1601064,18.1308793 29.8409574,19.8748466 30.2984043,21.4912065 C30.3090426,21.5337423 30.3196809,21.5762781 30.3196809,21.6188139 C30.3303191,21.799591 30.4154255,21.9803681 30.5537234,22.0973415 C32.8941489,23.9795501 34.5856383,26.3828221 35.4579787,29.0306748 C35.5430851,29.2965235 35.787766,29.4666667 36.0643617,29.4666667 L37.4473404,29.4666667 C38.1388298,29.4666667 38.7026596,30.0302658 38.7026596,30.7214724 L38.7026596,35.3791411 C38.7026596,36.0703476 38.1388298,36.6339468 37.4473404,36.6339468 L36.1388298,36.6339468 C35.862234,36.6339468 35.6069149,36.8147239 35.5324468,37.0805726 C34.7984043,39.4625767 31.4792553,43.3652352 31.1388298,43.7693252 L30.8941489,43.9820041 L30.8835106,43.992638 C28.787766,45.8854806 28.575,48.1079755 28.5643617,48.7353783 L28.5643617,48.7460123 L28.5643617,50.2879346 C28.5643617,50.5006135 28.3941489,50.6707566 28.181383,50.6707566 L21.9367021,50.6707566 C21.7239362,50.6707566 21.5537234,50.5006135 21.5537234,50.2879346 L21.5537234,48.8204499 C21.5537234,48.6396728 21.4792553,48.4695297 21.3409574,48.3419223 C21.2026596,48.2249489 21.0218085,48.1611452 20.8515957,48.1824131 C19.2452128,48.3525562 17.6281915,48.3206544 16.0537234,48.1186094 C15.8728723,48.0973415 15.6920213,48.1505112 15.5430851,48.2674847 C15.4047872,48.3844581 15.3196809,48.5652352 15.3196809,48.7460123 L15.3196809,50.2879346 C15.3196809,50.5006135 15.1494681,50.6707566 14.9367021,50.6707566 L8.69202128,50.6707566 C8.48989362,50.6707566 8.31968085,50.5112474 8.30904255,50.3198364 L8.30904255,50.3092025 L8.30904255,49.8200409 L8.30904255,49.7881391 C8.25585106,48.7141104 7.91542553,45.9599182 5.78776596,43.7693252 C4.69202128,42.6421268 3.71329787,41.1640082 2.88351064,39.3775051 C2.88351064,39.3668712 2.87287234,39.3562372 2.87287234,39.3562372 C2.37287234,38.399182 2.00053191,37.3783231 1.74521277,36.3468303 L1.74521277,36.3255624 L1.73457447,36.2830266 C1.73457447,36.2723926 1.73457447,36.2723926 1.72393617,36.2617587 C1.30904255,34.9006135 1.36223404,33.209816 1.36223404,33.1885481 L1.36223404,33.1672802 C1.36223404,32.4335378 1.42606383,31.6891616 1.54308511,30.9660532 C1.5962766,30.6151329 1.36223404,30.2854806 1.02180851,30.2323108 C0.670744681,30.1791411 0.340957447,30.4130879 0.287765957,30.7533742 C0.160106383,31.5402863 0.0856382979,32.3484663 0.0856382979,33.1566462 C0.0856382979,33.3267894 0.0430851064,35.1026585 0.500531915,36.6126789 L0.511170213,36.6445808 C0.787765957,37.7717791 1.20265957,38.8670757 1.73457447,39.9198364 C2.62819149,41.8339468 3.68138298,43.4290389 4.87287234,44.6519427 C6.69202128,46.5235174 6.98989362,48.8842536 7.04308511,49.8306748 L7.04308511,50.2773006 L7.04308511,50.3730061 L7.04308511,50.394274 C7.0962766,51.2662577 7.83031915,51.9468303 8.70265957,51.9468303 L14.9473404,51.9468303 C15.862234,51.9468303 16.6069149,51.202454 16.6069149,50.2879346 L16.6069149,49.4584867 C17.8196809,49.5754601 19.0430851,49.596728 20.2771277,49.5116564 L20.2771277,50.2879346 C20.2771277,51.202454 21.0218085,51.9468303 21.9367021,51.9468303 L28.181383,51.9468303 C29.0962766,51.9468303 29.8409574,51.202454 29.8409574,50.2879346 L29.8409574,48.7566462 C29.8515957,48.3844581 29.9898936,46.5235174 31.7345745,44.9390593 L32.0005319,44.7051125 C32.0218085,44.6838446 32.0430851,44.6625767 32.0643617,44.6413088 C32.2132979,44.4711656 35.5111702,40.6535787 36.5856383,37.9100204 L37.4367021,37.9100204 C38.8303191,37.9100204 39.968617,36.7721881 39.968617,35.3791411 L39.968617,30.7214724 C39.968617,29.3284254 38.8303191,28.190593 37.4367021,28.190593 Z" id="Shape"></path>
                                <path d="M8.52180851,11.8355828 C3.91542553,11.8355828 0.170744681,15.5893661 0.170744681,20.1832311 C0.170744681,24.7877301 3.91542553,28.5308793 8.52180851,28.5308793 C13.1281915,28.5308793 16.8728723,24.7877301 16.8728723,20.1832311 C16.8728723,15.5787321 13.1281915,11.8355828 8.52180851,11.8355828 Z M8.52180851,27.2548057 C4.61755319,27.2548057 1.44734043,24.0858896 1.44734043,20.1832311 C1.44734043,16.2805726 4.61755319,13.1116564 8.52180851,13.1116564 C12.4260638,13.1116564 15.5962766,16.2912065 15.5962766,20.1832311 C15.5962766,24.0858896 12.4260638,27.2548057 8.52180851,27.2548057 Z" id="Shape"></path>
                                <path d="M18.5537234,0 C15.4154255,0 12.862234,2.55214724 12.862234,5.68916155 C12.862234,8.82617587 15.4047872,11.3783231 18.5537234,11.3783231 C21.6920213,11.3783231 24.2452128,8.82617587 24.2452128,5.68916155 C24.2452128,2.55214724 21.6920213,0 18.5537234,0 Z M18.5537234,10.1022495 C16.1175532,10.1022495 14.1388298,8.12433538 14.1388298,5.68916155 C14.1388298,3.25398773 16.1175532,1.27607362 18.5537234,1.27607362 C20.9898936,1.27607362 22.968617,3.25398773 22.968617,5.68916155 C22.968617,8.12433538 20.9898936,10.1022495 18.5537234,10.1022495 Z" id="Shape"></path>
                            </g>
                        </g>
                    </g>
                </g>
            </g>
        </g>
    </g>
</svg>