<?xml version="1.0" encoding="UTF-8" standalone="no"?>
<svg width="16px" height="17px" viewBox="0 0 16 17" version="1.1" xmlns="http://www.w3.org/2000/svg" xmlns:xlink="http://www.w3.org/1999/xlink">
    <!-- Generator: Sketch 41.2 (35397) - http://www.bohemiancoding.com/sketch -->
    <title>Shape</title>
    <desc>Created with Sketch.</desc>
    <defs></defs>
    <g id="Symbols" stroke="none" stroke-width="1" fill="none" fill-rule="evenodd">
        <g id="header" transform="translate(-1041.000000, -15.000000)" fill="#FFFFFF">
            <g id="header-copy">
                <g id="head">
                    <g id="clock" transform="translate(1041.000000, 15.000000)">
                        <path d="M15.3822033,4.95242629 C14.2012951,2.1036855 11.5278503,0.208177211 8.48810521,0.0219133907 C8.3896962,0.0109566953 8.29675435,0.00547834766 8.19834534,0.00547834766 L8.1710095,0.00547834766 C8.11087066,0.00547834766 8.05619899,0 7.99606015,0 C6.94636402,0 5.91853655,0.208177211 4.93991359,0.613574938 C0.861406742,2.30638437 -1.07943767,7.00132831 0.609917043,11.0826973 C1.85096403,14.0903102 4.7540299,16.0351236 8.00152732,16.0351236 L8.12727217,16.0351236 L8.19834534,16.0351236 L8.23661551,16.0351236 C8.30768869,16.0351236 8.3732947,16.0296453 8.44436787,16.0241669 C9.34098332,15.9748618 10.2157301,15.7721629 11.0576739,15.427027 C13.0313213,14.6107532 14.5675953,13.0658592 15.3876704,11.093654 C16.2077455,9.12144886 16.2022784,6.93558814 15.3822033,4.95242629 Z M5.18593612,1.22167153 C5.42102432,1.12306127 5.66704685,1.03540771 5.90760222,0.964189189 C5.508499,1.33123848 5.14219879,1.79689803 4.81963591,2.35021115 C4.42053269,3.0459613 4.10343699,3.85675675 3.87928313,4.74972742 L1.41905781,4.74972742 C2.18446124,3.21579008 3.48017991,1.93385672 5.18593612,1.22167153 Z M4.40413119,5.41260749 L7.86484813,5.41260749 L7.86484813,10.6279945 L4.43146703,10.6279945 C4.25105051,9.79528562 4.15264149,8.9077933 4.15264149,8.02030098 C4.15264149,7.09993857 4.24011617,6.2179246 4.40413119,5.41260749 Z M1.12383078,10.6334728 C0.473237859,8.89135826 0.516975198,7.03967675 1.13476511,5.40712914 C1.15116661,5.40712914 1.16210095,5.41260749 1.17850245,5.41260749 L3.73166961,5.41260749 C3.57312175,6.23435964 3.49111424,7.11637361 3.49111424,8.02030098 C3.49111424,8.91875 3.57858892,9.79528562 3.74807111,10.6279945 L1.17303528,10.6279945 C1.15663378,10.6279945 1.14023228,10.6279945 1.12383078,10.6334728 Z M1.41905781,11.2853962 L3.91208613,11.2853962 C4.13077282,12.118105 4.4369342,12.8905521 4.81963591,13.5698672 C5.16953462,14.1943988 5.56863784,14.7093635 6.00054406,15.1038045 C4.02142948,14.545013 2.34847626,13.1754261 1.41905781,11.2853962 Z M7.8703153,15.3503302 C6.95183118,15.2078931 6.08255157,14.4737945 5.39368848,13.2466446 C5.07112561,12.6659398 4.80323441,12.0030597 4.60094922,11.2853962 L7.8703153,11.2853962 L7.8703153,15.3503302 Z M7.8703153,4.75520577 L4.56267905,4.75520577 C5.16406746,2.48169149 6.39418011,0.892970669 7.8703153,0.690271806 L7.8703153,4.75520577 Z M14.5730625,4.75520577 L12.5119404,4.75520577 C12.2877865,3.8622351 11.9706908,3.05143965 11.5715876,2.3556895 C11.3091636,1.90098664 11.0139365,1.50654561 10.6968408,1.17784475 C12.3643269,1.83524647 13.7529874,3.09526643 14.5730625,4.75520577 Z M8.52637538,0.690271806 C10.0025106,0.898449017 11.2271561,2.48169149 11.8340116,4.75520577 L8.52637538,4.75520577 L8.52637538,0.690271806 Z M8.52637538,5.41260749 L11.9870923,5.41260749 C12.1511073,6.2179246 12.238582,7.09446022 12.238582,8.02030098 C12.238582,8.9077933 12.140173,9.79528562 11.9597565,10.6279945 L8.52637538,10.6279945 L8.52637538,5.41260749 Z M8.52637538,15.3503302 L8.52637538,11.2853962 L11.7957415,11.2853962 C11.5934563,12.0030597 11.3255651,12.6659398 11.0030022,13.2466446 C10.3086719,14.4737945 9.43939233,15.2078931 8.52637538,15.3503302 Z M10.8061842,14.8189304 C10.7405782,14.8463222 10.669505,14.8737139 10.603899,14.9011056 C10.9537977,14.5395347 11.2818277,14.0957885 11.5770548,13.5698672 C11.9597565,12.8905521 12.2659179,12.118105 12.4846046,11.2853962 L14.5785297,11.2853962 C13.7857904,12.8850737 12.4627359,14.1286586 10.8061842,14.8189304 Z M14.8573552,10.6279945 L14.851888,10.6279945 L12.6322181,10.6279945 C12.8017003,9.79528562 12.8891749,8.91327165 12.8891749,8.02030098 C12.8891749,7.11089527 12.8071674,6.23435964 12.6486196,5.41260749 L14.851888,5.41260749 C15.5024809,7.09993857 15.5024809,8.93518504 14.8573552,10.6279945 Z" id="Shape"></path>
                    </g>
                </g>
            </g>
        </g>
    </g>
</svg>