<svg width="24" height="25" viewBox="0 0 24 25" fill="none" xmlns="http://www.w3.org/2000/svg">
<path fill-rule="evenodd" clip-rule="evenodd" d="M22.4574 21.5921L19.5479 14.8935C20.5762 13.4449 21.18 11.6869 21.18 9.79331C21.18 4.85259 17.0733 0.833008 12.0253 0.833008C6.97749 0.833008 2.87068 4.85259 2.87068 9.79326C2.87068 11.6869 3.4745 13.4448 4.50283 14.8934L1.59329 21.5921C1.45401 21.9127 1.47816 22.2205 1.65961 22.4365C1.84106 22.6526 2.14498 22.7352 2.49326 22.6637L4.71533 22.2064C4.97799 22.1524 5.34702 22.3059 5.48957 22.5286L6.69494 24.412C6.87222 24.6889 7.12224 24.844 7.38768 24.844C7.40522 24.844 7.42285 24.8433 7.44053 24.842C7.72543 24.8199 7.96859 24.6234 8.10793 24.3028L10.5678 18.6395C11.0426 18.7141 11.5293 18.7535 12.0253 18.7535C12.5213 18.7535 13.0081 18.7141 13.4828 18.6395L15.9428 24.3028C16.0821 24.6234 16.3253 24.8199 16.6102 24.842C16.6279 24.8433 16.6455 24.844 16.6631 24.844C16.9284 24.844 17.1785 24.6889 17.3558 24.412L18.5611 22.5286C18.7037 22.3059 19.0727 22.1522 19.3354 22.2064L21.5574 22.6636C21.9058 22.7352 22.2097 22.6525 22.3911 22.4365C22.5725 22.2205 22.5967 21.9127 22.4574 21.5921ZM3.79327 21.6163L2.33285 21.9169C2.32001 21.9195 2.30841 21.9215 2.29801 21.9229C2.30146 21.9132 2.30558 21.9025 2.31081 21.8906L5.04852 15.5875C5.34185 15.9254 5.66019 16.2418 6.00081 16.5339L3.79327 21.6163ZM4.71791 21.4381L6.63285 17.0292C7.0141 17.3022 7.41739 17.5472 7.83999 17.7608L6.01897 21.9533C5.7036 21.6075 5.18809 21.4023 4.71791 21.4381ZM7.39042 24.0042C7.38529 24.0161 7.38031 24.0265 7.37551 24.0356C7.36933 24.0273 7.36272 24.0178 7.35577 24.0069L6.5328 22.721L8.54802 18.0813C8.94829 18.2429 9.36261 18.3774 9.7888 18.4826L7.39042 24.0042ZM12.0253 17.9904C7.40733 17.9904 3.65034 14.3132 3.65034 9.79331C3.65034 5.27339 7.40738 1.59611 12.0253 1.59611C16.6433 1.59611 20.4004 5.27334 20.4004 9.79331C20.4004 14.3133 16.6434 17.9904 12.0253 17.9904ZM16.6949 24.0069C16.688 24.0178 16.6814 24.0273 16.6752 24.0356C16.6704 24.0264 16.6654 24.016 16.6603 24.0042L14.262 18.4825C14.6882 18.3774 15.1025 18.2428 15.5027 18.0813L17.518 22.7209L16.6949 24.0069ZM18.0317 21.9533L16.2107 17.7608C16.6333 17.5472 17.0366 17.3022 17.4178 17.0293L19.3328 21.438C18.8626 21.4021 18.3472 21.6074 18.0317 21.9533ZM21.7178 21.9169L20.2574 21.6163L18.0498 16.534C18.3905 16.2419 18.7088 15.9254 19.0021 15.5876L21.7398 21.8906C21.745 21.9025 21.7492 21.9132 21.7526 21.9229C21.7423 21.9215 21.7307 21.9196 21.7178 21.9169Z" fill="#E54B2D"/>
<path fill-rule="evenodd" clip-rule="evenodd" d="M12.0254 4.96448C9.30499 4.96448 7.0918 7.13067 7.0918 9.79325C7.0918 12.4558 9.30499 14.622 12.0254 14.622C14.7458 14.622 16.959 12.4558 16.959 9.79325C16.959 7.13067 14.7458 4.96448 12.0254 4.96448ZM12.0254 13.8589C9.73488 13.8589 7.87145 12.0351 7.87145 9.7933C7.87145 7.55147 9.73488 5.72762 12.0254 5.72762C14.3158 5.72762 16.1794 7.55147 16.1794 9.7933C16.1794 12.035 14.3159 13.8589 12.0254 13.8589Z" fill="#E54B2D"/>
<path fill-rule="evenodd" clip-rule="evenodd" d="M12.0254 2.98413C8.18926 2.98413 5.06842 6.03868 5.06842 9.79329C5.06842 13.5479 8.18926 16.6024 12.0254 16.6024C15.8614 16.6024 18.9824 13.5479 18.9824 9.79329C18.9824 6.03868 15.8614 2.98413 12.0254 2.98413ZM12.0254 15.8393C8.61914 15.8393 5.84803 13.1271 5.84803 9.79325C5.84803 6.45943 8.61914 3.74713 12.0254 3.74713C15.4316 3.74713 18.2027 6.45939 18.2027 9.79325C18.2027 13.1271 15.4316 15.8393 12.0254 15.8393Z" fill="#E54B2D"/>
</svg>
