<?xml version="1.0" encoding="UTF-8" standalone="no"?>
<svg width="28px" height="32px" viewBox="0 0 28 32" version="1.1" xmlns="http://www.w3.org/2000/svg" xmlns:xlink="http://www.w3.org/1999/xlink">
    <!-- Generator: Sketch 41.2 (35397) - http://www.bohemiancoding.com/sketch -->
    <title>quality</title>
    <desc>Created with Sketch.</desc>
    <defs></defs>
    <g id="Кейсы-под-заказ" stroke="none" stroke-width="1" fill="none" fill-rule="evenodd">
        <g id="zakaz-1400" transform="translate(-810.000000, -1265.000000)" fill="#0099C5">
            <g id="sostav" transform="translate(209.000000, 970.000000)">
                <g id="+" transform="translate(304.000000, 0.000000)">
                    <g id="1-copy-3" transform="translate(281.000000, 281.000000)">
                        <g id="ico1">
                            <g id="quality" transform="translate(16.000000, 14.000000)">
                                <g id="Layer_1">
                                    <g id="Group">
                                        <path d="M27.8552273,27.6122573 L23.9909727,18.7022222 C25.3567364,16.775423 26.1586818,14.437115 26.1586818,11.918347 C26.1586818,5.3465575 20.7043455,0 14,0 C7.29578182,0 1.84138182,5.3465575 1.84138182,11.9182846 C1.84138182,14.437115 2.64332727,16.7752982 4.00909091,18.7020975 L0.144836364,27.6121949 C-0.0401545455,28.0386745 -0.00808181818,28.4480624 0.232909091,28.7354386 C0.4739,29.0228148 0.877545455,29.1327875 1.34011818,29.0375984 L4.29131818,28.4294113 C4.64017273,28.3574893 5.1303,28.5617154 5.31961818,28.8578869 L6.92051818,31.3631189 C7.15597273,31.7313996 7.48802727,31.9376842 7.84057273,31.9376842 C7.86386364,31.9376842 7.88728182,31.9367485 7.91076364,31.9350019 C8.28914545,31.9056218 8.6121,31.6443197 8.79715455,31.2177778 L12.0642455,23.6848655 C12.6948182,23.7841715 13.3412364,23.8365068 14,23.8365068 C14.6587636,23.8365068 15.3051818,23.7841715 15.9357545,23.6848655 L19.2029091,31.2177778 C19.3879,31.6442573 19.7109818,31.9056842 20.0893636,31.9350019 C20.1128455,31.9367485 20.1362636,31.9376842 20.1595545,31.9376842 C20.5119727,31.9376842 20.8441545,31.731462 21.0795455,31.3631189 L22.6803818,28.8578869 C22.8697636,28.561653 23.3598273,28.3572398 23.7088091,28.4293489 L26.6598818,29.0375361 C27.1225818,29.1327251 27.5261636,29.0227524 27.7671545,28.7353762 C28.0080818,28.4480624 28.0402182,28.0386745 27.8552273,27.6122573 Z M3.0667,27.6445068 L1.12706364,28.0442261 C1.11000909,28.0477817 1.09460909,28.0504016 1.0808,28.0522105 C1.08538182,28.0393606 1.09085455,28.025076 1.09779091,28.0092943 L4.73384545,19.6254191 C5.12342727,20.0747914 5.54622727,20.4956569 5.99861818,20.8842105 L3.0667,27.6445068 Z M4.29475455,27.4074074 L6.83804545,21.5430487 C7.3444,21.9060897 7.88002727,22.232078 8.4413,22.5160858 L6.02273636,28.092694 C5.60388182,27.6327797 4.91921818,27.3598129 4.29475455,27.4074074 Z M7.8442,30.8206784 C7.83739091,30.83646 7.83077273,30.850308 7.82440909,30.8624717 C7.8162,30.8514308 7.80741818,30.838768 7.79819091,30.8242963 L6.70517273,29.1138246 L9.38165455,22.9425029 C9.91327273,23.1573333 10.4635364,23.3362963 11.0295818,23.4762105 L7.8442,30.8206784 Z M14,22.8215517 C7.86666364,22.8215517 2.87687273,17.9304172 2.87687273,11.918347 C2.87687273,5.9062768 7.86672727,1.01501754 14,1.01501754 C20.1332727,1.01501754 25.1232545,5.90621442 25.1232545,11.918347 C25.1232545,17.9304795 20.1334,22.8215517 14,22.8215517 Z M20.2018727,30.8242339 C20.1926455,30.838768 20.1838636,30.8513684 20.1756545,30.8624094 C20.1692909,30.8502456 20.1626727,30.8363353 20.1558636,30.820616 L16.9705455,23.4760858 C17.5365909,23.3362963 18.0868545,23.1572086 18.6184727,22.9423782 L21.2949545,29.1136998 L20.2018727,30.8242339 Z M21.9773273,28.092694 L19.5587636,22.5160858 C20.1200364,22.232078 20.6556,21.9060897 21.1619545,21.5431111 L23.7053727,27.407345 C23.0807818,27.359501 22.3962455,27.632655 21.9773273,28.092694 Z M26.8728727,28.0442261 L24.9333,27.6445068 L22.0012545,20.8842729 C22.4538364,20.4957817 22.8765091,20.0748538 23.2660909,19.6254815 L26.9021455,28.0093567 C26.9090818,28.025076 26.9145545,28.0393606 26.9190727,28.0522729 C26.9053909,28.0504016 26.8899909,28.0478441 26.8728727,28.0442261 Z" id="Shape"></path>
                                        <path d="M14,5.49539181 C10.3869818,5.49539181 7.44755455,8.37670175 7.44755455,11.9182846 C7.44755455,15.4598674 10.3869818,18.341115 14,18.341115 C17.6130818,18.341115 20.5525091,15.4598674 20.5525091,11.9182846 C20.5525091,8.37670175 17.6130818,5.49539181 14,5.49539181 Z M14,17.3261598 C10.9579273,17.3261598 8.48304545,14.9002105 8.48304545,11.918347 C8.48304545,8.93642105 10.9579273,6.51047173 14,6.51047173 C17.0420727,6.51047173 19.5170818,8.93642105 19.5170818,11.918347 C19.5170818,14.9001481 17.0421364,17.3261598 14,17.3261598 Z" id="Shape"></path>
                                        <path d="M14,2.86122417 C8.90514545,2.86122417 4.76025455,6.92416374 4.76025455,11.9182846 C4.76025455,16.9123431 8.90514545,20.9752827 14,20.9752827 C19.0948545,20.9752827 23.2398727,16.9123431 23.2398727,11.9182846 C23.2398727,6.92416374 19.0948545,2.86122417 14,2.86122417 Z M14,19.9602651 C9.47609091,19.9602651 5.79568182,16.3526862 5.79568182,11.9182222 C5.79568182,7.48382066 9.47609091,3.87611696 14,3.87611696 C18.5239091,3.87611696 22.2043818,7.48375828 22.2043818,11.9182222 C22.2043818,16.3526862 18.5239091,19.9602651 14,19.9602651 Z" id="Shape"></path>
                                    </g>
                                </g>
                            </g>
                        </g>
                    </g>
                </g>
            </g>
        </g>
    </g>
</svg>