<svg width="18" height="19" viewBox="0 0 18 19" fill="none" xmlns="http://www.w3.org/2000/svg">
<g clip-path="url(#clip0_1_37)">
<path fill-rule="evenodd" clip-rule="evenodd" d="M17.7605 17.1034L13.1171 12.46C14.1249 11.2002 14.7273 9.60227 14.7273 7.86364C14.7273 3.79686 11.4306 0.5 7.36364 0.5C3.29686 0.5 0 3.79686 0 7.86364C0 11.9304 3.29686 15.2273 7.36364 15.2273C9.10227 15.2273 10.7002 14.6247 11.96 13.6169L16.6034 18.2603C16.7631 18.42 16.9726 18.5 17.1818 18.5C17.3913 18.5 17.6007 18.42 17.7605 18.2603C18.08 17.941 18.08 17.4227 17.7605 17.1034ZM7.36364 13.5909C4.20055 13.5909 1.63636 11.0267 1.63636 7.86364C1.63636 4.70055 4.20055 2.13636 7.36364 2.13636C10.5269 2.13636 13.0909 4.70055 13.0909 7.86364C13.0909 11.0267 10.5269 13.5909 7.36364 13.5909Z" fill="white"/>
</g>
<defs>
<clipPath id="clip0_1_37">
<rect width="18" height="18" fill="white" transform="translate(0 0.5)"/>
</clipPath>
</defs>
</svg>
