<?xml version="1.0" encoding="UTF-8" standalone="no"?>
<svg width="16px" height="16px" viewBox="0 0 16 16" version="1.1" xmlns="http://www.w3.org/2000/svg" xmlns:xlink="http://www.w3.org/1999/xlink">
    <!-- Generator: Sketch 41.2 (35397) - http://www.bohemiancoding.com/sketch -->
    <title>Layer_1</title>
    <desc>Created with Sketch.</desc>
    <defs></defs>
    <g id="Symbols" stroke="none" stroke-width="1" fill="none" fill-rule="evenodd">
        <g id="header" transform="translate(-985.000000, -82.000000)" fill="#FFFFFF">
            <g id="header-copy">
                <g id="head">
                    <g id="search" transform="translate(985.000000, 82.000000)">
                        <g id="Layer_1">
                            <path d="M15.7870909,14.7585455 L11.6596364,10.6310909 C12.5554545,9.51127273 13.0909091,8.09090909 13.0909091,6.54545455 C13.0909091,2.93054545 10.1605455,0 6.54545455,0 C2.93054545,0 0,2.93054545 0,6.54545455 C0,10.1603636 2.93054545,13.0909091 6.54545455,13.0909091 C8.09090909,13.0909091 9.51127273,12.5552727 10.6310909,11.6594545 L14.7585455,15.7869091 C14.9005455,15.9289091 15.0867273,16 15.2727273,16 C15.4589091,16 15.6450909,15.9289091 15.7870909,15.7869091 C16.0710909,15.5030909 16.0710909,15.0423636 15.7870909,14.7585455 Z M6.54545455,11.6363636 C3.73381818,11.6363636 1.45454545,9.35709091 1.45454545,6.54545455 C1.45454545,3.73381818 3.73381818,1.45454545 6.54545455,1.45454545 C9.35727273,1.45454545 11.6363636,3.73381818 11.6363636,6.54545455 C11.6363636,9.35709091 9.35727273,11.6363636 6.54545455,11.6363636 Z" id="Shape"></path>
                        </g>
                    </g>
                </g>
            </g>
        </g>
    </g>
</svg>