<?xml version="1.0" encoding="UTF-8" standalone="no"?>
<svg width="38px" height="49px" viewBox="0 0 38 49" version="1.1" xmlns="http://www.w3.org/2000/svg" xmlns:xlink="http://www.w3.org/1999/xlink">
    <!-- Generator: Sketch 41.2 (35397) - http://www.bohemiancoding.com/sketch -->
    <title>shield</title>
    <desc>Created with Sketch.</desc>
    <defs></defs>
    <g id="Кейсы-под-заказ" stroke="none" stroke-width="1" fill="none" fill-rule="evenodd">
        <g id="zakaz-1400" transform="translate(-250.000000, -821.000000)" fill="#0099C5">
            <g id="form" transform="translate(226.000000, 678.000000)">
                <g id="+" transform="translate(0.000000, 120.000000)">
                    <g transform="translate(0.000000, 1.000000)" id="ico1">
                        <g>
                            <g id="shield" transform="translate(24.000000, 22.000000)">
                                <g id="Layer_1">
                                    <g id="Group">
                                        <g id="Shape">
                                            <g>
                                                <path d="M37.1062284,6.53336523 C25.0902234,6.53336523 19.7407107,0.408365234 19.6583452,0.326730469 C19.4938071,0.0816347656 19.2469036,0 19,0 C18.7530964,0 18.5061929,0.0816347656 18.3415584,0.326634766 C18.3415584,0.326634766 12.9096802,6.53326953 0.893675127,6.53326953 C0.39986802,6.53326953 0.0706954315,6.8599043 0.0706954315,7.3499043 L0.0706954315,22.9482695 C0.0706954315,31.4416348 3.93888325,39.5266348 10.3583756,44.5899043 C12.9920457,46.6315391 15.7902538,48.1015391 18.7530964,48.9999043 L19,48.9999043 L19.2469036,48.9999043 C22.2097462,48.1015391 25.0079543,46.6315391 27.6416244,44.5899043 C34.0611168,39.5265391 37.9293046,31.4415391 37.9293046,22.9482695 L37.9293046,7.35 C37.9293046,6.86 37.6000355,6.53336523 37.1062284,6.53336523 Z M36.2832487,22.9483652 C36.2832487,30.9517305 32.6619645,38.5467305 26.5717411,43.2833652 C24.1849746,45.08 21.6336701,46.4683652 19,47.285 C16.3663299,46.4683652 13.8150254,45.1616348 11.4282589,43.2833652 C5.33803553,38.5466348 1.71675127,30.9516348 1.71675127,22.9483652 L1.71675127,8.16663477 C11.7575279,7.92163477 17.2716751,3.675 19,1.96 C20.7283249,3.675 26.2424721,7.92163477 36.2832487,8.16663477 L36.2832487,22.9483652 Z"></path>
                                            </g>
                                        </g>
                                    </g>
                                </g>
                            </g>
                        </g>
                    </g>
                </g>
            </g>
        </g>
    </g>
</svg>