<?xml version="1.0" encoding="UTF-8" standalone="no"?>
<svg width="17px" height="24px" viewBox="0 0 17 24" version="1.1" xmlns="http://www.w3.org/2000/svg" xmlns:xlink="http://www.w3.org/1999/xlink">
    <!-- Generator: Sketch 41.2 (35397) - http://www.bohemiancoding.com/sketch -->
    <title>Shopping_cart</title>
    <desc>Created with Sketch.</desc>
    <defs></defs>
    <g id="Symbols" stroke="none" stroke-width="1" fill="none" fill-rule="evenodd">
        <g id="card/hover" transform="translate(-121.000000, -324.000000)" fill="#FFFFFF">
            <g id="button">
                <g transform="translate(112.000000, 317.000000)">
                    <g id="Shopping_cart" transform="translate(9.150000, 7.740181)">
                        <g id="shopping-cart" transform="translate(0.000000, 8.000000)">
                            <g id="Capa_1">
                                <path d="M15.6530133,2.19276753 L2.97072,2.19276753 C2.94602667,2.19276753 2.92378667,2.20239852 2.90042667,2.20771218 L2.38458667,0.430129151 C2.37877333,0.410922509 2.3664,0.396697417 2.35818667,0.378929889 C2.34410667,0.196107011 2.20053333,0.0513099631 2.02090667,0.0513099631 L2.01952,0.0513099631 L0.341386667,0.0587269373 C0.15184,0.0598339483 -0.000693333333,0.219907749 -2.92743603e-14,0.416236162 C0.000693333333,0.612232472 0.15392,0.770535055 0.342773333,0.770535055 L0.34416,0.770535055 L1.7656,0.764114391 L5.04688,12.0659779 C4.72090667,12.3751107 4.51285333,12.8154797 4.51285333,13.3095941 C4.51285333,14.2426937 5.24154667,14.9992804 6.14096,14.9992804 C7.04005333,14.9992804 7.76906667,14.2426384 7.76906667,13.3095941 C7.76906667,13.0662731 7.71765333,12.8364576 7.62853333,12.6276753 L12.3655467,12.6276753 C12.2764267,12.8365129 12.2250133,13.0662731 12.2250133,13.3095941 C12.2250133,14.2426937 12.9537067,14.9992804 13.85312,14.9992804 C14.7522133,14.9992804 15.4812267,14.2426384 15.4812267,13.3095941 C15.4812267,12.3765498 14.75216,11.6199077 13.85312,11.6199077 C13.5117333,11.6199077 13.19536,11.7298339 12.9334933,11.9162546 L7.06026667,11.9162546 C6.7984,11.7298339 6.48234667,11.6199077 6.14096,11.6199077 C5.97130667,11.6199077 5.81088,11.6543911 5.65696,11.7042066 L5.16746667,10.0187823 L13.8030933,10.0116421 C13.95424,10.0116421 14.0786667,9.90813653 14.1239467,9.76688192 C14.1356267,9.74446494 14.1482667,9.72276753 14.1551467,9.69714022 L15.9830933,2.70138376 C15.9947733,2.65693727 15.9961067,2.61243542 15.9913067,2.56942804 C15.9916267,2.56195572 15.9954133,2.55592251 15.9954133,2.54878229 C15.9957867,2.35212177 15.84224,2.19276753 15.6530133,2.19276753 Z M13.8534933,12.3310517 C14.37344,12.3310517 14.7961067,12.7696494 14.7961067,13.3093173 C14.7961067,13.8489299 14.3734933,14.287583 13.8534933,14.287583 C13.3334933,14.287583 12.91088,13.8489852 12.91088,13.3093173 C12.9109333,12.7696494 13.3335467,12.3310517 13.8534933,12.3310517 Z M6.14133333,12.3310517 C6.66133333,12.3310517 7.08394667,12.7696494 7.08394667,13.3093173 C7.08394667,13.8489299 6.66133333,14.287583 6.14133333,14.287583 C5.62133333,14.287583 5.19872,13.8489852 5.19872,13.3093173 C5.19872,12.7696494 5.62133333,12.3310517 6.14133333,12.3310517 Z M13.5488,9.30055351 L4.96154667,9.30769373 L3.10272,2.90457565 L15.2201067,2.90457565 L13.5488,9.30055351 Z" id="Shape"></path>
                            </g>
                        </g>
                        <g id="arrow-down" transform="translate(6.313636, 0.000000)">
                            <g id="Layer_1">
                                <path d="M2.37902098,0.387009063 L2.37902098,6.41893233 L0.580141259,4.37049335 C0.447425874,4.21936631 0.232294406,4.21936631 0.099579021,4.37049335 C-0.0331363636,4.52162039 -0.0331363636,4.76669388 0.099579021,4.91782092 L2.4786,7.62688437 C2.61131538,7.7780114 2.82653182,7.7780114 2.95916224,7.62688437 L5.33818322,4.91782092 C5.40454091,4.8422574 5.43776224,4.74318308 5.43776224,4.64410876 C5.43776224,4.54513119 5.40454091,4.44605687 5.33818322,4.37049335 C5.20546783,4.21936631 4.9902514,4.21936631 4.85762098,4.37049335 L3.05874126,6.41893233 L3.05874126,0.387009063 C3.05874126,0.17338006 2.90656888,0 2.71888112,0 C2.53119336,0 2.37902098,0.173283308 2.37902098,0.387009063 Z" id="Shape"></path>
                            </g>
                        </g>
                    </g>
                </g>
            </g>
        </g>
    </g>
</svg>