<svg width="26" height="24" viewBox="0 0 26 24" fill="none" xmlns="http://www.w3.org/2000/svg">
<g clip-path="url(#clip0_1_48)">
<path fill-rule="evenodd" clip-rule="evenodd" d="M24.9578 4.16223H5.14175C5.10317 4.16223 5.06842 4.177 5.03192 4.18515L4.22592 1.45952C4.21684 1.43007 4.1975 1.40826 4.18467 1.38101C4.16267 1.10068 3.93834 0.878662 3.65767 0.878662H3.6555L1.03342 0.890035C0.737254 0.891732 0.49892 1.13718 0.500004 1.43822C0.501087 1.73874 0.740504 1.98147 1.03559 1.98147H1.03775L3.25875 1.97163L8.38575 19.3012C7.87642 19.7752 7.55134 20.4504 7.55134 21.208C7.55134 22.6388 8.68992 23.7989 10.0953 23.7989C11.5001 23.7989 12.6392 22.6387 12.6392 21.208C12.6392 20.8349 12.5588 20.4826 12.4196 20.1624H19.8212C19.6819 20.4826 19.6016 20.8349 19.6016 21.208C19.6016 22.6388 20.7402 23.7989 22.1455 23.7989C23.5503 23.7989 24.6894 22.6387 24.6894 21.208C24.6894 19.7774 23.5503 18.6172 22.1455 18.6172C21.6121 18.6172 21.1178 18.7857 20.7086 19.0716H11.5317C11.1225 18.7857 10.6287 18.6172 10.0953 18.6172C9.83017 18.6172 9.5795 18.6701 9.339 18.7464L8.57417 16.1621L22.0673 16.1512C22.3035 16.1512 22.4979 15.9925 22.5687 15.7759C22.5869 15.7415 22.6067 15.7082 22.6174 15.6689L25.4736 4.94211C25.4918 4.87396 25.4939 4.80572 25.4864 4.73978C25.4869 4.72832 25.4928 4.71907 25.4928 4.70812C25.4934 4.40657 25.2535 4.16223 24.9578 4.16223ZM22.1461 19.7076C22.9585 19.7076 23.6189 20.3801 23.6189 21.2076C23.6189 22.035 22.9586 22.7076 22.1461 22.7076C21.3336 22.7076 20.6733 22.0351 20.6733 21.2076C20.6733 20.3801 21.3337 19.7076 22.1461 19.7076ZM10.0958 19.7076C10.9083 19.7076 11.5687 20.3801 11.5687 21.2076C11.5687 22.035 10.9083 22.7076 10.0958 22.7076C9.28334 22.7076 8.623 22.0351 8.623 21.2076C8.623 20.3801 9.28334 19.7076 10.0958 19.7076ZM21.67 15.0608L8.25242 15.0718L5.348 5.25367H24.2814L21.67 15.0608Z" fill="white"/>
</g>
<defs>
<clipPath id="clip0_1_48">
<rect width="25" height="23" fill="white" transform="translate(0.5 0.799988)"/>
</clipPath>
</defs>
</svg>
