<?xml version="1.0" encoding="UTF-8" standalone="no"?>
<svg width="11px" height="19px" viewBox="0 0 11 19" version="1.1" xmlns="http://www.w3.org/2000/svg" xmlns:xlink="http://www.w3.org/1999/xlink">
    <!-- Generator: Sketch 41.2 (35397) - http://www.bohemiancoding.com/sketch -->
    <title>Shopping_cart</title>
    <desc>Created with Sketch.</desc>
    <defs></defs>
    <g id="Листинг" stroke="none" stroke-width="1" fill="none" fill-rule="evenodd">
        <g id="listing-2-1400" transform="translate(-1073.000000, -617.000000)" fill="#FFFFFF">
            <g id="listing" transform="translate(489.000000, 263.000000)">
                <g id="card/hover" transform="translate(1.000000, 304.000000)">
                    <g id="card/desktop/line">
                        <g id="button" transform="translate(572.000000, 43.000000)">
                            <g id="Shopping_cart" transform="translate(11.000000, 7.000000)">
                                <path d="M7.94444444,17.7777778 C7.94444444,18.4524444 8.49077778,19 9.16666667,19 C9.84133333,19 10.3888889,18.4524444 10.3888889,17.7777778 C10.3888889,17.1018889 9.84133333,16.5555556 9.16666667,16.5555556 C8.49077778,16.5555556 7.94444444,17.1018889 7.94444444,17.7777778 Z M1.83333333,17.7777778 C1.83333333,18.4524444 2.38027778,19 3.05555556,19 C3.72961111,19 4.27777778,18.4524444 4.27777778,17.7777778 C4.27777778,17.1018889 3.72961111,16.5555556 3.05555556,16.5555556 C2.38027778,16.5555556 1.83333333,17.1018889 1.83333333,17.7777778 Z M4.00094444,14.8273333 L10.7647222,12.895 C10.8936667,12.8577222 11,12.7183889 11,12.5833333 L11,9.22222222 L2.44444444,9.22222222 L2.44444444,8.24444444 C2.44444444,8.11 2.33383333,8 2.20061111,8 L0.243833333,8 C0.11,8 0,8.11 0,8.24444444 L0,9.22222222 L1.22222222,9.22222222 L2.38944444,14.6959444 L2.44444444,15.2722222 L2.44444444,16.2799444 C2.44444444,16.4137778 2.55444444,16.5243889 2.68888889,16.5243889 L10.7555556,16.5243889 C10.89,16.5243889 11,16.4131667 11,16.2799444 L11,15.3333333 L4.12622222,15.3333333 C3.42344444,15.3333333 3.40877778,14.9966111 4.00094444,14.8273333 Z" id="Shape"></path>
                                <g id="arrow-down" transform="translate(3.000000, 0.000000)">
                                    <g id="Layer_1">
                                        <path d="M2.15384615,0.35 L2.15384615,5.8051 L0.525230769,3.95255 C0.405076923,3.815875 0.210307692,3.815875 0.0901538462,3.95255 C-0.03,4.089225 -0.03,4.3108625 0.0901538462,4.4475375 L2.244,6.8975375 C2.36415385,7.0342125 2.559,7.0342125 2.67907692,6.8975375 L4.83292308,4.4475375 C4.893,4.3792 4.92307692,4.2896 4.92307692,4.2 C4.92307692,4.1104875 4.893,4.0208875 4.83292308,3.95255 C4.71276923,3.815875 4.51792308,3.815875 4.39784615,3.95255 L2.76923077,5.8051 L2.76923077,0.35 C2.76923077,0.1568 2.63146154,0 2.46153846,0 C2.29161538,0 2.15384615,0.1567125 2.15384615,0.35 Z" id="Shape"></path>
                                    </g>
                                </g>
                            </g>
                        </g>
                    </g>
                </g>
            </g>
        </g>
    </g>
</svg>