<?xml version="1.0" encoding="UTF-8" standalone="no"?>
<svg width="25px" height="23px" viewBox="0 0 25 23" version="1.1" xmlns="http://www.w3.org/2000/svg" xmlns:xlink="http://www.w3.org/1999/xlink">
    <!-- Generator: Sketch 41.2 (35397) - http://www.bohemiancoding.com/sketch -->
    <title>shopping cart</title>
    <desc>Created with Sketch.</desc>
    <defs></defs>
    <g id="Symbols" stroke="none" stroke-width="1" fill="none" fill-rule="evenodd">
        <g id="header" transform="translate(-1152.000000, -79.000000)" fill="#FFFFFF">
            <g id="header-copy">
                <g id="head">
                    <g id="shopping-cart" transform="translate(1140.000000, 64.000000)">
                        <g transform="translate(12.000000, 15.000000)" id="Capa_1">
                            <g>
                                <path d="M24.4578333,3.36224354 L4.64175,3.36224354 C4.60316667,3.36224354 4.56841667,3.37701107 4.53191667,3.38515867 L3.72591667,0.659531365 C3.71683333,0.630081181 3.6975,0.608269373 3.68466667,0.58102583 C3.66266667,0.300697417 3.43833333,0.0786752768 3.15766667,0.0786752768 L3.1555,0.0786752768 L0.533416667,0.0900479705 C0.23725,0.0917453875 -0.00108333333,0.337191882 3.99680331e-15,0.638228782 C0.00108333333,0.938756458 0.2405,1.18148708 0.535583333,1.18148708 L0.53775,1.18148708 L2.75875,1.17164207 L7.88575,18.5011661 C7.37641667,18.9751697 7.05133333,19.6504022 7.05133333,20.4080443 C7.05133333,21.838797 8.18991667,22.9988967 9.59525,22.9988967 C11.0000833,22.9988967 12.1391667,21.8387122 12.1391667,20.4080443 C12.1391667,20.034952 12.0588333,19.6825683 11.9195833,19.3624354 L19.3211667,19.3624354 C19.1819167,19.6826531 19.1015833,20.034952 19.1015833,20.4080443 C19.1015833,21.838797 20.2401667,22.9988967 21.6455,22.9988967 C23.0503333,22.9988967 24.1894167,21.8387122 24.1894167,20.4080443 C24.1894167,18.9773764 23.05025,17.8171919 21.6455,17.8171919 C21.1120833,17.8171919 20.61775,17.9857454 20.2085833,18.2715904 L11.0316667,18.2715904 C10.6225,17.9857454 10.1286667,17.8171919 9.59525,17.8171919 C9.33016667,17.8171919 9.0795,17.8700664 8.839,17.9464502 L8.07416667,15.3621328 L21.5673333,15.3511845 C21.8035,15.3511845 21.9979167,15.192476 22.0686667,14.9758856 C22.0869167,14.9415129 22.1066667,14.9082435 22.1174167,14.8689483 L24.9735833,4.14212177 C24.9918333,4.07397048 24.9939167,4.00573432 24.9864167,3.93978967 C24.9869167,3.9283321 24.9928333,3.91908118 24.9928333,3.90813284 C24.9934167,3.60658672 24.7535,3.36224354 24.4578333,3.36224354 Z M21.6460833,18.9076125 C22.4585,18.9076125 23.1189167,19.5801292 23.1189167,20.4076199 C23.1189167,21.2350258 22.4585833,21.9076273 21.6460833,21.9076273 C20.8335833,21.9076273 20.17325,21.2351107 20.17325,20.4076199 C20.1733333,19.5801292 20.8336667,18.9076125 21.6460833,18.9076125 Z M9.59583333,18.9076125 C10.4083333,18.9076125 11.0686667,19.5801292 11.0686667,20.4076199 C11.0686667,21.2350258 10.4083333,21.9076273 9.59583333,21.9076273 C8.78333333,21.9076273 8.123,21.2351107 8.123,20.4076199 C8.123,19.5801292 8.78333333,18.9076125 9.59583333,18.9076125 Z M21.17,14.2608487 L7.75241667,14.271797 L4.848,4.45368266 L23.7814167,4.45368266 L21.17,14.2608487 Z" id="Shape"></path>
                            </g>
                        </g>
                    </g>
                </g>
            </g>
        </g>
    </g>
</svg>