<?xml version="1.0" encoding="UTF-8" standalone="no"?>
<svg width="36px" height="32px" viewBox="0 0 36 32" version="1.1" xmlns="http://www.w3.org/2000/svg" xmlns:xlink="http://www.w3.org/1999/xlink">
    <!-- Generator: Sketch 41.2 (35397) - http://www.bohemiancoding.com/sketch -->
    <title>snowflake-3</title>
    <desc>Created with Sketch.</desc>
    <defs></defs>
    <g id="Листинг-кабель-канал" stroke="none" stroke-width="1" fill="none" fill-rule="evenodd">
        <g id="listing-cabel-1400" transform="translate(-499.000000, -327.000000)" fill="#0099C5">
            <g id="listing" transform="translate(489.000000, 263.000000)">
                <g id="+" transform="translate(2.000000, 48.000000)">
                    <g id="ico1">
                        <g>
                            <g id="snowflake-3" transform="translate(8.000000, 16.000000)">
                                <g id="Capa_1">
                                    <path d="M35.285,15.398 L31.764,15.398 L32.825,13.56 C32.963,13.321 32.881,13.015 32.641,12.875 C32.399,12.737 32.096,12.819 31.957,13.06 L30.609,15.398 L27.928,15.398 L30.657,10.669 C30.795,10.431 30.713,10.124 30.473,9.986 C30.235,9.844 29.928,9.928 29.789,10.169 L26.769,15.398 L22.621,15.398 L25.398,11.602 L20.646,12.12 L22.761,8.456 L28.801,8.456 C29.076,8.456 29.301,8.231 29.301,7.956 C29.301,7.679 29.076,7.456 28.801,7.456 L23.338,7.456 L24.679,5.138 L27.379,5.138 C27.653,5.138 27.879,4.913 27.879,4.638 C27.879,4.362 27.653,4.138 27.379,4.138 L25.254,4.138 L27.019,1.085 C27.157,0.845 27.075,0.54 26.834,0.401 C26.6,0.26 26.292,0.344 26.154,0.585 L24.39,3.636 L23.33,1.798 C23.191,1.559 22.885,1.475 22.646,1.614 C22.408,1.753 22.326,2.057 22.463,2.298 L23.814,4.636 L22.476,6.954 L19.746,2.226 C19.607,1.987 19.301,1.903 19.062,2.043 C18.823,2.181 18.742,2.485 18.878,2.726 L21.898,7.954 L19.796,11.593 L17.888,7.268 L15.979,11.593 L13.879,7.956 L16.898,2.727 C17.036,2.488 16.954,2.182 16.715,2.044 C16.475,1.902 16.171,1.986 16.032,2.227 L13.302,6.956 L11.963,4.638 L13.314,2.298 C13.452,2.059 13.37,1.753 13.131,1.614 C12.892,1.473 12.586,1.557 12.448,1.798 L11.386,3.638 L9.628,0.585 C9.489,0.345 9.183,0.263 8.945,0.401 C8.706,0.541 8.624,0.844 8.762,1.085 L10.523,4.136 L8.401,4.136 C8.125,4.136 7.901,4.36 7.901,4.636 C7.901,4.911 8.125,5.136 8.401,5.136 L11.1,5.136 L12.44,7.456 L6.98,7.456 C6.704,7.456 6.48,7.679 6.48,7.956 C6.48,8.231 6.704,8.456 6.98,8.456 L13.018,8.456 L15.134,12.122 L10.382,11.604 L13.158,15.398 L9.01,15.398 L5.989,10.17 C5.851,9.931 5.544,9.848 5.306,9.986 C5.067,10.125 4.985,10.429 5.123,10.67 L7.855,15.398 L5.174,15.398 L3.825,13.06 C3.686,12.821 3.38,12.738 3.142,12.877 C2.903,13.015 2.821,13.319 2.959,13.56 L4.02,15.398 L0.5,15.398 C0.224,15.398 0,15.622 0,15.898 C0,16.174 0.224,16.398 0.5,16.398 L4.024,16.398 L2.962,18.239 C2.824,18.478 2.906,18.784 3.145,18.924 C3.224,18.969 3.31,18.989 3.395,18.989 C3.568,18.989 3.736,18.899 3.829,18.739 L5.179,16.398 L7.859,16.398 L5.126,21.127 C4.988,21.365 5.07,21.672 5.309,21.811 C5.388,21.857 5.474,21.877 5.559,21.877 C5.732,21.877 5.9,21.787 5.993,21.627 L9.015,16.398 L13.225,16.398 L10.385,20.278 L15.086,19.767 L13.021,23.342 L6.985,23.342 C6.709,23.342 6.485,23.567 6.485,23.842 C6.485,24.119 6.709,24.342 6.985,24.342 L12.443,24.342 L11.105,26.66 L8.404,26.66 C8.128,26.66 7.904,26.885 7.904,27.16 C7.904,27.435 8.128,27.66 8.404,27.66 L10.527,27.66 L8.766,30.711 C8.628,30.949 8.71,31.256 8.949,31.395 C9.028,31.441 9.114,31.461 9.199,31.461 C9.372,31.461 9.54,31.371 9.633,31.211 L11.395,28.158 L12.457,30 C12.55,30.16 12.718,30.25 12.891,30.25 C12.976,30.25 13.062,30.229 13.141,30.184 C13.38,30.045 13.462,29.741 13.324,29.5 L11.972,27.158 L13.311,24.84 L16.042,29.569 C16.135,29.729 16.303,29.819 16.476,29.819 C16.561,29.819 16.647,29.798 16.726,29.754 C16.965,29.614 17.047,29.311 16.909,29.069 L13.889,23.84 L15.969,20.237 L17.898,24.613 L19.828,20.239 L21.908,23.843 L18.887,29.072 C18.749,29.311 18.831,29.617 19.071,29.757 C19.151,29.802 19.237,29.822 19.321,29.822 C19.495,29.822 19.663,29.732 19.756,29.572 L22.487,24.843 L23.825,27.161 L22.475,29.499 C22.337,29.737 22.419,30.044 22.659,30.183 C22.739,30.229 22.825,30.249 22.909,30.249 C23.083,30.249 23.251,30.158 23.344,29.999 L24.406,28.161 L26.169,31.214 C26.262,31.374 26.43,31.464 26.604,31.464 C26.688,31.464 26.774,31.443 26.854,31.398 C27.092,31.259 27.174,30.956 27.038,30.714 L25.274,27.661 L27.397,27.661 C27.673,27.661 27.897,27.436 27.897,27.161 C27.897,26.886 27.673,26.661 27.397,26.661 L24.698,26.661 L23.356,24.341 L28.819,24.343 C29.094,24.343 29.319,24.12 29.319,23.843 C29.319,23.568 29.094,23.343 28.819,23.343 L22.78,23.341 L20.716,19.766 L25.417,20.277 L22.577,16.399 L26.788,16.399 L29.808,21.63 C29.902,21.79 30.07,21.88 30.242,21.88 C30.328,21.88 30.415,21.859 30.492,21.813 C30.732,21.675 30.814,21.372 30.677,21.13 L27.942,16.398 L30.624,16.398 L31.975,18.738 C32.068,18.898 32.236,18.988 32.41,18.988 C32.494,18.988 32.581,18.967 32.66,18.922 C32.898,18.783 32.98,18.48 32.844,18.238 L31.782,16.398 L35.304,16.398 C35.578,16.398 35.804,16.174 35.804,15.898 C35.804,15.622 35.561,15.398 35.285,15.398 Z M19.441,18.625 L19.201,19.17 L17.89,22.139 L16.581,19.168 L16.342,18.625 L15.699,18.693 L12.525,19.039 L14.458,16.398 L14.792,15.941 L14.395,15.398 L12.525,12.842 L15.751,13.193 L16.34,13.256 L16.601,12.664 L17.891,9.741 L19.18,12.664 L19.442,13.256 L20.032,13.193 L23.26,12.842 L21.387,15.398 L20.991,15.941 L21.325,16.398 L23.259,19.039 L20.084,18.693 L19.441,18.625 Z" id="Shape"></path>
                                </g>
                            </g>
                        </g>
                    </g>
                </g>
            </g>
        </g>
    </g>
</svg>