<?xml version="1.0" encoding="UTF-8" standalone="no"?>
<svg width="41px" height="41px" viewBox="0 0 41 41" version="1.1" xmlns="http://www.w3.org/2000/svg" xmlns:xlink="http://www.w3.org/1999/xlink">
    <!-- Generator: Sketch 41.2 (35397) - http://www.bohemiancoding.com/sketch -->
    <title>success</title>
    <desc>Created with Sketch.</desc>
    <defs></defs>
    <g id="Типовая-страница" stroke="none" stroke-width="1" fill="none" fill-rule="evenodd">
        <g id="typepage-1400" transform="translate(-582.000000, -3035.000000)" fill="#0099C5">
            <g id="+" transform="translate(250.000000, 3007.000000)">
                <g transform="translate(240.000000, 0.000000)" id="ico1">
                    <g>
                        <g id="success" transform="translate(92.000000, 28.000000)">
                            <g id="Capa_1">
                                <g id="Group">
                                    <path d="M20.5,0 C9.19661538,0 0,9.19582692 0,20.5 C0,31.8041731 9.19661538,41 20.5,41 C31.8033846,41 41,31.8041731 41,20.5 C41,9.19582692 31.8033846,0 20.5,0 Z M20.5,39.4230769 C10.0662885,39.4230769 1.57692308,30.9337115 1.57692308,20.5 C1.57692308,10.0662885 10.0662885,1.57692308 20.5,1.57692308 C30.9337115,1.57692308 39.4230769,10.0662885 39.4230769,20.5 C39.4230769,30.9337115 30.9337115,39.4230769 20.5,39.4230769 Z" id="Shape"></path>
                                    <path d="M30.1602308,12.0918462 L18.0423654,25.7243462 L10.742,19.8842115 C10.4029615,19.6121923 9.90544231,19.6681731 9.63421154,20.0072115 C9.36219231,20.3478269 9.41738462,20.8437692 9.75721154,21.1157885 L17.6418269,27.4234808 C17.7869038,27.5393846 17.9611538,27.5961538 18.1346154,27.5961538 C18.3522308,27.5961538 18.5690577,27.5062692 18.7243846,27.3312308 L31.3397692,13.1389231 C31.6291346,12.8140769 31.5999615,12.3149808 31.2743269,12.0264038 C30.9479038,11.73625 30.4503846,11.7654231 30.1602308,12.0918462 Z" id="Shape"></path>
                                </g>
                            </g>
                        </g>
                    </g>
                </g>
            </g>
        </g>
    </g>
</svg>