<?xml version="1.0" encoding="UTF-8" standalone="no"?>
<svg width="37px" height="29px" viewBox="0 0 37 29" version="1.1" xmlns="http://www.w3.org/2000/svg" xmlns:xlink="http://www.w3.org/1999/xlink">
    <!-- Generator: Sketch 41.2 (35397) - http://www.bohemiancoding.com/sketch -->
    <title>truck</title>
    <desc>Created with Sketch.</desc>
    <defs></defs>
    <g id="Контакты" stroke="none" stroke-width="1" fill="none" fill-rule="evenodd">
        <g id="contacts-1400" transform="translate(-730.000000, -365.000000)" fill="#0099C5">
            <g id="delivery" transform="translate(730.000000, 361.000000)">
                <g id="truck" transform="translate(0.000000, 4.000000)">
                    <g id="Layer_1">
                        <g id="Group">
                            <g id="Shape">
                                <g>
                                    <path d="M36.4354795,10.0994088 L31.0809376,4.31916545 C30.6501365,3.8977129 30.0962183,3.65682238 29.5423002,3.65682238 L23.3876784,3.65682238 L23.3876784,2.39239416 C23.3876784,1.06777859 22.3413645,0.0441703163 21.0488889,0.0441703163 L2.40031189,0.0441703163 C1.04631384,0.0442408759 0,1.06777859 0,2.39246472 L0,16.9032603 L0,18.1075012 L0,23.2254015 C0,24.3693844 0.984719298,25.3328054 2.1541501,25.3328054 L3.12083821,25.3328054 C3.41474659,27.3899708 5.19464133,28.9454574 7.38564717,28.9454574 C9.57665302,28.9454574 11.3565478,27.3899708 11.6504561,25.3328054 L22.1567251,25.3328054 L23.3876784,25.3328054 L25.2775634,25.3328054 C25.5714717,27.3899708 27.3513665,28.9454574 29.5423723,28.9454574 C31.7333782,28.9454574 33.5132729,27.3899708 33.8071813,25.3328054 L36.9278752,25.3328054 L36.9893977,25.3328054 L36.9893977,11.4842822 C36.9893977,10.9423844 36.8047583,10.460674 36.4354795,10.0994088 Z M35.4507602,10.8821971 C35.6353996,11.0026423 35.696922,11.2434623 35.696922,11.4240949 L35.696922,13.2906083 L26.4649532,13.2906083 L26.4649532,7.26954501 L32.0656569,7.26954501 L35.4507602,10.8821971 Z M1.23095322,12.6885231 L9.84748148,12.6885231 C10.2167602,12.6885231 10.462922,12.4477032 10.462922,12.086438 C10.462922,11.7251727 10.2167602,11.4843528 9.84748148,11.4843528 L1.23095322,11.4843528 L1.23095322,9.67802676 L7.38557505,9.67802676 C7.7548538,9.67802676 8.00101559,9.43720681 8.00101559,9.07594161 C8.00101559,8.7146764 7.7548538,8.47385645 7.38557505,8.47385645 L1.23095322,8.47385645 L1.23095322,2.39246472 C1.23095322,1.73012165 1.72334893,1.24848175 2.40031189,1.24848175 L20.9873665,1.24848175 C21.6644016,1.24848175 22.1567251,1.79037956 22.1567251,2.39246472 L22.1567251,3.65689294 L22.1567251,16.9032603 L1.23095322,16.9032603 L1.23095322,12.6885231 Z M7.38557505,27.7412165 C5.66229825,27.7412165 4.30822807,26.416601 4.30822807,24.7306496 C4.30822807,23.0447689 5.66222612,21.7200827 7.38557505,21.7200827 C9.10885185,21.7200827 10.462922,23.0446983 10.462922,24.7306496 C10.462922,26.416601 9.10885185,27.7412165 7.38557505,27.7412165 Z M22.1567251,24.1285645 L11.650384,24.1285645 C11.3747953,22.1995353 9.79237817,20.7123504 7.78969006,20.5345401 C7.77504873,20.5331995 7.76019103,20.5324939 7.74547758,20.5312944 C7.69506238,20.5273431 7.6447193,20.5232506 7.59379922,20.5209221 C7.52477583,20.5176764 7.45539181,20.5158418 7.38557505,20.5158418 C7.31575828,20.5158418 7.24637427,20.5176764 7.17735088,20.5209221 C7.1264308,20.5232506 7.07608772,20.5272725 7.02567251,20.5312944 C7.01095906,20.5324939 6.99610136,20.5331995 6.98146004,20.5345401 C4.97877193,20.7123504 3.39635478,22.1995353 3.12076608,24.1285645 L2.1541501,24.1285645 C1.66175439,24.1285645 1.23095322,23.7071119 1.23095322,23.2254015 L1.23095322,18.1075012 L22.1567251,18.1075012 L22.1567251,24.1285645 Z M29.5423002,27.7412165 C27.8190234,27.7412165 26.4649532,26.416601 26.4649532,24.7306496 C26.4649532,23.0447689 27.8189513,21.7200827 29.5423002,21.7200827 C31.265577,21.7200827 32.6196472,23.0446983 32.6196472,24.7306496 C32.6196472,26.416601 31.265577,27.7412165 29.5423002,27.7412165 Z M33.8071092,24.1285645 C33.5315205,22.1995353 31.9491033,20.7123504 29.9464152,20.5345401 C29.9317739,20.5331995 29.9169162,20.5324939 29.9022027,20.5312944 C29.8517875,20.5273431 29.8014444,20.5232506 29.7505244,20.5209221 C29.681501,20.5176764 29.612117,20.5158418 29.5423002,20.5158418 C29.4724834,20.5158418 29.4030994,20.5176764 29.334076,20.5209221 C29.2831559,20.5232506 29.2328129,20.5272725 29.1823977,20.5312944 C29.1676842,20.5324939 29.1528265,20.5331995 29.1381852,20.5345401 C27.1354971,20.7123504 25.5530799,22.1995353 25.2774912,24.1285645 L23.3876062,24.1285645 L23.3876062,18.1075012 L23.3876062,16.9032603 L23.3876062,4.86106326 L29.5423002,4.86106326 C29.7269396,4.86106326 29.9731014,4.98150852 30.1577407,5.10188321 L31.0398986,6.06523358 L26.2803138,6.06523358 C25.7263957,6.06523358 25.234,6.54694404 25.234,7.08884185 L25.234,13.4711703 C25.234,14.0130681 25.7263957,14.4947786 26.2803138,14.4947786 L35.696922,14.4947786 L35.696922,17.5053455 L32.619575,17.5053455 C32.2502963,17.5053455 32.0041345,17.7461655 32.0041345,18.1074307 C32.0041345,18.4686959 32.2502963,18.7095158 32.619575,18.7095158 L35.696922,18.7095158 L35.696922,24.1284939 L33.8071092,24.1284939 L33.8071092,24.1285645 Z"></path>
                                    <path d="M7.38557505,23.5264793 C6.70853996,23.5264793 6.15462183,24.0683771 6.15462183,24.7307202 C6.15462183,25.3930633 6.70853996,25.9349611 7.38557505,25.9349611 C8.06261014,25.9349611 8.61652827,25.3930633 8.61652827,24.7307202 C8.61652827,24.0683771 8.06261014,23.5264793 7.38557505,23.5264793 Z"></path>
                                    <path d="M29.5423002,23.5264793 C28.8652651,23.5264793 28.311347,24.0683771 28.311347,24.7307202 C28.311347,25.3930633 28.8652651,25.9349611 29.5423002,25.9349611 C30.2193353,25.9349611 30.7732534,25.3930633 30.7732534,24.7307202 C30.7732534,24.0683771 30.2193353,23.5264793 29.5423002,23.5264793 Z"></path>
                                </g>
                            </g>
                        </g>
                    </g>
                </g>
            </g>
        </g>
    </g>
</svg>