<svg width="25" height="24" viewBox="0 0 25 24" fill="none" xmlns="http://www.w3.org/2000/svg">
<path fill-rule="evenodd" clip-rule="evenodd" d="M24.1801 8.9899L20.7001 5.23884C20.4201 4.96534 20.0601 4.80901 19.7001 4.80901H15.7001V3.98847C15.7001 3.12887 15.0201 2.4646 14.1801 2.4646H2.06001C1.18002 2.46465 0.5 3.12887 0.5 3.98851V13.4052V14.1867V17.508C0.5 18.2503 1.13999 18.8755 1.90002 18.8755H2.52829C2.71931 20.2105 3.8761 21.22 5.30007 21.22C6.72405 21.22 7.88084 20.2105 8.07185 18.8755H14.9001H15.7001H16.9284C17.1194 20.2105 18.2762 21.22 19.7002 21.22C21.1241 21.22 22.2809 20.2105 22.4719 18.8755H24.5001H24.5401V9.88861C24.5401 9.53694 24.4201 9.22434 24.1801 8.9899ZM23.5401 9.49789C23.6601 9.57605 23.7001 9.73233 23.7001 9.84955V11.0608H17.7001V7.15347H21.3401L23.5401 9.49789ZM1.30002 10.6701H6.90007C7.14007 10.6701 7.30005 10.5138 7.30005 10.2794C7.30005 10.0449 7.14007 9.88865 6.90007 9.88865H1.30002V8.71645H5.30003C5.54003 8.71645 5.70001 8.56017 5.70001 8.32573C5.70001 8.09128 5.54003 7.93501 5.30003 7.93501H1.30002V3.98851C1.30002 3.55869 1.62004 3.24613 2.06001 3.24613H14.1401C14.5801 3.24613 14.9001 3.59779 14.9001 3.98851V4.80906V13.4052H1.30002V10.6701ZM5.30003 20.4385C4.18004 20.4385 3.3 19.5789 3.3 18.4848C3.3 17.3907 4.17999 16.5311 5.30003 16.5311C6.42002 16.5311 7.30005 17.3907 7.30005 18.4848C7.30005 19.5789 6.42002 20.4385 5.30003 20.4385ZM14.9001 18.0941H8.07181C7.8927 16.8422 6.86425 15.8771 5.56267 15.7617C5.55315 15.7609 5.5435 15.7604 5.53393 15.7596C5.50117 15.7571 5.46845 15.7544 5.43536 15.7529C5.3905 15.7508 5.3454 15.7496 5.30003 15.7496C5.25465 15.7496 5.20956 15.7508 5.1647 15.7529C5.1316 15.7544 5.09888 15.757 5.06612 15.7596C5.05656 15.7604 5.0469 15.7609 5.03738 15.7617C3.7358 15.8771 2.70736 16.8422 2.52825 18.0941H1.90002C1.58001 18.0941 1.30002 17.8206 1.30002 17.508V14.1867H14.9001V18.0941ZM19.7001 20.4385C18.5801 20.4385 17.7001 19.5789 17.7001 18.4848C17.7001 17.3907 18.5801 16.5311 19.7001 16.5311C20.8201 16.5311 21.7001 17.3907 21.7001 18.4848C21.7001 19.5789 20.8201 20.4385 19.7001 20.4385ZM22.4719 18.0941C22.2928 16.8422 21.2643 15.8771 19.9627 15.7617C19.9532 15.7609 19.9436 15.7604 19.934 15.7596C19.9012 15.7571 19.8685 15.7544 19.8354 15.7529C19.7906 15.7508 19.7455 15.7496 19.7001 15.7496C19.6547 15.7496 19.6096 15.7508 19.5648 15.7529C19.5317 15.7544 19.499 15.757 19.4662 15.7596C19.4566 15.7604 19.447 15.7609 19.4375 15.7617C18.1359 15.8771 17.1074 16.8422 16.9283 18.0941H15.7001V14.1867V13.4052V5.5905H19.7001C19.8201 5.5905 19.9801 5.66866 20.1001 5.74678L20.6734 6.37194H17.5801C17.2201 6.37194 16.9001 6.68454 16.9001 7.03621V11.178C16.9001 11.5297 17.2201 11.8423 17.5801 11.8423H23.7001V13.7959H21.7001C21.4601 13.7959 21.3001 13.9522 21.3001 14.1867C21.3001 14.4211 21.4601 14.5774 21.7001 14.5774H23.7001V18.094L22.4719 18.0941Z" fill="#E54B2D"/>
<path fill-rule="evenodd" clip-rule="evenodd" d="M5.30002 17.7034C4.86 17.7034 4.5 18.055 4.5 18.4849C4.5 18.9147 4.86 19.2663 5.30002 19.2663C5.74004 19.2663 6.10004 18.9147 6.10004 18.4849C6.10004 18.055 5.74004 17.7034 5.30002 17.7034Z" fill="#E54B2D"/>
<path fill-rule="evenodd" clip-rule="evenodd" d="M19.6999 17.7034C19.2599 17.7034 18.8999 18.055 18.8999 18.4849C18.8999 18.9147 19.2599 19.2663 19.6999 19.2663C20.1399 19.2663 20.4999 18.9147 20.4999 18.4849C20.4999 18.055 20.1399 17.7034 19.6999 17.7034Z" fill="#E54B2D"/>
</svg>
