<?xml version="1.0" encoding="UTF-8" standalone="no"?>
<svg width="34px" height="34px" viewBox="0 0 34 34" version="1.1" xmlns="http://www.w3.org/2000/svg" xmlns:xlink="http://www.w3.org/1999/xlink">
    <!-- Generator: Sketch 41.2 (35397) - http://www.bohemiancoding.com/sketch -->
    <title>twitter with circle</title>
    <desc>Created with Sketch.</desc>
    <defs></defs>
    <g id="Symbols" stroke="none" stroke-width="1" fill="none" fill-rule="evenodd" opacity="0.695199275">
        <g id="footer" transform="translate(-1156.000000, -38.000000)" fill="#00457C">
            <g id="soc">
                <g transform="translate(1068.000000, 38.000000)">
                    <g id="twitter-with-circle" transform="translate(88.000000, 0.000000)">
                        <g id="Twitter_w_x2F__circle">
                            <path d="M17,0.68 C7.9866,0.68 0.68,7.9866 0.68,17 C0.68,26.0134 7.9866,33.32 17,33.32 C26.0134,33.32 33.32,26.0134 33.32,17 C33.32,7.9866 26.0134,0.68 17,0.68 Z M23.6385,14.0488 C23.6453,14.1882 23.647,14.3276 23.647,14.4636 C23.647,18.7136 20.4153,23.6113 14.5027,23.6113 C12.6871,23.6113 10.9973,23.0809 9.5761,22.1663 C9.826,22.1969 10.0827,22.2088 10.3428,22.2088 C11.849,22.2088 13.2345,21.6971 14.3344,20.8335 C12.9285,20.8063 11.7419,19.8781 11.3322,18.6031 C11.5277,18.6388 11.7283,18.6592 11.9357,18.6592 C12.2281,18.6592 12.5137,18.6201 12.7823,18.547 C11.3118,18.2512 10.2034,16.9524 10.2034,15.3952 L10.2034,15.3561 C10.6369,15.5958 11.1333,15.742 11.6603,15.759 C10.7967,15.181 10.2306,14.1984 10.2306,13.0815 C10.2306,12.4933 10.3887,11.9391 10.6658,11.4648 C12.2519,13.4096 14.6183,14.688 17.2907,14.8257 C17.2346,14.5894 17.2074,14.3446 17.2074,14.0913 C17.2074,12.3182 18.6456,10.8766 20.4221,10.8766 C21.3452,10.8766 22.1816,11.2676 22.7681,11.8932 C23.5008,11.747 24.1876,11.4818 24.8081,11.1129 C24.5684,11.8626 24.0601,12.4933 23.3954,12.8928 C24.0465,12.8129 24.6653,12.6412 25.2416,12.3845 C24.8115,13.0288 24.2658,13.5966 23.6385,14.0488 Z" id="Shape"></path>
                        </g>
                    </g>
                </g>
            </g>
        </g>
    </g>
</svg>