<?xml version="1.0" encoding="UTF-8" standalone="no"?>
<svg width="34px" height="34px" viewBox="0 0 34 34" version="1.1" xmlns="http://www.w3.org/2000/svg" xmlns:xlink="http://www.w3.org/1999/xlink">
    <!-- Generator: Sketch 41.2 (35397) - http://www.bohemiancoding.com/sketch -->
    <title>vk with circle</title>
    <desc>Created with Sketch.</desc>
    <defs></defs>
    <g id="Symbols" stroke="none" stroke-width="1" fill="none" fill-rule="evenodd" opacity="0.695199275">
        <g id="footer" transform="translate(-1068.000000, -38.000000)" fill="#00457C">
            <g id="soc">
                <g transform="translate(1068.000000, 38.000000)">
                    <g id="vk-with-circle">
                        <g id="VK_w_x2F__circle">
                            <path d="M17,0.68 C7.9866,0.68 0.68,7.9866 0.68,17 C0.68,26.0134 7.9866,33.32 17,33.32 C26.0134,33.32 33.32,26.0134 33.32,17 C33.32,7.9866 26.0134,0.68 17,0.68 Z M23.2764,19.0927 C23.2764,19.0927 24.7197,20.5173 25.075,21.1786 C25.0852,21.1922 25.0903,21.2058 25.0937,21.2126 C25.2382,21.4557 25.2722,21.6444 25.2008,21.7855 C25.0818,22.0201 24.6738,22.1357 24.5344,22.1459 L21.9844,22.1459 C21.8076,22.1459 21.437,22.1 20.9882,21.7906 C20.6431,21.5492 20.3031,21.1531 19.9716,20.7672 C19.4769,20.1926 19.0485,19.6962 18.6167,19.6962 C18.5623,19.6962 18.5062,19.7047 18.4552,19.7217 C18.1288,19.8271 17.7106,20.2929 17.7106,21.5339 C17.7106,21.9215 17.4046,22.1442 17.1887,22.1442 L16.0208,22.1442 C15.623,22.1442 13.5507,22.0048 11.7147,20.0685 C9.4673,17.697 7.4443,12.9404 7.4273,12.8962 C7.2998,12.5885 7.5633,12.4236 7.8506,12.4236 L10.4261,12.4236 C10.7695,12.4236 10.8817,12.6327 10.9599,12.818 C11.0517,13.0339 11.3883,13.8924 11.9408,14.858 C12.8367,16.4322 13.3858,17.0714 13.8261,17.0714 C13.9094,17.0714 13.9859,17.0493 14.0624,17.0102 C14.637,16.6906 14.5299,14.6421 14.5044,14.2171 C14.5044,14.1372 14.5027,13.3008 14.2086,12.8996 C13.9978,12.6089 13.6391,12.4984 13.4215,12.4576 C13.4776,12.3743 13.6034,12.2468 13.7598,12.1703 C14.1542,11.9731 14.8648,11.9442 15.5703,11.9442 L15.963,11.9442 C16.728,11.9544 16.9252,12.0037 17.2023,12.0734 C17.7633,12.2077 17.7752,12.5698 17.7259,13.8091 C17.7106,14.161 17.6953,14.5588 17.6953,15.028 C17.6953,15.13 17.6902,15.2388 17.6902,15.3544 C17.6732,15.9851 17.6528,16.7008 18.0982,16.9949 C18.156,17.0306 18.2223,17.051 18.292,17.051 C18.4467,17.051 18.9125,17.051 20.1739,14.8869 C20.7264,13.9315 21.1548,12.8044 21.1854,12.7211 C21.2109,12.6769 21.2857,12.5409 21.3741,12.4882 C21.4438,12.4474 21.5373,12.4389 21.5849,12.4389 L24.6126,12.4389 C24.9424,12.4389 25.1685,12.4882 25.211,12.6157 C25.2858,12.818 25.1974,13.4351 23.8153,15.3068 C23.5824,15.6162 23.3767,15.8865 23.1982,16.1211 C21.9453,17.7633 21.9453,17.8466 23.2764,19.0927 Z" id="Shape"></path>
                        </g>
                    </g>
                </g>
            </g>
        </g>
    </g>
</svg>