<svg width="28" height="32" viewBox="0 0 28 32" fill="none" xmlns="http://www.w3.org/2000/svg">
<g clip-path="url(#clip0_42_1691)">
<path fill-rule="evenodd" clip-rule="evenodd" d="M26.9831 3.88104H26.9514C26.6323 2.19666 23.2062 0.540039 17.6421 0.540039C12.078 0.540039 8.65194 2.19666 8.33227 3.88104H8.30062C8.30062 3.93038 8.31151 3.97716 8.31463 4.02547C8.31151 4.06299 8.30114 4.10052 8.30114 4.13804V8.47363L6.87612 7.06167C6.86678 7.05242 6.85432 7.04471 6.84395 7.03597C6.83357 7.02518 6.82526 7.01233 6.81437 7.00153L6.80814 7.0077C6.15168 6.48856 4.15323 6.49062 2.7443 7.88664C1.3608 9.25696 0.660748 11.8331 1.19785 12.5651L1.18799 12.5748C1.20045 12.5872 1.21602 12.5954 1.22899 12.6077C1.23625 12.616 1.24144 12.6278 1.24923 12.6355L8.30062 19.6197V28.039C8.30062 30.0997 11.8798 31.38 17.6416 31.38C23.4034 31.38 26.9825 30.0997 26.9825 28.039V4.13804C26.9825 4.10052 26.9716 4.06299 26.9685 4.02547C26.9722 3.97716 26.9831 3.93038 26.9831 3.88104ZM17.6421 1.56804C23.2373 1.56804 25.7314 3.25704 25.926 4.04038C25.7309 5.35468 23.1247 6.70804 17.6421 6.70804C12.1595 6.70804 9.55334 5.35468 9.35822 4.04038C9.55282 3.25704 12.0469 1.56804 17.6421 1.56804ZM3.4786 8.61344C4.56475 7.53815 5.84446 7.67025 6.10912 7.77408C6.27207 7.98122 6.27778 8.35901 6.10964 8.836C5.89428 9.44817 5.42464 10.1426 4.82059 10.7409C3.67684 11.8737 2.5497 12.2109 2.04477 11.9251C2.01623 11.4332 2.39142 9.69027 3.4786 8.61344ZM23.3505 29.7625V27.268C23.3505 26.9843 23.118 26.754 22.8315 26.754C22.5451 26.754 22.3126 26.9843 22.3126 27.268V29.838C22.3126 29.891 22.3281 29.9393 22.3432 29.9876C21.7329 30.1002 21.0287 30.1891 20.2368 30.2523V25.726C20.2368 25.4423 20.0043 25.212 19.7179 25.212C19.4314 25.212 19.1989 25.4423 19.1989 25.726V30.3155C18.8673 30.3299 18.5212 30.3397 18.161 30.3448V29.324C18.161 29.0403 17.9286 28.81 17.6421 28.81C17.3556 28.81 17.1232 29.0403 17.1232 29.324V30.3448C16.5746 30.3371 16.0495 30.3217 15.5663 30.2924V26.754C15.5663 26.4703 15.3338 26.24 15.0474 26.24C14.7609 26.24 14.5284 26.4703 14.5284 26.754V30.2086C13.4911 30.1043 12.6353 29.9485 11.9337 29.7625V23.156C11.9337 22.8723 11.7012 22.642 11.4148 22.642C11.1283 22.642 10.8958 22.8723 10.8958 23.156V29.4232C9.8097 28.9838 9.33902 28.4646 9.33902 28.039V19.4064C9.33902 19.2702 9.28453 19.1391 9.18697 19.043L3.0702 12.9845C3.85484 12.8005 4.7277 12.2865 5.55437 11.4677C6.2757 10.7532 6.82059 9.93904 7.0894 9.17473C7.13092 9.05702 7.16465 8.94188 7.19216 8.8288L8.45319 10.0778C8.6016 10.2248 8.82423 10.2685 9.01883 10.1894C9.21292 10.1097 9.33902 9.92208 9.33902 9.71443V5.85223C9.74587 6.18633 10.2695 6.48034 10.8958 6.73168V10.82C10.8958 11.1038 11.1283 11.334 11.4148 11.334C11.7012 11.334 11.9337 11.1038 11.9337 10.82V7.07812C12.4112 7.21227 12.9306 7.32741 13.4906 7.42147V14.418C13.4906 14.7018 13.723 14.932 14.0095 14.932C14.296 14.932 14.5284 14.7018 14.5284 14.418V7.5695C15.4771 7.67796 16.5165 7.73604 17.6421 7.73604C17.8196 7.73604 17.9882 7.73038 18.161 7.72782V9.27804C18.161 9.56177 18.3935 9.79204 18.68 9.79204C18.9664 9.79204 19.1989 9.56177 19.1989 9.27804V7.69338C20.1377 7.64558 21.0054 7.5546 21.7936 7.42199V14.932C21.7936 15.2158 22.0261 15.446 22.3126 15.446C22.599 15.446 22.8315 15.2158 22.8315 14.932V7.22204C22.8315 7.21896 22.8294 7.21587 22.8294 7.21279C23.1963 7.12541 23.5471 7.03083 23.8694 6.9234V10.82C23.8694 11.1038 24.1019 11.334 24.3883 11.334C24.6748 11.334 24.9073 11.1038 24.9073 10.82V6.49987C25.3074 6.30455 25.6566 6.08918 25.9452 5.85223V28.039C25.9452 28.5813 25.1849 29.2757 23.3505 29.7625Z" fill="#E54B2D"/>
</g>
<defs>
<clipPath id="clip0_42_1691">
<rect width="26.985" height="30.84" fill="white" transform="translate(0.507568 0.540039)"/>
</clipPath>
</defs>
</svg>
