<?xml version="1.0" encoding="UTF-8" standalone="no"?>
<svg width="28px" height="32px" viewBox="0 0 28 32" version="1.1" xmlns="http://www.w3.org/2000/svg" xmlns:xlink="http://www.w3.org/1999/xlink">
    <!-- Generator: Sketch 41.2 (35397) - http://www.bohemiancoding.com/sketch -->
    <title>log</title>
    <desc>Created with Sketch.</desc>
    <defs></defs>
    <g id="Кейсы-под-заказ" stroke="none" stroke-width="1" fill="none" fill-rule="evenodd">
        <g id="zakaz-1400" transform="translate(-808.000000, -1195.000000)" fill="#0099C5">
            <g id="sostav" transform="translate(209.000000, 970.000000)">
                <g id="+" transform="translate(304.000000, 0.000000)">
                    <g id="1-copy-2" transform="translate(281.000000, 208.000000)">
                        <g id="ico1" transform="translate(0.000000, 3.000000)">
                            <g id="log" transform="translate(14.000000, 14.000000)">
                                <g id="Capa_1">
                                    <path d="M27.4712308,3.46666667 L27.4383846,3.46666667 C27.1072308,1.71893333 23.5523077,0 17.7789231,0 C12.0055385,0 8.45061538,1.71893333 8.11892308,3.46666667 L8.08607692,3.46666667 C8.08607692,3.51786667 8.09738462,3.5664 8.10061538,3.61653333 C8.09738462,3.65546667 8.08661538,3.6944 8.08661538,3.73333333 L8.08661538,8.232 L6.608,6.76693333 C6.59830769,6.75733333 6.58538462,6.74933333 6.57461538,6.74026667 C6.56384615,6.72906667 6.55523077,6.71573333 6.54392308,6.70453333 L6.53746154,6.71093333 C5.85630769,6.17226667 3.78269231,6.1744 2.32076923,7.62293333 C0.885230769,9.0448 0.158846154,11.7178667 0.716153846,12.4773333 L0.705923077,12.4874667 C0.718846154,12.5002667 0.735,12.5088 0.748461538,12.5216 C0.756,12.5301333 0.761384615,12.5424 0.769461538,12.5504 L8.08607692,19.7973333 L8.08607692,28.5333333 C8.08607692,30.6714667 11.7998462,32 17.7783846,32 C23.7569231,32 27.4706923,30.6714667 27.4706923,28.5333333 L27.4706923,3.73333333 C27.4706923,3.6944 27.4593846,3.65546667 27.4561538,3.61653333 C27.4599231,3.5664 27.4712308,3.51786667 27.4712308,3.46666667 Z M17.7789231,1.06666667 C23.5846154,1.06666667 26.1724615,2.8192 26.3743846,3.632 C26.1719231,4.99573333 23.4677692,6.4 17.7789231,6.4 C12.0900769,6.4 9.38592308,4.99573333 9.18346154,3.632 C9.38538462,2.8192 11.9732308,1.06666667 17.7789231,1.06666667 Z M3.08269231,8.37706667 C4.20969231,7.26133333 5.53753846,7.3984 5.81215385,7.50613333 C5.98123077,7.72106667 5.98715385,8.11306667 5.81269231,8.608 C5.58923077,9.2432 5.10192308,9.96373333 4.47515385,10.5845333 C3.28838462,11.76 2.11884615,12.1098667 1.59492308,11.8133333 C1.56530769,11.3029333 1.95461538,9.4944 3.08269231,8.37706667 Z M23.702,30.3216 L23.702,27.7333333 C23.702,27.4389333 23.4607692,27.2 23.1635385,27.2 C22.8663077,27.2 22.6250769,27.4389333 22.6250769,27.7333333 L22.6250769,30.4 C22.6250769,30.4549333 22.6412308,30.5050667 22.6568462,30.5552 C22.0236154,30.672 21.2929231,30.7642667 20.4712308,30.8298667 L20.4712308,26.1333333 C20.4712308,25.8389333 20.23,25.6 19.9327692,25.6 C19.6355385,25.6 19.3943077,25.8389333 19.3943077,26.1333333 L19.3943077,30.8954667 C19.0502308,30.9104 18.6910769,30.9205333 18.3173846,30.9258667 L18.3173846,29.8666667 C18.3173846,29.5722667 18.0761538,29.3333333 17.7789231,29.3333333 C17.4816923,29.3333333 17.2404615,29.5722667 17.2404615,29.8666667 L17.2404615,30.9258667 C16.6713077,30.9178667 16.1263846,30.9018667 15.6250769,30.8714667 L15.6250769,27.2 C15.6250769,26.9056 15.3838462,26.6666667 15.0866154,26.6666667 C14.7893846,26.6666667 14.5481538,26.9056 14.5481538,27.2 L14.5481538,30.7845333 C13.4717692,30.6762667 12.5838462,30.5146667 11.8558462,30.3216 L11.8558462,23.4666667 C11.8558462,23.1722667 11.6146154,22.9333333 11.3173846,22.9333333 C11.0201538,22.9333333 10.7789231,23.1722667 10.7789231,23.4666667 L10.7789231,29.9696 C9.65192308,29.5136 9.16353846,28.9749333 9.16353846,28.5333333 L9.16353846,19.576 C9.16353846,19.4346667 9.107,19.2986667 9.00576923,19.1989333 L2.65892308,12.9125333 C3.47307692,12.7216 4.37876923,12.1882667 5.23653846,11.3386667 C5.985,10.5973333 6.55038462,9.75253333 6.82930769,8.95946667 C6.87238462,8.83733333 6.90738462,8.71786667 6.93592308,8.60053333 L8.24438462,9.89653333 C8.39838462,10.0490667 8.62938462,10.0944 8.83130769,10.0122667 C9.03269231,9.9296 9.16353846,9.73493333 9.16353846,9.51946667 L9.16353846,5.512 C9.58569231,5.85866667 10.129,6.16373333 10.7789231,6.42453333 L10.7789231,10.6666667 C10.7789231,10.9610667 11.0201538,11.2 11.3173846,11.2 C11.6146154,11.2 11.8558462,10.9610667 11.8558462,10.6666667 L11.8558462,6.784 C12.3512308,6.9232 12.8902308,7.04266667 13.4712308,7.14026667 L13.4712308,14.4 C13.4712308,14.6944 13.7124615,14.9333333 14.0096923,14.9333333 C14.3069231,14.9333333 14.5481538,14.6944 14.5481538,14.4 L14.5481538,7.29386667 C15.5324615,7.4064 16.611,7.46666667 17.7789231,7.46666667 C17.9630769,7.46666667 18.1380769,7.4608 18.3173846,7.45813333 L18.3173846,9.06666667 C18.3173846,9.36106667 18.5586154,9.6 18.8558462,9.6 C19.1530769,9.6 19.3943077,9.36106667 19.3943077,9.06666667 L19.3943077,7.4224 C20.3683846,7.3728 21.2686923,7.2784 22.0866154,7.1408 L22.0866154,14.9333333 C22.0866154,15.2277333 22.3278462,15.4666667 22.6250769,15.4666667 C22.9223077,15.4666667 23.1635385,15.2277333 23.1635385,14.9333333 L23.1635385,6.93333333 C23.1635385,6.93013333 23.1613846,6.92693333 23.1613846,6.92373333 C23.5420769,6.83306667 23.9060769,6.73493333 24.2404615,6.62346667 L24.2404615,10.6666667 C24.2404615,10.9610667 24.4816923,11.2 24.7789231,11.2 C25.0761538,11.2 25.3173846,10.9610667 25.3173846,10.6666667 L25.3173846,6.184 C25.7325385,5.98133333 26.0949231,5.75786667 26.3943077,5.512 L26.3943077,28.5333333 C26.3943077,29.096 25.6054615,29.8165333 23.702,30.3216 Z" id="Shape"></path>
                                </g>
                            </g>
                        </g>
                    </g>
                </g>
            </g>
        </g>
    </g>
</svg>