<?xml version="1.0" encoding="UTF-8"?>
<svg xmlns="http://www.w3.org/2000/svg" xmlns:xlink="http://www.w3.org/1999/xlink" width="45pt" height="45pt" viewBox="0 0 45 45" version="1.1">
<g id="surface1">
<path style=" stroke:none;fill-rule:evenodd;fill:rgb(0%,60%,77.254902%);fill-opacity:1;" d="M 39.84375 3.757812 C 39.84375 3.453125 39.597656 3.214844 39.292969 3.214844 C 39.292969 3.214844 39.292969 3.214844 39.285156 3.214844 C 38.980469 3.214844 38.734375 3.472656 38.742188 3.773438 L 38.78125 7.03125 L 38.144531 6.417969 C 33.855469 2.21875 28.191406 -0.0546875 22.195312 0.0117188 C 16.195312 0.0742188 10.585938 2.488281 6.398438 6.785156 C 3.394531 9.859375 1.347656 13.703125 0.472656 17.902344 C -0.371094 21.988281 -0.0859375 26.210938 1.320312 30.132812 C 1.402344 30.34375 1.613281 30.480469 1.84375 30.480469 C 1.90625 30.480469 1.972656 30.472656 2.027344 30.445312 C 2.3125 30.34375 2.457031 30.019531 2.355469 29.734375 C -0.425781 21.960938 1.421875 13.457031 7.179688 7.546875 C 15.40625 -0.890625 28.953125 -1.046875 37.367188 7.199219 L 38 7.816406 L 34.757812 7.859375 C 34.453125 7.859375 34.207031 8.117188 34.214844 8.421875 C 34.214844 8.726562 34.464844 8.964844 34.765625 8.964844 L 34.777344 8.964844 L 39.359375 8.910156 C 39.503906 8.910156 39.644531 8.84375 39.742188 8.746094 C 39.84375 8.644531 39.898438 8.496094 39.898438 8.347656 Z M 39.84375 3.757812 "/>
<path style=" stroke:none;fill-rule:evenodd;fill:rgb(0%,60%,77.254902%);fill-opacity:1;" d="M 43.589844 14.875 C 43.480469 14.597656 43.160156 14.449219 42.875 14.550781 C 42.589844 14.652344 42.445312 14.972656 42.542969 15.261719 C 45.328125 23.046875 43.480469 31.546875 37.722656 37.457031 C 33.542969 41.734375 27.996094 43.886719 22.449219 43.886719 C 17.070312 43.886719 11.679688 41.863281 7.527344 37.804688 L 6.894531 37.1875 L 10.144531 37.152344 C 10.449219 37.152344 10.695312 36.894531 10.6875 36.589844 C 10.6875 36.289062 10.429688 36.039062 10.125 36.046875 L 5.554688 36.09375 C 5.25 36.09375 5.003906 36.351562 5.011719 36.65625 L 5.066406 41.246094 C 5.066406 41.550781 5.3125 41.789062 5.617188 41.789062 L 5.625 41.789062 C 5.929688 41.789062 6.175781 41.53125 6.167969 41.230469 L 6.132812 37.972656 L 6.765625 38.589844 C 10.988281 42.730469 16.554688 44.992188 22.449219 44.992188 L 22.71875 44.992188 C 28.714844 44.929688 34.324219 42.515625 38.511719 38.21875 C 41.515625 35.144531 43.5625 31.300781 44.4375 27.101562 C 45.28125 23.015625 44.996094 18.792969 43.589844 14.875 Z M 43.589844 14.875 "/>
<path style=" stroke:none;fill-rule:evenodd;fill:rgb(0%,60%,77.254902%);fill-opacity:1;" d="M 34.859375 17.347656 C 32.875 12.5625 28.382812 9.378906 23.277344 9.066406 C 23.113281 9.046875 22.957031 9.039062 22.789062 9.039062 L 22.746094 9.039062 C 22.644531 9.039062 22.550781 9.03125 22.449219 9.03125 C 20.6875 9.03125 18.960938 9.378906 17.316406 10.058594 C 10.464844 12.902344 7.207031 20.789062 10.042969 27.644531 C 12.128906 32.699219 17.003906 35.964844 22.460938 35.964844 L 22.855469 35.964844 C 22.972656 35.964844 23.085938 35.957031 23.203125 35.945312 C 24.710938 35.863281 26.179688 35.523438 27.59375 34.945312 C 30.910156 33.574219 33.488281 30.976562 34.867188 27.664062 C 36.246094 24.351562 36.234375 20.679688 34.859375 17.347656 Z M 17.730469 11.082031 C 18.125 10.917969 18.539062 10.769531 18.941406 10.648438 C 18.273438 11.265625 17.65625 12.046875 17.117188 12.976562 C 16.445312 14.144531 15.914062 15.507812 15.535156 17.007812 L 11.402344 17.007812 C 12.6875 14.429688 14.867188 12.277344 17.730469 11.082031 Z M 16.417969 18.121094 L 22.230469 18.121094 L 22.230469 26.882812 L 16.464844 26.882812 C 16.160156 25.484375 15.996094 23.992188 15.996094 22.503906 C 15.996094 20.957031 16.140625 19.472656 16.417969 18.121094 Z M 10.90625 26.890625 C 9.8125 23.964844 9.886719 20.855469 10.925781 18.113281 C 10.953125 18.113281 10.972656 18.121094 11 18.121094 L 15.289062 18.121094 C 15.019531 19.503906 14.882812 20.984375 14.882812 22.503906 C 14.882812 24.011719 15.03125 25.484375 15.316406 26.882812 L 10.988281 26.882812 C 10.960938 26.882812 10.933594 26.882812 10.90625 26.890625 Z M 11.402344 27.988281 L 15.589844 27.988281 C 15.957031 29.386719 16.472656 30.683594 17.117188 31.824219 C 17.703125 32.875 18.375 33.738281 19.097656 34.402344 C 15.773438 33.460938 12.964844 31.160156 11.402344 27.988281 Z M 22.238281 34.816406 C 20.695312 34.574219 19.238281 33.34375 18.078125 31.28125 C 17.539062 30.304688 17.085938 29.191406 16.746094 27.988281 L 22.238281 27.988281 Z M 22.238281 17.015625 L 16.683594 17.015625 C 17.695312 13.199219 19.761719 10.53125 22.238281 10.1875 Z M 33.5 17.015625 L 30.035156 17.015625 C 29.660156 15.515625 29.128906 14.15625 28.457031 12.988281 C 28.015625 12.222656 27.519531 11.558594 26.988281 11.007812 C 29.789062 12.113281 32.121094 14.230469 33.5 17.015625 Z M 23.339844 10.1875 C 25.820312 10.539062 27.878906 13.199219 28.898438 17.015625 L 23.339844 17.015625 Z M 23.339844 18.121094 L 29.15625 18.121094 C 29.429688 19.472656 29.578125 20.945312 29.578125 22.503906 C 29.578125 23.992188 29.414062 25.484375 29.109375 26.882812 L 23.339844 26.882812 Z M 23.339844 34.816406 L 23.339844 27.988281 L 28.832031 27.988281 C 28.492188 29.191406 28.042969 30.304688 27.503906 31.28125 C 26.335938 33.34375 24.875 34.574219 23.339844 34.816406 Z M 27.171875 33.921875 C 27.0625 33.96875 26.941406 34.015625 26.832031 34.058594 C 27.417969 33.453125 27.96875 32.707031 28.464844 31.824219 C 29.109375 30.683594 29.625 29.386719 29.992188 27.988281 L 33.507812 27.988281 C 32.175781 30.675781 29.953125 32.761719 27.171875 33.921875 Z M 33.976562 26.882812 L 30.238281 26.882812 C 30.523438 25.484375 30.671875 24.003906 30.671875 22.503906 C 30.671875 20.972656 30.53125 19.503906 30.265625 18.121094 L 33.96875 18.121094 C 35.058594 20.957031 35.058594 24.039062 33.976562 26.882812 Z M 33.976562 26.882812 "/>
</g>
</svg>
