<?xml version="1.0" encoding="UTF-8"?>
<svg xmlns="http://www.w3.org/2000/svg" xmlns:xlink="http://www.w3.org/1999/xlink" width="24pt" height="24pt" viewBox="0 0 24 24" version="1.1">
<g id="surface1">
<path style=" stroke:none;fill-rule:evenodd;fill:rgb(0%,60%,77.254902%);fill-opacity:1;" d="M 21.25 2.003906 C 21.25 1.839844 21.117188 1.714844 20.957031 1.714844 C 20.957031 1.714844 20.957031 1.714844 20.953125 1.714844 C 20.789062 1.714844 20.65625 1.851562 20.664062 2.011719 L 20.683594 3.75 L 20.34375 3.421875 C 18.058594 1.183594 15.035156 -0.0273438 11.835938 0.0078125 C 8.636719 0.0390625 5.644531 1.328125 3.414062 3.617188 C 1.8125 5.257812 0.71875 7.308594 0.253906 9.546875 C -0.199219 11.726562 -0.046875 13.980469 0.703125 16.070312 C 0.746094 16.183594 0.859375 16.257812 0.984375 16.257812 C 1.015625 16.257812 1.050781 16.25 1.082031 16.238281 C 1.234375 16.183594 1.3125 16.011719 1.257812 15.859375 C -0.226562 11.710938 0.757812 7.175781 3.828125 4.027344 C 8.21875 -0.476562 15.441406 -0.558594 19.929688 3.839844 L 20.265625 4.167969 L 18.539062 4.191406 C 18.375 4.191406 18.242188 4.328125 18.25 4.492188 C 18.25 4.652344 18.378906 4.78125 18.542969 4.78125 L 18.546875 4.78125 L 20.992188 4.753906 C 21.070312 4.753906 21.144531 4.71875 21.195312 4.664062 C 21.25 4.609375 21.28125 4.53125 21.28125 4.453125 Z M 21.25 2.003906 "/>
<path style=" stroke:none;fill-rule:evenodd;fill:rgb(0%,60%,77.254902%);fill-opacity:1;" d="M 23.25 7.933594 C 23.191406 7.785156 23.019531 7.707031 22.867188 7.761719 C 22.714844 7.816406 22.636719 7.988281 22.691406 8.136719 C 24.175781 12.289062 23.191406 16.824219 20.121094 19.976562 C 17.890625 22.257812 14.933594 23.40625 11.972656 23.40625 C 9.105469 23.40625 6.230469 22.328125 4.015625 20.164062 L 3.675781 19.835938 L 5.410156 19.816406 C 5.570312 19.816406 5.703125 19.675781 5.699219 19.515625 C 5.699219 19.351562 5.5625 19.222656 5.402344 19.226562 L 2.960938 19.25 C 2.800781 19.25 2.667969 19.386719 2.671875 19.550781 L 2.703125 22 C 2.703125 22.160156 2.835938 22.289062 2.996094 22.289062 L 3 22.289062 C 3.164062 22.289062 3.292969 22.152344 3.289062 21.988281 L 3.269531 20.25 L 3.609375 20.582031 C 5.859375 22.789062 8.828125 23.996094 11.972656 23.996094 L 12.117188 23.996094 C 15.3125 23.960938 18.308594 22.675781 20.539062 20.382812 C 22.140625 18.746094 23.234375 16.691406 23.699219 14.457031 C 24.148438 12.277344 24 10.023438 23.25 7.933594 Z M 23.25 7.933594 "/>
<path style=" stroke:none;fill-rule:evenodd;fill:rgb(0%,60%,77.254902%);fill-opacity:1;" d="M 18.589844 9.253906 C 17.53125 6.699219 15.136719 5.003906 12.414062 4.835938 C 12.328125 4.824219 12.242188 4.820312 12.15625 4.820312 L 12.128906 4.820312 C 12.078125 4.820312 12.027344 4.816406 11.972656 4.816406 C 11.035156 4.816406 10.113281 5.003906 9.234375 5.367188 C 5.582031 6.882812 3.84375 11.089844 5.355469 14.746094 C 6.46875 17.4375 9.070312 19.179688 11.980469 19.179688 L 12.1875 19.179688 C 12.253906 19.179688 12.3125 19.175781 12.375 19.171875 C 13.179688 19.128906 13.960938 18.945312 14.714844 18.636719 C 16.484375 17.90625 17.859375 16.519531 18.597656 14.753906 C 19.332031 12.988281 19.324219 11.03125 18.589844 9.253906 Z M 9.457031 5.910156 C 9.667969 5.820312 9.886719 5.742188 10.101562 5.679688 C 9.746094 6.007812 9.417969 6.425781 9.128906 6.921875 C 8.769531 7.542969 8.488281 8.269531 8.285156 9.070312 L 6.082031 9.070312 C 6.765625 7.695312 7.929688 6.546875 9.457031 5.910156 Z M 8.757812 9.664062 L 11.855469 9.664062 L 11.855469 14.335938 L 8.78125 14.335938 C 8.617188 13.589844 8.53125 12.796875 8.53125 12 C 8.53125 11.175781 8.609375 10.386719 8.757812 9.664062 Z M 5.816406 14.34375 C 5.234375 12.78125 5.273438 11.121094 5.828125 9.660156 C 5.839844 9.660156 5.851562 9.664062 5.867188 9.664062 L 8.152344 9.664062 C 8.011719 10.402344 7.9375 11.191406 7.9375 12 C 7.9375 12.804688 8.015625 13.589844 8.167969 14.335938 L 5.859375 14.335938 C 5.847656 14.335938 5.832031 14.335938 5.816406 14.34375 Z M 6.082031 14.925781 L 8.316406 14.925781 C 8.511719 15.671875 8.785156 16.363281 9.128906 16.972656 C 9.441406 17.53125 9.800781 17.992188 10.1875 18.347656 C 8.414062 17.847656 6.914062 16.621094 6.082031 14.925781 Z M 11.859375 18.566406 C 11.039062 18.441406 10.257812 17.78125 9.640625 16.683594 C 9.351562 16.164062 9.113281 15.570312 8.933594 14.925781 L 11.859375 14.925781 Z M 11.859375 9.074219 L 8.898438 9.074219 C 9.4375 7.039062 10.539062 5.617188 11.859375 5.433594 Z M 17.867188 9.074219 L 16.019531 9.074219 C 15.820312 8.277344 15.535156 7.550781 15.175781 6.925781 C 14.941406 6.519531 14.675781 6.164062 14.394531 5.871094 C 15.886719 6.460938 17.132812 7.589844 17.867188 9.074219 Z M 12.449219 5.433594 C 13.769531 5.621094 14.867188 7.039062 15.414062 9.074219 L 12.449219 9.074219 Z M 12.449219 9.664062 L 15.550781 9.664062 C 15.695312 10.386719 15.773438 11.171875 15.773438 12 C 15.773438 12.796875 15.6875 13.589844 15.523438 14.335938 L 12.449219 14.335938 Z M 12.449219 18.566406 L 12.449219 14.925781 L 15.378906 14.925781 C 15.195312 15.570312 14.957031 16.164062 14.667969 16.683594 C 14.046875 17.78125 13.265625 18.441406 12.449219 18.566406 Z M 14.492188 18.09375 C 14.433594 18.117188 14.367188 18.140625 14.308594 18.164062 C 14.625 17.839844 14.917969 17.445312 15.183594 16.972656 C 15.523438 16.363281 15.800781 15.671875 15.996094 14.925781 L 17.871094 14.925781 C 17.160156 16.359375 15.976562 17.472656 14.492188 18.09375 Z M 18.121094 14.335938 L 16.128906 14.335938 C 16.277344 13.589844 16.359375 12.800781 16.359375 12 C 16.359375 11.1875 16.285156 10.402344 16.140625 9.664062 L 18.117188 9.664062 C 18.699219 11.175781 18.699219 12.820312 18.121094 14.335938 Z M 18.121094 14.335938 "/>
</g>
</svg>
