<?xml version="1.0" encoding="UTF-8"?>
<svg xmlns="http://www.w3.org/2000/svg" xmlns:xlink="http://www.w3.org/1999/xlink" width="34pt" height="34pt" viewBox="0 0 34 34" version="1.1">
<g id="surface1">
<path style=" stroke:none;fill-rule:evenodd;fill:rgb(0%,60%,77.254902%);fill-opacity:1;" d="M 30.105469 2.839844 C 30.105469 2.609375 29.917969 2.429688 29.6875 2.429688 C 29.6875 2.429688 29.6875 2.429688 29.683594 2.429688 C 29.453125 2.429688 29.265625 2.621094 29.273438 2.851562 L 29.300781 5.3125 L 28.820312 4.847656 C 25.582031 1.675781 21.300781 -0.0390625 16.769531 0.0078125 C 12.238281 0.0585938 8 1.878906 4.832031 5.125 C 2.566406 7.449219 1.019531 10.355469 0.359375 13.523438 C -0.28125 16.613281 -0.0664062 19.804688 0.996094 22.765625 C 1.058594 22.925781 1.21875 23.03125 1.390625 23.03125 C 1.441406 23.03125 1.488281 23.023438 1.53125 23.003906 C 1.746094 22.925781 1.855469 22.683594 1.78125 22.464844 C -0.320312 16.589844 1.074219 10.167969 5.421875 5.703125 C 11.640625 -0.671875 21.875 -0.792969 28.230469 5.4375 L 28.710938 5.90625 L 26.261719 5.9375 C 26.03125 5.9375 25.84375 6.132812 25.851562 6.363281 C 25.851562 6.59375 26.039062 6.773438 26.269531 6.773438 L 26.273438 6.773438 L 29.738281 6.730469 C 29.847656 6.730469 29.953125 6.683594 30.027344 6.605469 C 30.105469 6.53125 30.148438 6.417969 30.148438 6.308594 Z M 30.105469 2.839844 "/>
<path style=" stroke:none;fill-rule:evenodd;fill:rgb(0%,60%,77.254902%);fill-opacity:1;" d="M 32.9375 11.238281 C 32.851562 11.027344 32.609375 10.917969 32.394531 10.996094 C 32.179688 11.070312 32.070312 11.3125 32.144531 11.53125 C 34.246094 17.410156 32.851562 23.835938 28.503906 28.300781 C 25.34375 31.535156 21.152344 33.160156 16.964844 33.160156 C 12.898438 33.160156 8.824219 31.628906 5.6875 28.5625 L 5.207031 28.097656 L 7.664062 28.070312 C 7.894531 28.070312 8.082031 27.875 8.074219 27.648438 C 8.074219 27.417969 7.878906 27.230469 7.652344 27.238281 L 4.195312 27.269531 C 3.964844 27.269531 3.777344 27.464844 3.785156 27.695312 L 3.828125 31.164062 C 3.828125 31.394531 4.015625 31.574219 4.246094 31.574219 L 4.25 31.574219 C 4.480469 31.574219 4.667969 31.378906 4.660156 31.152344 L 4.632812 28.691406 L 5.113281 29.15625 C 8.304688 32.285156 12.507812 33.996094 16.964844 33.996094 L 17.164062 33.996094 C 21.695312 33.945312 25.933594 32.125 29.097656 28.878906 C 31.367188 26.554688 32.914062 23.648438 33.574219 20.476562 C 34.210938 17.390625 33.996094 14.199219 32.9375 11.238281 Z M 32.9375 11.238281 "/>
<path style=" stroke:none;fill-rule:evenodd;fill:rgb(0%,60%,77.254902%);fill-opacity:1;" d="M 26.335938 13.109375 C 24.839844 9.492188 21.445312 7.085938 17.585938 6.851562 C 17.460938 6.835938 17.34375 6.828125 17.21875 6.828125 L 17.183594 6.828125 C 17.109375 6.828125 17.039062 6.824219 16.964844 6.824219 C 15.628906 6.824219 14.328125 7.085938 13.085938 7.601562 C 7.90625 9.75 5.445312 15.707031 7.589844 20.886719 C 9.164062 24.707031 12.847656 27.171875 16.96875 27.171875 L 17.269531 27.171875 C 17.359375 27.171875 17.441406 27.167969 17.53125 27.160156 C 18.667969 27.097656 19.78125 26.839844 20.847656 26.402344 C 23.355469 25.367188 25.304688 23.40625 26.34375 20.902344 C 27.386719 18.398438 27.378906 15.625 26.335938 13.109375 Z M 13.394531 8.371094 C 13.695312 8.246094 14.007812 8.136719 14.3125 8.046875 C 13.804688 8.511719 13.339844 9.101562 12.929688 9.804688 C 12.425781 10.6875 12.023438 11.71875 11.738281 12.851562 L 8.617188 12.851562 C 9.585938 10.902344 11.230469 9.277344 13.394531 8.371094 Z M 12.402344 13.691406 L 16.796875 13.691406 L 16.796875 20.3125 L 12.4375 20.3125 C 12.210938 19.253906 12.085938 18.128906 12.085938 17 C 12.085938 15.832031 12.195312 14.714844 12.402344 13.691406 Z M 8.242188 20.316406 C 7.414062 18.105469 7.46875 15.757812 8.253906 13.683594 C 8.277344 13.683594 8.289062 13.691406 8.308594 13.691406 L 11.550781 13.691406 C 11.347656 14.734375 11.246094 15.855469 11.246094 17 C 11.246094 18.140625 11.355469 19.253906 11.570312 20.3125 L 8.304688 20.3125 C 8.28125 20.3125 8.261719 20.3125 8.242188 20.316406 Z M 8.617188 21.144531 L 11.78125 21.144531 C 12.058594 22.203125 12.445312 23.183594 12.929688 24.046875 C 13.375 24.835938 13.882812 25.492188 14.429688 25.992188 C 11.917969 25.28125 9.796875 23.542969 8.617188 21.144531 Z M 16.804688 26.304688 C 15.636719 26.125 14.535156 25.191406 13.660156 23.632812 C 13.25 22.898438 12.910156 22.054688 12.652344 21.144531 L 16.804688 21.144531 Z M 16.804688 12.859375 L 12.605469 12.859375 C 13.367188 9.972656 14.929688 7.957031 16.804688 7.699219 Z M 25.308594 12.859375 L 22.695312 12.859375 C 22.410156 11.722656 22.007812 10.695312 21.5 9.8125 C 21.167969 9.234375 20.792969 8.734375 20.390625 8.316406 C 22.507812 9.152344 24.269531 10.75 25.308594 12.859375 Z M 17.636719 7.699219 C 19.507812 7.960938 21.0625 9.972656 21.832031 12.859375 L 17.636719 12.859375 Z M 17.636719 13.691406 L 22.027344 13.691406 C 22.238281 14.714844 22.347656 15.828125 22.347656 17 C 22.347656 18.128906 22.222656 19.253906 21.992188 20.3125 L 17.636719 20.3125 Z M 17.636719 26.304688 L 17.636719 21.144531 L 21.785156 21.144531 C 21.527344 22.054688 21.1875 22.898438 20.777344 23.632812 C 19.898438 25.191406 18.792969 26.125 17.636719 26.304688 Z M 20.53125 25.628906 C 20.445312 25.664062 20.355469 25.699219 20.273438 25.734375 C 20.71875 25.277344 21.132812 24.710938 21.507812 24.046875 C 21.992188 23.183594 22.382812 22.203125 22.660156 21.144531 L 25.316406 21.144531 C 24.3125 23.175781 22.632812 24.753906 20.53125 25.628906 Z M 25.671875 20.3125 L 22.847656 20.3125 C 23.0625 19.253906 23.171875 18.136719 23.171875 17 C 23.171875 15.847656 23.070312 14.734375 22.867188 13.691406 L 25.664062 13.691406 C 26.488281 15.832031 26.488281 18.164062 25.671875 20.3125 Z M 25.671875 20.3125 "/>
</g>
</svg>
