<?xml version="1.0" encoding="UTF-8" standalone="no"?>
<svg width="38px" height="38px" viewBox="0 0 38 38" version="1.1" xmlns="http://www.w3.org/2000/svg" xmlns:xlink="http://www.w3.org/1999/xlink">
    <!-- Generator: Sketch 41.2 (35397) - http://www.bohemiancoding.com/sketch -->
    <title>worldwide</title>
    <desc>Created with Sketch.</desc>
    <defs></defs>
    <g id="Где-купить" stroke="none" stroke-width="1" fill="none" fill-rule="evenodd">
        <g id="buy-1400" transform="translate(-897.000000, -453.000000)" fill="#0099C5">
            <g id="filtr" transform="translate(250.000000, 435.000000)">
                <g id="+-copy-2" transform="translate(640.000000, 5.000000)">
                    <g id="ico1">
                        <g id="worldwide" transform="translate(7.000000, 13.000000)">
                            <g id="Layer_1">
                                <path d="M33.646751,3.17233947 C33.646751,2.91589775 33.4373633,2.71385276 33.1814449,2.71385276 C33.1814449,2.71385276 33.1814449,2.71385276 33.1736898,2.71385276 C32.9177714,2.71385276 32.7083837,2.93143967 32.7161388,3.18788139 L32.7471592,5.93880164 L32.2120571,5.41814724 C28.5904245,1.87458896 23.8055265,-0.0448384458 18.7414449,0.00955828221 C13.6773633,0.0639550102 8.93899592,2.09994683 5.40266939,5.72898569 C2.86675102,8.32448671 1.13736327,11.5727485 0.400628571,15.1163067 C-0.312840816,18.5666135 -0.0724326531,22.1334847 1.11409796,25.4439141 C1.18389388,25.6226462 1.36226122,25.7392106 1.55613878,25.7392106 C1.61042449,25.7392106 1.6647102,25.7314397 1.71124082,25.7081268 C1.95164898,25.6226462 2.07573061,25.3506626 1.99042449,25.1097628 C-0.359371429,18.5433006 1.19940408,11.3629325 6.06185306,6.37397546 C13.0104245,-0.75199591 24.4492,-0.884102249 31.5528735,6.07867894 L32.0879755,6.59933333 L29.3504245,6.63818814 C29.0945061,6.63818814 28.8851184,6.85577505 28.8928735,7.11221677 C28.8928735,7.36865849 29.1022612,7.57070348 29.3581796,7.57070348 L29.3659347,7.57070348 L33.2357306,7.52407771 C33.3598122,7.52407771 33.4761388,7.46968098 33.5614449,7.38420041 C33.646751,7.29871984 33.6932816,7.17438446 33.6932816,7.05004908 L33.646751,3.17233947 Z" id="Shape"></path>
                                <path d="M36.8108327,12.5596605 C36.7177714,12.3265317 36.4463429,12.2021963 36.2059347,12.2876769 C35.9655265,12.3731575 35.8414449,12.6451411 35.926751,12.8860409 C38.2765469,19.460274 36.7177714,26.6406421 31.8553224,31.6295992 C28.326751,35.2430961 23.6426694,37.061501 18.9585878,37.061501 C14.414098,37.061501 9.86185306,35.3518896 6.35654694,31.9248957 L5.8214449,31.4042413 L8.56675102,31.3731575 C8.82266939,31.3731575 9.03205714,31.1555706 9.02430204,30.8991288 C9.02430204,30.6426871 8.80715918,30.4328712 8.55124082,30.4406421 L4.6892,30.4794969 C4.43328163,30.4794969 4.22389388,30.6970838 4.23164898,30.9535256 L4.27817959,34.8312352 C4.27817959,35.0876769 4.48756735,35.2897219 4.74348571,35.2897219 L4.75124082,35.2897219 C5.00715918,35.2897219 5.21654694,35.072135 5.20879184,34.8156933 L5.17777143,32.064773 L5.71287347,32.5854274 C9.28022041,36.0823599 13.9798122,37.9940164 18.9585878,37.9940164 L19.1834857,37.9940164 C24.2475673,37.9396196 28.9859347,35.9036278 32.5222612,32.274589 C35.0581796,29.6790879 36.7875673,26.4308262 37.524302,22.8872679 C38.2377714,19.4369611 37.9973633,15.87009 36.8108327,12.5596605 Z" id="Shape"></path>
                                <path d="M29.4357306,14.6500491 C27.7606286,10.6091493 23.9683837,7.92039673 19.6565469,7.65618405 C19.5169551,7.64064213 19.3851184,7.63287117 19.2455265,7.63287117 L19.206751,7.63287117 C19.1214449,7.63287117 19.0438939,7.6251002 18.9585878,7.6251002 C17.4696082,7.6251002 16.011649,7.92039673 14.6234857,8.49544785 C8.83817959,10.8966748 6.08511837,17.5563885 8.4814449,23.3457546 C10.2418531,27.6120123 14.3598122,30.3707035 18.9663429,30.3707035 L19.1447102,30.3707035 L19.2455265,30.3707035 L19.2998122,30.3707035 C19.4006286,30.3707035 19.4936898,30.3629325 19.5945061,30.3551616 C20.8663429,30.2852229 22.1071592,29.9976973 23.3014449,29.5081268 C26.1010367,28.3502536 28.2802204,26.1588425 29.4434857,23.3612965 C30.606751,20.5637505 30.5989959,17.463137 29.4357306,14.6500491 Z M14.9724653,9.35802454 C15.3059347,9.21814724 15.6549143,9.09381186 15.9961388,8.99278937 C15.4300163,9.51344376 14.9104245,10.1739755 14.4528735,10.9588425 C13.886751,11.9457546 13.4369551,13.0958569 13.1189959,14.3625235 L9.6292,14.3625235 C10.7149143,12.1866544 12.5528735,10.3682495 14.9724653,9.35802454 Z M13.8634857,15.3028098 L18.7724653,15.3028098 L18.7724653,22.7007648 L13.9022612,22.7007648 C13.6463429,21.5195787 13.506751,20.260683 13.506751,19.0017873 C13.506751,17.6962658 13.6308327,16.4451411 13.8634857,15.3028098 Z M9.21042449,22.7085358 C8.28756735,20.2373701 8.34960816,17.6107853 9.22593469,15.2950389 C9.2492,15.2950389 9.2647102,15.3028098 9.28797551,15.3028098 L12.9096082,15.3028098 C12.6847102,16.468454 12.5683837,17.7195787 12.5683837,19.0017873 C12.5683837,20.2762249 12.6924653,21.5195787 12.9328735,22.7007648 L9.28022041,22.7007648 C9.2569551,22.7007648 9.2336898,22.7007648 9.21042449,22.7085358 Z M9.6292,23.6332802 L13.1655265,23.6332802 C13.4757306,24.8144663 13.9100163,25.9101718 14.4528735,26.873771 C14.9492,27.7596605 15.5153224,28.4901309 16.1279755,29.0496401 C13.3206286,28.257002 10.9475673,26.3142618 9.6292,23.6332802 Z M18.7802204,29.3993333 C17.4773633,29.1972883 16.244302,28.1559796 15.2671592,26.4152843 C14.8096082,25.5915624 14.4296082,24.6512761 14.1426694,23.6332802 L18.7802204,23.6332802 L18.7802204,29.3993333 Z M18.7802204,14.3702945 L14.0883837,14.3702945 C14.9414449,11.1453456 16.6863429,8.89176687 18.7802204,8.60424131 L18.7802204,14.3702945 Z M28.2879755,14.3702945 L25.364302,14.3702945 C25.0463429,13.1036278 24.5965469,11.9535256 24.0304245,10.9666135 C23.6581796,10.3216237 23.2394041,9.76211452 22.7896082,9.29585685 C25.1549143,10.2283722 27.1247102,12.0156933 28.2879755,14.3702945 Z M19.7108327,8.60424131 C21.8047102,8.89953783 23.5418531,11.1453456 24.4026694,14.3702945 L19.7108327,14.3702945 L19.7108327,8.60424131 Z M19.7108327,15.3028098 L24.6198122,15.3028098 C24.8524653,16.4451411 24.9765469,17.6884949 24.9765469,19.0017873 C24.9765469,20.260683 24.8369551,21.5195787 24.5810367,22.7007648 L19.7108327,22.7007648 L19.7108327,15.3028098 Z M19.7108327,29.3993333 L19.7108327,23.6332802 L24.3483837,23.6332802 C24.0614449,24.6512761 23.6814449,25.5915624 23.2238939,26.4152843 C22.2389959,28.1559796 21.0059347,29.1972883 19.7108327,29.3993333 Z M22.9447102,28.6455501 C22.851649,28.6844049 22.7508327,28.7232597 22.6577714,28.7621145 C23.154098,28.2492311 23.6194041,27.6197832 24.0381796,26.873771 C24.5810367,25.9101718 25.0153224,24.8144663 25.3255265,23.6332802 L28.2957306,23.6332802 C27.1712408,25.9024008 25.2945061,27.666409 22.9447102,28.6455501 Z M28.6912408,22.7007648 L28.6834857,22.7007648 L25.5349143,22.7007648 C25.7753224,21.5195787 25.8994041,20.268454 25.8994041,19.0017873 C25.8994041,17.7118078 25.7830776,16.468454 25.5581796,15.3028098 L28.6834857,15.3028098 C29.6063429,17.6962658 29.6063429,20.2995378 28.6912408,22.7007648 Z" id="Shape"></path>
                            </g>
                        </g>
                    </g>
                </g>
            </g>
        </g>
    </g>
</svg>