<svg width="24" height="25" viewBox="0 0 24 25" fill="none" xmlns="http://www.w3.org/2000/svg">
<path fill-rule="evenodd" clip-rule="evenodd" d="M21.2925 2.41767C21.2925 2.25354 21.1594 2.12848 20.9989 2.12848C20.9989 2.12848 20.9989 2.12848 20.995 2.12848C20.8306 2.12848 20.6975 2.26526 20.7054 2.42549L20.7249 4.16457L20.3844 3.83629C18.0948 1.59699 15.0654 0.385494 11.86 0.420667C8.65448 0.451931 5.65643 1.74158 3.42159 4.03169C1.81689 5.67307 0.720999 7.72479 0.255244 9.96409C-0.198768 12.1448 -0.0461257 14.3997 0.705343 16.4905C0.748396 16.6038 0.861899 16.6781 0.987144 16.6781C1.01846 16.6781 1.05368 16.6703 1.08499 16.6586C1.23763 16.6038 1.31591 16.4319 1.26112 16.2795C-0.226165 12.1291 0.760137 7.59191 3.83646 4.44204C8.23569 -0.0639291 15.4725 -0.145999 19.9696 4.25445L20.3062 4.58273L18.5762 4.60617C18.4118 4.60617 18.2788 4.74296 18.2866 4.90709C18.2866 5.06732 18.4157 5.19629 18.5801 5.19629H18.584L21.0341 5.16893C21.1124 5.16893 21.1868 5.13376 21.2377 5.07905C21.2925 5.02433 21.3238 4.94617 21.3238 4.86801L21.2925 2.41767Z" fill="#E54B2D"/>
<path fill-rule="evenodd" clip-rule="evenodd" d="M23.2964 8.35008C23.2377 8.20158 23.0654 8.12342 22.9128 8.17813C22.7602 8.23284 22.6819 8.4048 22.7367 8.5533C24.224 12.7075 23.2377 17.2448 20.1613 20.3986C17.9265 22.6809 14.9637 23.8298 11.9969 23.8298C9.12414 23.8298 6.2435 22.7512 4.02432 20.5861L3.68381 20.2579L5.42158 20.2383C5.58205 20.2383 5.71513 20.0976 5.71121 19.9374C5.71121 19.7733 5.57423 19.6443 5.41376 19.6482L2.96757 19.6717C2.8071 19.6717 2.67403 19.8084 2.67794 19.9726L2.70925 22.4229C2.70925 22.5832 2.84232 22.7121 3.00279 22.7121H3.00671C3.17109 22.7121 3.30025 22.5753 3.29634 22.4112L3.27677 20.6721L3.61728 21.0043C5.87168 23.2123 8.84625 24.4199 11.9969 24.4199H12.1418C15.3433 24.3848 18.3453 23.099 20.5801 20.805C22.1848 19.1675 23.2807 17.1119 23.7465 14.8765C24.1966 12.6958 24.0478 10.4409 23.2964 8.35008Z" fill="#E54B2D"/>
<path fill-rule="evenodd" clip-rule="evenodd" d="M18.6271 9.67098C17.5664 7.11512 15.1672 5.41903 12.4392 5.25099C12.3531 5.23926 12.267 5.23535 12.1809 5.23535H12.1535C12.1026 5.23535 12.0517 5.23145 11.9969 5.23145C11.0576 5.23145 10.1339 5.41903 9.25328 5.78248C5.59378 7.2988 3.8521 11.5078 5.36678 15.1657C6.48224 17.8583 9.08889 19.6013 12.0048 19.6013H12.2122C12.2787 19.6013 12.3374 19.5974 12.4001 19.5935C13.2063 19.5505 13.9891 19.3668 14.7445 19.0581C16.5175 18.3273 17.8952 16.9399 18.6349 15.1735C19.3707 13.4071 19.3629 11.4491 18.6271 9.67098ZM9.47637 6.3257C9.68772 6.23581 9.9069 6.15765 10.1222 6.09512C9.766 6.4234 9.43723 6.84156 9.1476 7.33788C8.78752 7.95926 8.50572 8.68615 8.3022 9.4873H6.09476C6.77969 8.11167 7.94604 6.96271 9.47637 6.3257ZM8.77578 10.0813H11.8795V14.7553H8.79927C8.63488 14.0089 8.54878 13.2156 8.54878 12.4183C8.54878 11.5937 8.62705 10.8043 8.77578 10.0813ZM5.82861 14.7631C5.24544 13.1999 5.28458 11.539 5.84036 10.0774C5.8521 10.0774 5.86384 10.0813 5.8795 10.0813H8.16913C8.02823 10.8199 7.95386 11.6094 7.95386 12.4183C7.95386 13.2234 8.03214 14.0089 8.18478 14.7553H5.87167C5.85993 14.7553 5.84427 14.7553 5.82861 14.7631ZM6.09476 15.3454H8.33351C8.52921 16.0919 8.80318 16.7836 9.1476 17.3933C9.46072 17.9521 9.82079 18.4133 10.2083 18.7689C8.43136 18.2687 6.92842 17.0415 6.09476 15.3454ZM11.8834 18.9877C11.0615 18.8627 10.2787 18.2022 9.66032 17.1041C9.3707 16.5843 9.13195 15.9903 8.95191 15.3454H11.8834V18.9877ZM11.8834 9.49121H8.91668C9.4568 7.45512 10.5605 6.03259 11.8834 5.84892V9.49121ZM17.903 9.49121H16.0517C15.8521 8.69397 15.5664 7.96707 15.2063 7.34179C14.9715 6.93535 14.7053 6.57972 14.4235 6.28662C15.9187 6.87673 17.1672 8.00615 17.903 9.49121ZM12.4744 5.84892C13.7973 6.0365 14.8971 7.45512 15.4451 9.49121H12.4744V5.84892ZM12.4744 10.0813H15.5821C15.7269 10.8043 15.8051 11.5898 15.8051 12.4183C15.8051 13.2156 15.719 14.0089 15.5547 14.7553H12.4744V10.0813ZM12.4744 18.9877V15.3454H15.4098C15.2259 15.9903 14.9871 16.5843 14.6975 17.1041C14.0752 18.2022 13.2924 18.8627 12.4744 18.9877ZM14.5214 18.5149C14.4627 18.5383 14.3961 18.5618 14.3374 18.5852C14.6545 18.2608 14.948 17.8661 15.2141 17.3933C15.5547 16.7836 15.8325 16.0919 16.0282 15.3454H17.9069C17.1946 16.7797 16.0087 17.8935 14.5214 18.5149ZM18.1574 14.7553H16.1613C16.31 14.0089 16.3922 13.2195 16.3922 12.4183C16.3922 11.6055 16.3179 10.8199 16.1731 10.0813H18.1535C18.7367 11.5937 18.7367 13.239 18.1574 14.7553Z" fill="#E54B2D"/>
</svg>
