<?xml version="1.0" encoding="UTF-8" standalone="no"?>
<svg width="33px" height="33px" viewBox="0 0 33 33" version="1.1" xmlns="http://www.w3.org/2000/svg" xmlns:xlink="http://www.w3.org/1999/xlink">
    <!-- Generator: Sketch 41.2 (35397) - http://www.bohemiancoding.com/sketch -->
    <title>wrench</title>
    <desc>Created with Sketch.</desc>
    <defs></defs>
    <g id="Кейсы-под-заказ" stroke="none" stroke-width="1" fill="none" fill-rule="evenodd">
        <g id="zakaz-1400" transform="translate(-807.000000, -1122.000000)" fill="#0099C5">
            <g id="sostav" transform="translate(209.000000, 970.000000)">
                <g id="+" transform="translate(304.000000, 0.000000)">
                    <g id="1-copy" transform="translate(281.000000, 138.000000)">
                        <g id="ico1">
                            <g id="wrench" transform="translate(13.000000, 14.000000)">
                                <g id="Layer_1">
                                    <path d="M31.9228412,2.99836842 L29.9321,1.01926901 C28.6338412,-0.271397661 26.4462647,-0.346467836 25.0554765,0.852017544 L21.5567647,3.86704678 C21.5119882,3.90564327 21.4735529,3.95105848 21.4430118,4.00155556 L18.0372176,9.64153216 L15.8504176,10.3661813 C15.6656176,10.4274211 15.5259176,10.5794269 15.4812059,10.7678421 C15.4364941,10.9562573 15.4930471,11.1542573 15.6307412,11.2912105 L21.5904765,17.2160292 C21.6971118,17.3219766 21.8405647,17.379614 21.9878353,17.379614 C22.0308647,17.379614 22.0741529,17.3747251 22.1169235,17.3646901 C22.3064471,17.3202398 22.4593471,17.1813567 22.5209471,16.9976374 L23.2500529,14.8229181 L29.0066118,11.3672456 C29.0572765,11.3367544 29.1028294,11.2986082 29.1415235,11.2539649 L32.1024647,7.84274269 C33.3012706,6.46176023 33.2205824,4.2885848 31.9228412,2.99836842 Z M31.2517118,7.11281871 L28.3492,10.4566901 L22.4920235,13.9727661 C22.3776882,14.0414035 22.2916941,14.1483158 22.2494412,14.2743977 L21.7423412,15.7868655 L20.3993706,14.4517485 C20.3991118,14.4514912 20.3989176,14.4511696 20.3986588,14.4509123 L18.4119941,12.4759942 C18.4118,12.4758012 18.4115412,12.4756725 18.4113471,12.4754795 L17.0682471,11.1402339 L18.5896118,10.6360994 C18.7168235,10.5939006 18.8246882,10.5079591 18.8936647,10.3937135 L22.3604765,4.65293567 L25.7915706,1.69618713 C26.7461765,0.873438596 28.2470941,0.924128655 29.1373824,1.80933918 L31.1281882,3.7884386 C32.0189294,4.67384211 32.0743176,6.16521053 31.2517118,7.11281871 Z" id="Shape"></path>
                                    <path d="M30.3299765,22.4452749 C28.6802353,20.8052456 26.2521471,20.2351754 24.0522118,20.944193 L12.1106118,9.0724269 C12.8237353,6.88535673 12.2503118,4.47140351 10.6007,2.83130994 C8.8627,1.10360234 6.26081176,0.563122807 3.97190588,1.45495906 C3.79545294,1.52372515 3.66565294,1.67630994 3.62689412,1.86080117 C3.58813529,2.04522807 3.64552941,2.23673099 3.7796,2.37001754 L7.35401765,5.92346784 L4.97005882,8.29342105 L1.39570588,4.73990643 C1.26157059,4.60668421 1.0692,4.54975439 0.883494118,4.58809357 C0.697917647,4.62662573 0.544370588,4.75560234 0.475264706,4.93108772 C-0.421688235,7.20647953 0.121776471,9.79321637 1.85971176,11.521117 C3.50945294,13.1611462 5.93754118,13.731345 8.13747647,13.0221988 L12.6027,17.4613099 L7.04207059,22.9895497 L3.50537647,24.9553977 C3.40702353,25.010076 3.32743529,25.0929298 3.27702941,25.193152 L1.68778824,28.3530468 C1.5796,28.5680936 1.62198235,28.827848 1.793,28.9979298 L3.77953529,30.9729123 C3.8874,31.0801462 4.03124118,31.1364971 4.17702353,31.1364971 C4.26237059,31.1364971 4.34836471,31.1171988 4.42821176,31.0775088 L7.60669412,29.4975614 C7.70750588,29.4474503 7.79084706,29.3683275 7.84584706,29.2705497 L9.82325882,25.7544737 L15.3840176,20.2264269 L20.0791412,24.8940936 C19.3659529,27.0811637 19.9394412,29.495117 21.5891176,31.1352105 C22.7708412,32.3099591 24.3518,32.9357368 25.9623294,32.9357368 C26.7204235,32.9356725 27.4852471,32.7969825 28.2178471,32.5116257 C28.3943,32.4428596 28.5241,32.2902749 28.5628588,32.1057836 C28.6016176,31.9213567 28.5442235,31.7298538 28.4101529,31.5965673 L24.8357353,28.0430526 L27.2196294,25.6731637 L30.7939824,29.226614 C30.9280529,29.3599006 31.1205529,29.4170877 31.3061941,29.3784269 C31.4917706,29.3398947 31.6453176,29.2109181 31.7144235,29.0354327 C32.6114412,26.7599123 32.0679765,24.1731754 30.3299765,22.4452749 Z M8.97341176,25.0192105 C8.93685294,25.0555556 8.9056,25.0967251 8.88036471,25.1416257 L6.94934706,28.5751696 L4.28786471,29.8981287 L2.87404118,28.4925731 L4.20471765,25.8465906 L7.65839412,23.9269298 C7.70355882,23.9018421 7.74497059,23.8707719 7.78152941,23.8344269 L13.3972882,18.2514444 L14.5892353,19.4364211 L8.97341176,25.0192105 Z M30.9203529,27.7721053 L27.6169882,24.4880585 C27.3975059,24.2699883 27.0418176,24.2699883 26.8223353,24.4880585 L23.6438529,27.6479532 C23.5385118,27.7527427 23.4793059,27.8947778 23.4793059,28.0429883 C23.4793059,28.1911988 23.5385118,28.3331696 23.6438529,28.4380234 L26.9472824,31.7221345 C25.3093176,32.0457018 23.5915706,31.5459415 22.3837706,30.3452047 C20.9617294,28.9314795 20.5170059,26.8147836 21.2509647,24.9528246 C21.3324294,24.746076 21.2830588,24.5110234 21.1251765,24.354 L8.68074706,11.9824094 C8.57333529,11.8756901 8.42962353,11.8188246 8.28325882,11.8188246 C8.21441176,11.8188246 8.14491765,11.8314327 8.0784,11.8573567 C6.20555294,12.5870877 4.07640588,12.1448363 2.6543,10.7312398 C1.44643529,9.53037427 0.943670588,7.82260819 1.26933529,6.19435088 L4.5727,9.47846199 C4.79218235,9.69659649 5.14787059,9.69646784 5.36735294,9.47846199 L8.54583529,6.31856725 C8.76525294,6.10036842 8.76525294,5.74676023 8.54583529,5.5285614 L5.24247059,2.24445029 C6.88043529,1.92023977 8.59805294,2.42045029 9.80598235,3.62138012 C11.2280235,5.03510526 11.6727471,7.15180117 10.9387882,9.01376023 C10.8573235,9.22050877 10.9066941,9.4555614 11.0645765,9.6125848 L23.5088765,21.9840468 C23.6668882,22.1410058 23.9034529,22.1900877 24.1112235,22.1090994 C25.9842,21.3796257 28.1132176,21.8215556 29.5353235,23.2352164 C30.7433176,24.4360819 31.2459529,26.1439123 30.9203529,27.7721053 Z" id="Shape"></path>
                                </g>
                            </g>
                        </g>
                    </g>
                </g>
            </g>
        </g>
    </g>
</svg>