<svg width="32" height="33" viewBox="0 0 32 33" fill="none" xmlns="http://www.w3.org/2000/svg">
<g clip-path="url(#clip0_42_1720)">
<path fill-rule="evenodd" clip-rule="evenodd" d="M30.9555 3.65751L29.0251 1.73838C27.7662 0.486826 25.6449 0.414031 24.2963 1.5762L20.9036 4.49986C20.8602 4.53729 20.8229 4.58133 20.7933 4.6303L17.4907 10.0994L15.3702 10.8021C15.191 10.8614 15.0555 11.0088 15.0121 11.1915C14.9688 11.3742 15.0236 11.5662 15.1571 11.6991L20.9363 17.4443C21.0397 17.5471 21.1788 17.603 21.3216 17.603C21.3633 17.603 21.4053 17.5982 21.4468 17.5885C21.6305 17.5454 21.7788 17.4107 21.8385 17.2326L22.5456 15.1237L28.1277 11.7728C28.1768 11.7432 28.221 11.7062 28.2585 11.6629L31.1297 8.35508C32.2922 7.01595 32.214 4.90863 30.9555 3.65751ZM30.3047 7.64728L27.4902 10.8898L21.8105 14.2993C21.6996 14.3659 21.6162 14.4696 21.5753 14.5918L21.0835 16.0585L19.7813 14.7638C19.781 14.7636 19.7808 14.7633 19.7806 14.763L17.8541 12.8479C17.8539 12.8477 17.8543 12.8481 17.8541 12.8479L16.5511 11.5527L18.0263 11.0638C18.1497 11.0229 18.2543 10.9395 18.3212 10.8288L21.6829 5.26194L25.0101 2.39479C25.9357 1.59697 27.3912 1.64612 28.2545 2.50451L30.185 4.42364C31.0487 5.28221 31.1024 6.72839 30.3047 7.64728Z" fill="#E54B2D"/>
<path fill-rule="evenodd" clip-rule="evenodd" d="M29.4109 22.5151C27.8111 20.9248 25.4566 20.372 23.3233 21.0595L11.7436 9.54748C12.4351 7.42668 11.8791 5.08588 10.2794 3.49549C8.5941 1.82013 6.07106 1.29603 3.85151 2.16084C3.6804 2.22753 3.55454 2.37549 3.51695 2.55439C3.47937 2.73323 3.53502 2.91893 3.66503 3.04817L7.13113 6.49394L4.81942 8.79208L1.35338 5.34625C1.22331 5.21706 1.03677 5.16186 0.856687 5.19904C0.676734 5.2364 0.52784 5.36147 0.460828 5.53164C-0.408944 7.73808 0.118052 10.2464 1.80332 11.922C3.40307 13.5123 5.75758 14.0652 7.89085 13.3776L12.2208 17.6822L6.82864 23.0429L3.39912 24.9491C3.30375 25.0022 3.22657 25.0825 3.17769 25.1797L1.63661 28.2438C1.5317 28.4524 1.5728 28.7043 1.73863 28.8692L3.66497 30.7843C3.76957 30.8883 3.90905 30.9429 4.05041 30.9429C4.13317 30.9429 4.21656 30.9242 4.29399 30.8857L7.37615 29.3537C7.47391 29.3051 7.55473 29.2284 7.60806 29.1335L9.52555 25.724L14.9178 20.3635L19.4706 24.8897C18.7791 27.0105 19.3352 29.3513 20.9349 30.9417C22.0808 32.0808 23.6138 32.6877 25.1756 32.6877C25.9107 32.6876 26.6523 32.5531 27.3627 32.2764C27.5338 32.2097 27.6597 32.0618 27.6973 31.8829C27.7349 31.704 27.6792 31.5183 27.5492 31.3891L24.0831 27.9432L26.3948 25.6452L29.8608 29.0909C29.9908 29.2202 30.1775 29.2756 30.3575 29.2381C30.5374 29.2008 30.6863 29.0757 30.7533 28.9055C31.6232 26.699 31.0962 24.1906 29.4109 22.5151ZM8.70146 25.011C8.666 25.0463 8.6357 25.0862 8.61123 25.1297L6.73873 28.4592L4.1579 29.7421L2.78691 28.3791L4.07727 25.8133L7.42629 23.9518C7.47008 23.9275 7.51024 23.8974 7.54569 23.8621L12.9913 18.4483L14.1471 19.5974L8.70146 25.011ZM29.9833 27.6805L26.7801 24.496C26.5672 24.2845 26.2223 24.2845 26.0095 24.496L22.9273 27.5601C22.8252 27.6617 22.7678 27.7995 22.7678 27.9432C22.7678 28.0869 22.8252 28.2246 22.9273 28.3262L26.1307 31.5108C24.5423 31.8246 22.8766 31.34 21.7054 30.1756C20.3265 28.8047 19.8952 26.7522 20.607 24.9467C20.686 24.7462 20.6381 24.5182 20.485 24.366L8.41766 12.3693C8.3135 12.2658 8.17415 12.2107 8.03222 12.2107C7.96546 12.2107 7.89807 12.2229 7.83357 12.248C6.01747 12.9556 3.95284 12.5268 2.57383 11.156C1.40257 9.99155 0.91504 8.33553 1.23084 6.75662L4.4341 9.94121C4.64693 10.1527 4.99184 10.1526 5.20467 9.94121L8.28684 6.87707C8.49961 6.66548 8.49961 6.32259 8.28684 6.111L5.08357 2.92641C6.6719 2.61203 8.33747 3.09708 9.5088 4.26162C10.8877 5.6325 11.319 7.68505 10.6073 9.49059C10.5283 9.69107 10.5762 9.919 10.7293 10.0713L22.7965 22.0678C22.9497 22.22 23.1791 22.2676 23.3805 22.1891C25.1968 21.4817 27.2613 21.9103 28.6403 23.2811C29.8117 24.4456 30.2991 26.1016 29.9833 27.6805Z" fill="#E54B2D"/>
</g>
<defs>
<clipPath id="clip0_42_1720">
<rect width="32" height="32" fill="white" transform="translate(0 0.75)"/>
</clipPath>
</defs>
</svg>
